<svg width="16" height="16" viewBox="0 0 16 16" fill="none" xmlns="http://www.w3.org/2000/svg">
<g clip-path="url(#clip0)">
<path d="M10.7463 0H4.55978C2.04551 0 0 2.06659 0 4.60678V10.8571C0 13.3973 2.04551 15.4639 4.55978 15.4639H10.7463C13.2606 15.4639 15.3061 13.3973 15.3061 10.8571V4.60678C15.3061 2.06659 13.2606 0 10.7463 0ZM13.7663 10.8571C13.7663 12.5422 12.4142 13.9082 10.7463 13.9082H4.55978C2.8919 13.9082 1.5398 12.5422 1.5398 10.8571V4.60678C1.5398 2.92169 2.8919 1.55567 4.55978 1.55567H10.7463C12.4142 1.55567 13.7663 2.92169 13.7663 4.60678V10.8571Z" fill="url(#paint0_linear)"/>
<path d="M7.65304 3.73242C5.47021 3.73242 3.69434 5.5266 3.69434 7.73191C3.69434 9.93722 5.47021 11.7314 7.65304 11.7314C9.83588 11.7314 11.6118 9.93725 11.6118 7.73191C11.6118 5.52657 9.83588 3.73242 7.65304 3.73242ZM7.65304 10.1758C6.31711 10.1758 5.23413 9.08165 5.23413 7.73194C5.23413 6.38223 6.31713 5.28809 7.65304 5.28809C8.98898 5.28809 10.072 6.38223 10.072 7.73194C10.072 9.08162 8.98896 10.1758 7.65304 10.1758Z" fill="url(#paint1_linear)"/>
<path d="M11.6195 4.72081C12.1434 4.72081 12.5681 4.29174 12.5681 3.76245C12.5681 3.23315 12.1434 2.80408 11.6195 2.80408C11.0956 2.80408 10.6709 3.23315 10.6709 3.76245C10.6709 4.29174 11.0956 4.72081 11.6195 4.72081Z" fill="url(#paint2_linear)"/>
</g>
<defs>
<linearGradient id="paint0_linear" x1="7.65306" y1="15.4189" x2="7.65306" y2="0.120111" gradientUnits="userSpaceOnUse">
<stop stop-color="white"/>
<stop offset="0.3" stop-color="white"/>
<stop offset="0.505208" stop-color="white"/>
<stop offset="0.6" stop-color="white"/>
<stop offset="1" stop-color="#FFFEFE"/>
</linearGradient>
<linearGradient id="paint1_linear" x1="7.65304" y1="15.4189" x2="7.65304" y2="0.120095" gradientUnits="userSpaceOnUse">
<stop stop-color="white"/>
<stop offset="0.3" stop-color="white"/>
<stop offset="0.6" stop-color="white"/>
<stop offset="1" stop-color="white"/>
</linearGradient>
<linearGradient id="paint2_linear" x1="11.6195" y1="15.4189" x2="11.6195" y2="0.120087" gradientUnits="userSpaceOnUse">
<stop stop-color="white"/>
<stop offset="0.3" stop-color="white"/>
<stop offset="0.6" stop-color="white"/>
<stop offset="1" stop-color="white"/>
</linearGradient>
<clipPath id="clip0">
<rect width="15.3061" height="15.4639" fill="white"/>
</clipPath>
</defs>
</svg>
