<svg width="50" height="50" viewBox="0 0 50 50" fill="none" xmlns="http://www.w3.org/2000/svg">
<path d="M42.2103 37.9707H42.1873C41.648 37.9707 41.2107 38.408 41.2107 38.9473C41.2107 39.4865 41.648 39.9238 42.1873 39.9238H42.2103C42.7496 39.9238 43.1869 39.4865 43.1869 38.9473C43.1869 38.408 42.7497 37.9707 42.2103 37.9707Z" fill="#4A699C"/>
<path d="M49.9999 38.9451V37.8799C49.9999 35.4773 48.4984 33.4203 46.3852 32.5938C47.0485 31.814 47.4506 30.8027 47.4506 29.6982C47.4506 27.2389 45.4619 25.2381 43.0175 25.2381C43.0033 25.2381 42.9895 25.2391 42.9754 25.2392C42.3251 24.3027 41.4199 23.5944 40.3852 23.1908C41.0451 22.4118 41.4448 21.4032 41.4448 20.302C41.4448 17.8426 39.4562 15.8418 37.0116 15.8418C36.9976 15.8418 36.9838 15.8428 36.9697 15.8429C36.3194 14.9062 35.4142 14.1979 34.3793 13.7942C35.0393 13.0152 35.439 12.0066 35.439 10.9053C35.4391 8.44609 33.4503 6.44531 31.0059 6.44531C28.5614 6.44531 26.5727 8.44609 26.5727 10.9054C26.5727 12.0067 26.9724 13.0154 27.6323 13.7943C26.5973 14.1979 25.6922 14.9063 25.0418 15.843C25.0278 15.8429 25.014 15.8419 25 15.8419C24.9859 15.8419 24.9721 15.8429 24.9581 15.843C24.3077 14.9063 23.4025 14.1979 22.3676 13.7943C23.0275 13.0153 23.4272 12.0067 23.4272 10.9054C23.4271 8.44609 21.4386 6.44531 18.9941 6.44531C16.5496 6.44531 14.5608 8.44609 14.5608 10.9054C14.5608 12.0067 14.9605 13.0154 15.6205 13.7943C14.5855 14.1979 13.6804 14.9063 13.0301 15.843C13.0161 15.8429 13.0022 15.8419 12.9883 15.8419C10.5438 15.8419 8.55508 17.8427 8.55508 20.3021C8.55508 21.4033 8.95479 22.4119 9.61475 23.1909C8.57988 23.5945 7.67471 24.3027 7.02441 25.2393C7.01035 25.2392 6.99648 25.2382 6.98242 25.2382C4.53799 25.2382 2.54922 27.239 2.54922 29.6983C2.54922 30.8028 2.95127 31.8141 3.61475 32.5939C1.50146 33.4204 0 35.4774 0 37.88V42.5781C0 43.1174 0.437207 43.5547 0.976562 43.5547H49.0233C49.5627 43.5547 49.9999 43.1174 49.9999 42.5781V38.949C49.9999 38.9483 50 38.9478 50 38.9471C50 38.9464 49.9999 38.9458 49.9999 38.9451ZM43.0176 27.1912C44.3851 27.1913 45.4976 28.3159 45.4976 29.6982C45.4976 31.0806 44.3851 32.2052 43.0176 32.2052C41.65 32.2052 40.5374 31.0806 40.5374 29.6982C40.5374 28.3159 41.65 27.1912 43.0176 27.1912ZM37.0117 17.795C38.3792 17.795 39.4918 18.9196 39.4918 20.3021C39.4918 21.6844 38.3792 22.809 37.0117 22.809C35.6442 22.809 34.5316 21.6844 34.5316 20.3021C34.5316 18.9197 35.6442 17.795 37.0117 17.795ZM31.0059 8.39844C32.3733 8.39844 33.4859 9.52305 33.4859 10.9054C33.4859 12.2877 32.3733 13.4124 31.0059 13.4124C29.6384 13.4124 28.5258 12.2877 28.5258 10.9054C28.5258 9.52305 29.6384 8.39844 31.0059 8.39844ZM29.6617 15.3655H32.3498C33.3055 15.3655 34.206 15.7432 34.8817 16.3917C33.5103 17.1509 32.5785 18.6189 32.5785 20.3021C32.5785 21.4033 32.9782 22.4119 33.6382 23.1909C32.6032 23.5945 31.6982 24.3027 31.0479 25.2393C31.0339 25.2392 31.02 25.2382 31.0059 25.2382C30.9917 25.2382 30.9778 25.2392 30.9637 25.2393C30.3134 24.3028 29.4083 23.5945 28.3734 23.1909C29.0334 22.4119 29.4331 21.4033 29.4331 20.3021C29.4331 18.6189 28.5014 17.1509 27.1298 16.3917C27.8056 15.7432 28.7061 15.3655 29.6617 15.3655ZM33.4859 29.6982C33.4859 31.0806 32.3733 32.2052 31.0059 32.2052C29.6383 32.2052 28.5257 31.0807 28.5257 29.6982C28.5257 28.3159 29.6383 27.1912 31.0059 27.1912C32.3733 27.1912 33.4859 28.3159 33.4859 29.6982ZM25 17.795C26.3675 17.795 27.48 18.9197 27.48 20.3021C27.48 21.6844 26.3674 22.809 25 22.809C23.6325 22.809 22.5199 21.6844 22.5199 20.3021C22.5199 18.9196 23.6325 17.795 25 17.795ZM18.9941 8.39844C20.3615 8.39844 21.474 9.52305 21.474 10.9054C21.474 12.2877 20.3615 13.4124 18.9941 13.4124C17.6267 13.4124 16.514 12.2877 16.514 10.9054C16.514 9.52305 17.6267 8.39844 18.9941 8.39844ZM17.65 15.3655H20.3381C21.2937 15.3655 22.1942 15.7432 22.87 16.3918C21.4984 17.1509 20.5668 18.6189 20.5668 20.3021C20.5668 21.4033 20.9665 22.4119 21.6265 23.1909C20.5916 23.5945 19.6864 24.3027 19.0361 25.2393C19.0221 25.2392 19.0082 25.2382 18.9941 25.2382C18.98 25.2382 18.9662 25.2392 18.9521 25.2393C18.3019 24.3027 17.3967 23.5945 16.3618 23.1909C17.0218 22.4119 17.4215 21.4033 17.4215 20.3021C17.4215 18.6189 16.4897 17.1509 15.1183 16.3917C15.7938 15.7432 16.6944 15.3655 17.65 15.3655ZM21.474 29.6982C21.474 31.0806 20.3615 32.2052 18.9941 32.2052C17.6267 32.2052 16.514 31.0807 16.514 29.6982C16.514 28.3159 17.6266 27.1912 18.9941 27.1912C20.3615 27.1912 21.474 28.3159 21.474 29.6982ZM12.9883 17.795C14.3558 17.795 15.4683 18.9197 15.4683 20.3021C15.4683 21.6844 14.3557 22.809 12.9883 22.809C11.6208 22.809 10.5082 21.6844 10.5082 20.3021C10.5082 18.9196 11.6208 17.795 12.9883 17.795ZM6.98242 27.1913C8.3499 27.1913 9.4624 28.316 9.4624 29.6983C9.4624 31.0807 8.3498 32.2053 6.98242 32.2053C5.61494 32.2053 4.50234 31.0807 4.50234 29.6983C4.50234 28.3159 5.61494 27.1913 6.98242 27.1913ZM12.0116 41.6016H1.95312V39.9236H4.98389C5.52324 39.9236 5.96045 39.4864 5.96045 38.9471C5.96045 38.4078 5.52324 37.9705 4.98389 37.9705H1.95312V37.8799C1.95312 35.8277 3.62266 34.1583 5.67471 34.1583H8.29004C10.3422 34.1583 12.0116 35.8278 12.0116 37.8799V41.6016ZM12.9881 34.7008C12.3468 33.7561 11.4277 33.0154 10.3499 32.5939C11.0134 31.8141 11.4154 30.8028 11.4154 29.6983C11.4154 28.0153 10.4838 26.5474 9.1123 25.7881C9.78818 25.1396 10.6886 24.7621 11.6441 24.7621H14.3322C15.2879 24.7621 16.1883 25.1396 16.864 25.7881C15.4925 26.5473 14.5607 28.0153 14.5607 29.6983C14.5607 30.8028 14.9628 31.8142 15.6263 32.5939C14.5484 33.0154 13.6294 33.7561 12.9881 34.7008ZM24.0233 41.6016H13.9648V37.88C13.9648 35.8278 15.6344 34.1584 17.6864 34.1584H20.3018C22.3539 34.1584 24.0233 35.8279 24.0233 37.88V41.6016ZM25 34.7008C24.3587 33.7561 23.4396 33.0153 22.3617 32.5939C23.0251 31.8141 23.4271 30.8028 23.4271 29.6983C23.4271 28.0153 22.4956 26.5474 21.1241 25.7882C21.7999 25.1397 22.7003 24.7621 23.6559 24.7621H26.3439C27.2995 24.7621 28.1999 25.1397 28.8757 25.7882C27.5042 26.5474 26.5726 28.0153 26.5726 29.6983C26.5726 30.8028 26.9746 31.8141 27.6381 32.5939C26.5603 33.0154 25.6412 33.7561 25 34.7008ZM36.0351 41.6016H25.9766V37.88C25.9766 35.8278 27.6461 34.1584 29.698 34.1584H32.3135C34.3656 34.1584 36.0351 35.8279 36.0351 37.88V41.6016ZM37.0116 34.7007C36.3704 33.756 35.4513 33.0153 34.3734 32.5938C35.0368 31.814 35.4389 30.8027 35.4389 29.6982C35.4389 28.0152 34.5072 26.5473 33.1357 25.788C33.8115 25.1396 34.7119 24.762 35.6675 24.762H38.3556C39.3111 24.762 40.2116 25.1396 40.8873 25.788C39.5161 26.5474 38.5843 28.0152 38.5843 29.6982C38.5843 30.8027 38.9863 31.814 39.6498 32.5938C38.572 33.0153 37.6529 33.756 37.0116 34.7007ZM48.0467 37.9706H45.016C44.4768 37.9706 44.0395 38.4079 44.0395 38.9472C44.0395 39.4865 44.4768 39.9237 45.016 39.9237H48.0467V41.6016H37.9883V37.88C37.9883 35.8278 39.6578 34.1584 41.7099 34.1584H44.3252C46.3772 34.1584 48.0467 35.8279 48.0467 37.88V37.9706Z" fill="#4A699C"/>
<path d="M7.8125 37.9707H7.78955C7.2502 37.9707 6.81299 38.408 6.81299 38.9473C6.81299 39.4865 7.2502 39.9238 7.78955 39.9238H7.8125C8.35186 39.9238 8.78906 39.4865 8.78906 38.9473C8.78906 38.408 8.35186 37.9707 7.8125 37.9707Z" fill="#4A699C"/>
</svg>
