<svg width="25" height="25" viewBox="0 0 25 25" fill="none" xmlns="http://www.w3.org/2000/svg">
<g clip-path="url(#clip0)">
<path d="M12.5 5.85959C12.9044 5.85959 13.2324 5.53167 13.2324 5.1272V2.5394C13.2324 2.13492 12.9044 1.80701 12.5 1.80701C12.0955 1.80701 11.7676 2.13492 11.7676 2.5394V5.1272C11.7676 5.53172 12.0955 5.85959 12.5 5.85959Z" fill="#EBF0FF"/>
<path d="M8.45942 7.10382C8.7454 7.38984 9.20915 7.38989 9.49517 7.10382C9.7812 6.81779 9.7812 6.35409 9.49517 6.06806L7.66531 4.2382C7.37933 3.95218 6.91558 3.95218 6.62956 4.2382C6.34353 4.52422 6.34353 4.98793 6.62956 5.27395L8.45942 7.10382Z" fill="#EBF0FF"/>
<path d="M16.0196 7.31829C16.2071 7.31829 16.3945 7.24681 16.5375 7.10375L18.3673 5.27389C18.6533 4.98787 18.6533 4.52416 18.3673 4.23814C18.0813 3.95211 17.6176 3.95211 17.3316 4.23814L15.5017 6.068C15.039 6.53072 15.373 7.31829 16.0196 7.31829Z" fill="#EBF0FF"/>
<path d="M24.9693 22.2421L23.0163 15.9924C22.9207 15.6866 22.6375 15.4784 22.3172 15.4784H18.9007L17.1083 9.74258C17.0127 9.43683 16.7295 9.22864 16.4092 9.22864H8.59703C8.27668 9.22864 7.99353 9.43683 7.89798 9.74258L6.10552 15.4784H2.68904C2.36869 15.4784 2.08555 15.6866 1.99 15.9924L0.0369444 22.2421C-0.11012 22.7127 0.241478 23.193 0.735991 23.193H24.2703C24.7632 23.193 25.1168 22.7142 24.9693 22.2421ZM9.13548 10.6934H15.8708L17.3661 15.4784C16.2078 15.4784 8.79848 15.4784 7.64018 15.4784L9.13548 10.6934ZM12.5031 20.0051L11.5463 16.9432H13.46L12.5031 20.0051ZM1.73219 21.7282L3.2275 16.9432H10.0116L11.5069 21.7282H1.73219ZM13.4993 21.7282L14.9946 16.9432H21.7787L23.274 21.7282H13.4993Z" fill="#EBF0FF"/>
</g>
<defs>
<clipPath id="clip0">
<rect width="25" height="25" fill="white"/>
</clipPath>
</defs>
</svg>
