<svg width="18" height="15" viewBox="0 0 18 15" fill="none" xmlns="http://www.w3.org/2000/svg">
<path d="M17.4759 1.68133C16.8331 1.96636 16.1416 2.15915 15.4165 2.24525C16.1569 1.80165 16.725 1.09976 16.9932 0.262039C16.3004 0.673013 15.5328 0.97115 14.7164 1.13185C14.0624 0.435306 13.1306 0 12.0987 0C10.119 0 8.51333 1.60566 8.51333 3.58539C8.51333 3.86641 8.54515 4.13995 8.60665 4.40252C5.62689 4.25306 2.98484 2.82574 1.21634 0.6559C0.907778 1.18533 0.730768 1.80165 0.730768 2.45862C0.730768 3.70224 1.36421 4.80013 2.32573 5.44293C1.73828 5.42448 1.18506 5.26324 0.70189 4.99398C0.701623 5.00923 0.701623 5.02447 0.701623 5.03944C0.701623 6.77665 1.93802 8.22562 3.5779 8.55478C3.27736 8.63713 2.95997 8.68071 2.63349 8.68071C2.40194 8.68071 2.1776 8.65852 1.95888 8.61681C2.41504 10.0409 3.73887 11.0776 5.30816 11.1067C4.08086 12.0685 2.53509 12.6415 0.854835 12.6415C0.566058 12.6415 0.279954 12.6247 0 12.5912C1.58587 13.6089 3.47095 14.2023 5.4956 14.2023C12.0904 14.2023 15.6969 8.73901 15.6969 4.00064C15.6969 3.84529 15.6935 3.69047 15.6865 3.53699C16.3876 3.03163 16.9954 2.40033 17.4759 1.68133Z" fill="white"/>
</svg>
