<svg width="30" height="30" viewBox="0 0 30 30" fill="none" xmlns="http://www.w3.org/2000/svg">
<g clip-path="url(#clip0)">
<path d="M4.98476 26.6562C4.87583 26.5471 4.72466 26.4845 4.57056 26.4845C4.41646 26.4845 4.26528 26.5471 4.1563 26.6562C4.04731 26.7652 3.98462 26.9163 3.98462 27.0704C3.98462 27.2245 4.04726 27.3757 4.1563 27.4846C4.26528 27.5936 4.41646 27.6564 4.57056 27.6564C4.72466 27.6564 4.87583 27.5937 4.98476 27.4846C5.09374 27.3757 5.15649 27.2245 5.15649 27.0704C5.15649 26.9163 5.0938 26.7652 4.98476 26.6562Z" fill="#787878"/>
<path d="M27.5112 10.7189C27.4022 10.6099 27.2516 10.5472 27.0969 10.5472C26.9428 10.5472 26.7917 10.6099 26.6827 10.7189C26.5737 10.8279 26.511 10.9791 26.511 11.1332C26.511 11.2873 26.5737 11.4385 26.6827 11.5474C26.7917 11.6564 26.9428 11.7191 27.0969 11.7191C27.2516 11.7191 27.4022 11.6564 27.5112 11.5474C27.6207 11.4385 27.6834 11.2873 27.6834 11.1332C27.6834 10.9791 27.6207 10.8279 27.5112 10.7189Z" fill="#787878"/>
<path d="M29.8279 0.171621C29.7179 0.0617578 29.5689 0 29.4134 0L14.9997 0.000761719C14.6762 0.000761719 14.4138 0.263145 14.4138 0.586699V2.2623L8.85979 3.75053C8.5472 3.83432 8.36169 4.15559 8.44548 4.46812L11.324 15.2108L8.83384 17.701C8.5169 17.2382 7.98476 16.9339 7.38282 16.9339H1.758C0.78874 16.9339 0.000244141 17.7224 0.000244141 18.6916V28.2422C0.000244141 29.2114 0.78874 30 1.758 30H7.38288C8.2063 30 8.89899 29.4307 9.08884 28.6652L9.78552 29.2728C10.3233 29.7418 11.0124 30.0001 11.726 30.0001H29.4135C29.7371 30.0001 29.9995 29.7377 29.9995 29.4141V0.585938C29.9994 0.430547 29.9377 0.281484 29.8279 0.171621ZM7.9687 28.2422C7.9687 28.5653 7.70585 28.8282 7.38276 28.8282H1.75794C1.43485 28.8282 1.172 28.5653 1.172 28.2422V18.6917C1.172 18.3686 1.43485 18.1058 1.75794 18.1058H3.98444V24.8555C3.98444 25.179 4.24683 25.4414 4.57038 25.4414C4.89393 25.4414 5.15632 25.179 5.15632 24.8555V18.1058H7.38282C7.70591 18.1058 7.96876 18.3686 7.96876 18.6917V28.2422H7.9687ZM9.72903 4.7308L14.4138 3.47549V5.64668L14.0211 5.75191C13.871 5.79217 13.7431 5.89031 13.6654 6.0249C13.5877 6.15949 13.5666 6.31939 13.6068 6.46951C13.832 7.3098 13.3316 8.17658 12.4913 8.40176C12.341 8.44207 12.2128 8.54039 12.1352 8.67527C12.0575 8.8101 12.0366 8.97029 12.0772 9.12053L14.3612 17.5778H13.1852L12.5791 15.2069C12.5599 15.1314 12.5261 15.0619 12.4809 15.0014L9.72903 4.7308ZM14.4138 8.33373V13.2779L13.3451 9.3208C13.7916 9.09029 14.1569 8.74541 14.4138 8.33373ZM22.8316 28.8281H11.7259C11.2955 28.8281 10.8799 28.6724 10.5556 28.3896L9.14058 27.1555V19.0516L11.6987 16.4935L12.1626 18.3087C12.2289 18.5681 12.4625 18.7495 12.7303 18.7495L24.25 18.7502C24.7024 18.7502 25.0703 19.1182 25.0703 19.5705C25.0703 20.0229 24.7024 20.3909 24.25 20.3909H18.3473C18.0237 20.3909 17.7614 20.6532 17.7614 20.9768C17.7614 21.3004 18.0237 21.5627 18.3473 21.5627H26.084C26.5364 21.5627 26.9043 21.9307 26.9043 22.383C26.9043 22.8354 26.5364 23.2034 26.084 23.2034H18.3473C18.0237 23.2034 17.7614 23.4657 17.7614 23.7893C17.7614 24.1129 18.0237 24.3752 18.3473 24.3752H24.8303C25.2826 24.3752 25.6506 24.7432 25.6506 25.1955C25.6506 25.6479 25.2826 26.0159 24.8303 26.0159H18.3473C18.0237 26.0159 17.7614 26.2782 17.7614 26.6018C17.7614 26.9254 18.0237 27.1877 18.3473 27.1877H22.8316C23.284 27.1877 23.652 27.5557 23.652 28.008C23.6519 28.4602 23.2839 28.8281 22.8316 28.8281ZM28.8276 28.8281H28.8275H24.6464C24.76 28.5778 24.8238 28.3002 24.8238 28.0078C24.8238 27.7154 24.76 27.4379 24.6464 27.1875H24.8303C25.9287 27.1875 26.8224 26.2938 26.8224 25.1954C26.8224 24.875 26.7459 24.5722 26.6109 24.3037C27.4545 24.0721 28.0761 23.2989 28.0761 22.3829C28.0761 21.9386 27.9297 21.5278 27.6829 21.1961V13.7699C27.6829 13.4464 27.4205 13.184 27.0969 13.184C26.7734 13.184 26.511 13.4464 26.511 13.7699V20.4374C26.3733 20.4073 26.2305 20.3909 26.0839 20.3909H26.0647C26.1783 20.1405 26.2421 19.8629 26.2421 19.5705C26.2421 18.472 25.3484 17.5784 24.25 17.5784H23.3081C24.3082 17.1495 25.0106 16.1554 25.0106 15C25.0106 13.4538 23.7527 12.1958 22.2065 12.1958C20.6603 12.1958 19.4024 13.4538 19.4024 15C19.4024 16.1554 20.1049 17.1495 21.1049 17.5784H17.902V6.43728C18.9488 6.20918 19.7747 5.3833 20.0027 4.33652H24.4102C24.6383 5.3833 25.4642 6.20918 26.5109 6.43728V8.25896C26.5109 8.58252 26.7733 8.8449 27.0969 8.8449C27.4204 8.8449 27.6828 8.58252 27.6828 8.25896V5.91416C27.6828 5.59061 27.4204 5.32822 27.0969 5.32822C26.2269 5.32822 25.5193 4.62047 25.5193 3.75059C25.5193 3.42703 25.2569 3.16465 24.9333 3.16465H19.4797C19.1561 3.16465 18.8937 3.42703 18.8937 3.75059C18.8937 4.62053 18.186 5.32822 17.3162 5.32822C16.9926 5.32822 16.7302 5.59061 16.7302 5.91416V17.5784H15.5858V1.17252L28.8276 1.17188V28.8281ZM22.2066 16.6323C21.3066 16.6323 20.5744 15.9001 20.5744 15.0001C20.5744 14.1001 21.3066 13.3678 22.2066 13.3678C23.1066 13.3678 23.8389 14.1 23.8389 15C23.8389 15.9 23.1067 16.6323 22.2066 16.6323Z" fill="#787878"/>
</g>
<defs>
<clipPath id="clip0">
<rect width="30" height="30" fill="white"/>
</clipPath>
</defs>
</svg>
