<svg width="30" height="30" viewBox="0 0 30 30" fill="none" xmlns="http://www.w3.org/2000/svg">
<path d="M20.0361 19.2397C19.3253 19.2397 18.7471 18.7392 18.7471 18.124C18.7471 17.5087 19.3253 17.0082 20.0361 17.0082C20.7469 17.0082 21.3252 17.5087 21.3252 18.124C21.3252 18.4475 21.5876 18.7099 21.9111 18.7099C22.2347 18.7099 22.4971 18.4475 22.4971 18.124C22.4971 17.0502 21.697 16.1474 20.6221 15.9024V15.5977C20.6221 15.2741 20.3597 15.0117 20.0361 15.0117C19.7126 15.0117 19.4502 15.2741 19.4502 15.5977V15.9024C18.3752 16.1474 17.5752 17.0502 17.5752 18.124C17.5752 19.3853 18.6792 20.4115 20.0361 20.4115C20.7469 20.4115 21.3252 20.912 21.3252 21.5273C21.3252 22.1425 20.7469 22.643 20.0361 22.643C19.3253 22.643 18.7471 22.1425 18.7471 21.5273C18.7471 21.2037 18.4847 20.9413 18.1611 20.9413C17.8376 20.9413 17.5752 21.2037 17.5752 21.5273C17.5752 22.601 18.3752 23.5038 19.4502 23.7489V24.002C19.4502 24.3255 19.7126 24.5879 20.0361 24.5879C20.3597 24.5879 20.6221 24.3255 20.6221 24.002V23.7489C21.697 23.5038 22.4971 22.601 22.4971 21.5273C22.4971 20.2659 21.3931 19.2397 20.0361 19.2397Z" fill="#FFC700" fill-opacity="0.7"/>
<path d="M26.4541 15.7544C25.6887 14.5617 24.6103 13.6073 23.3356 12.9945C23.0439 12.8543 22.6938 12.9771 22.5536 13.2688C22.4134 13.5604 22.5361 13.9105 22.8278 14.0507C25.0492 15.1185 26.4844 17.4001 26.4844 19.8633C26.4844 20.9172 26.2246 21.9625 25.7332 22.8862C25.5812 23.1718 25.6895 23.5267 25.9752 23.6786C26.0629 23.7253 26.1571 23.7474 26.2499 23.7474C26.4596 23.7474 26.6624 23.6346 26.7677 23.4366C27.349 22.3442 27.6563 21.1085 27.6563 19.8633C27.6563 18.4008 27.2406 16.9799 26.4541 15.7544Z" fill="#FFC700" fill-opacity="0.7"/>
<path d="M20.9574 12.2463L20.918 12.2462C20.5944 12.2462 20.332 12.5085 20.332 12.8322C20.332 13.1558 20.5944 13.4181 20.918 13.4181L20.9519 13.4181C20.9528 13.4181 20.9537 13.4181 20.9547 13.4181C21.277 13.4181 21.5391 13.1576 21.5406 12.835C21.5421 12.5114 21.281 12.2478 20.9574 12.2463Z" fill="#FFC700" fill-opacity="0.7"/>
<path d="M17.2505 25.6758C15.0292 24.608 13.594 22.3264 13.594 19.8633C13.594 18.8093 13.8538 17.7641 14.3452 16.8404C14.4972 16.5547 14.3889 16.1999 14.1032 16.0479C13.8176 15.8959 13.4626 16.0043 13.3107 16.29C12.7294 17.3824 12.4221 18.6181 12.4221 19.8633C12.4221 21.3258 12.8378 22.7466 13.6243 23.9722C14.3897 25.1648 15.4681 26.1192 16.7428 26.732C16.8247 26.7714 16.9111 26.79 16.9963 26.79C17.2145 26.79 17.4239 26.6676 17.5248 26.4578C17.6649 26.1661 17.5422 25.816 17.2505 25.6758Z" fill="#FFC700" fill-opacity="0.7"/>
<path d="M19.1601 26.3086L19.1262 26.3085C18.8011 26.3079 18.5391 26.568 18.5376 26.8917C18.5361 27.2153 18.7973 27.4788 19.1208 27.4803L19.1601 27.4805C19.4837 27.4805 19.746 27.2181 19.746 26.8945C19.746 26.571 19.4837 26.3086 19.1601 26.3086Z" fill="#FFC700" fill-opacity="0.7"/>
<path d="M22.6997 10.2637C22.6284 10.0938 22.541 9.93367 22.4394 9.78514H23.9648C25.451 9.78514 26.6601 8.576 26.6601 7.08983C26.6601 5.60366 25.451 4.39452 23.9648 4.39452H19.2726C19.5709 3.96081 19.7461 3.43611 19.7461 2.87109C19.7461 1.38492 18.5369 0.175781 17.0507 0.175781H2.69531C1.20914 0.175781 0 1.38492 0 2.87109C0 4.35726 1.20914 5.5664 2.69531 5.5664H7.38749C7.08919 6.00011 6.91405 6.52481 6.91405 7.08983C6.91405 7.65485 7.08913 8.17955 7.38749 8.61327H5.85936C4.37319 8.61327 3.16406 9.8224 3.16406 11.3086C3.16406 12.1621 3.56331 12.9238 4.18446 13.4179C3.56331 13.9121 3.16406 14.6738 3.16406 15.5273C3.16406 16.3808 3.56331 17.1425 4.18446 17.6367C3.56331 18.1309 3.16406 18.8925 3.16406 19.7461C3.16406 20.5996 3.56331 21.3612 4.18446 21.8554C3.56331 22.3496 3.16406 23.1113 3.16406 23.9648C3.16406 25.451 4.37319 26.6601 5.85936 26.6601H12.7646C14.5837 28.6058 17.1716 29.8242 20.0391 29.8242C25.5315 29.8242 30 25.3558 30 19.8633C30 15.292 26.9045 11.4306 22.6997 10.2637ZM23.9648 5.5664C24.8049 5.5664 25.4882 6.24983 25.4882 7.08983C25.4882 7.92983 24.8049 8.61327 23.9648 8.61327H20.2148H9.60936C8.7693 8.61327 8.08592 7.92983 8.08592 7.08983C8.08592 6.24983 8.7693 5.5664 9.60936 5.5664H23.9648ZM2.69531 4.39452C1.85525 4.39452 1.17187 3.71109 1.17187 2.87109C1.17187 2.03109 1.85525 1.34765 2.69531 1.34765H17.0507C17.8908 1.34765 18.5742 2.03109 18.5742 2.87109C18.5742 3.71109 17.8908 4.39452 17.0507 4.39452H2.69531ZM5.85936 9.78514H20.2148C20.4508 9.78514 20.6768 9.83998 20.8796 9.93818C20.6024 9.91492 20.3222 9.90238 20.0391 9.90238C17.2884 9.90238 14.7947 11.0232 12.9903 12.832H5.85936C5.01937 12.832 4.33593 12.1486 4.33593 11.3086C4.33593 10.4686 5.01937 9.78514 5.85936 9.78514ZM5.85936 14.0039H11.9891C11.324 14.9152 10.8097 15.943 10.4831 17.0507H5.85936C5.01931 17.0507 4.33593 16.3674 4.33593 15.5273C4.33593 14.6873 5.01931 14.0039 5.85936 14.0039ZM5.85936 18.2226H10.214C10.1252 18.7566 10.0782 19.3045 10.0782 19.8633C10.0782 20.3406 10.1127 20.8099 10.1779 21.2695H5.85936C5.01931 21.2695 4.33593 20.5861 4.33593 19.7461C4.33593 18.906 5.01931 18.2226 5.85936 18.2226ZM5.85936 25.4882C5.01931 25.4882 4.33593 24.8049 4.33593 23.9648C4.33593 23.1247 5.01931 22.4414 5.85936 22.4414H10.4171C10.7128 23.5437 11.1931 24.571 11.823 25.4882H5.85936ZM20.0391 28.6523C15.1928 28.6523 11.25 24.7096 11.25 19.8633C11.25 15.017 15.1928 11.0743 20.0391 11.0743C24.8854 11.0743 28.8281 15.017 28.8281 19.8633C28.8281 24.7096 24.8854 28.6523 20.0391 28.6523Z" fill="#FFC700" fill-opacity="0.7"/>
</svg>
