<svg width="50" height="50" viewBox="0 0 50 50" fill="none" xmlns="http://www.w3.org/2000/svg">
<path d="M33.3938 32.0662C32.2091 32.0662 31.2454 31.232 31.2454 30.2067C31.2454 29.1813 32.2091 28.3471 33.3938 28.3471C34.5785 28.3471 35.5422 29.1813 35.5422 30.2067C35.5422 30.7459 35.9795 31.1833 36.5188 31.1833C37.058 31.1833 37.4953 30.7459 37.4953 30.2067C37.4953 28.4171 36.162 26.9125 34.3704 26.5041V25.9962C34.3704 25.4569 33.933 25.0196 33.3938 25.0196C32.8545 25.0196 32.4172 25.4569 32.4172 25.9962V26.5041C30.6256 26.9125 29.2922 28.4171 29.2922 30.2067C29.2922 32.3089 31.1322 34.0193 33.3938 34.0193C34.5785 34.0193 35.5422 34.8535 35.5422 35.8788C35.5422 36.9042 34.5785 37.7384 33.3938 37.7384C32.2091 37.7384 31.2454 36.9042 31.2454 35.8788C31.2454 35.3396 30.8081 34.9023 30.2688 34.9023C29.7295 34.9023 29.2922 35.3396 29.2922 35.8788C29.2922 37.6684 30.6256 39.1731 32.4172 39.5815V40.0034C32.4172 40.5426 32.8545 40.9799 33.3938 40.9799C33.933 40.9799 34.3704 40.5426 34.3704 40.0034V39.5815C36.162 39.1731 37.4953 37.6684 37.4953 35.8788C37.4953 33.7765 35.6554 32.0662 33.3938 32.0662Z" fill="#4A699C"/>
<path d="M44.0901 26.2574C42.8144 24.2696 41.0172 22.6789 38.8927 21.6576C38.4064 21.4239 37.8229 21.6285 37.5893 22.1147C37.3556 22.6008 37.5602 23.1842 38.0464 23.4179C41.7486 25.1976 44.1407 29.0002 44.1407 33.1055C44.1407 34.8621 43.7077 36.6042 42.8886 38.1437C42.6353 38.6197 42.8159 39.2112 43.2921 39.4645C43.4382 39.5422 43.5952 39.5791 43.7499 39.5791C44.0993 39.5791 44.4373 39.391 44.6129 39.0611C45.5817 37.2404 46.0938 35.1809 46.0938 33.1055C46.0938 30.668 45.401 28.2999 44.0901 26.2574Z" fill="#4A699C"/>
<path d="M34.929 20.4103L34.8633 20.4102C34.324 20.4102 33.8867 20.8475 33.8867 21.3868C33.8867 21.9262 34.324 22.3634 34.8633 22.3634L34.9198 22.3635C34.9214 22.3635 34.9229 22.3635 34.9245 22.3635C35.4617 22.3635 35.8985 21.9293 35.901 21.3915C35.9034 20.8521 35.4683 20.4129 34.929 20.4103Z" fill="#4A699C"/>
<path d="M28.7507 42.7931C25.0486 41.0134 22.6565 37.2107 22.6565 33.1056C22.6565 31.3489 23.0895 29.6068 23.9085 28.0674C24.1619 27.5913 23.9813 26.9999 23.5051 26.7466C23.0291 26.4933 22.4375 26.6738 22.1843 27.15C21.2155 28.9708 20.7034 31.0302 20.7034 33.1056C20.7034 35.5431 21.3962 37.911 22.7071 39.9537C23.9828 41.9415 25.78 43.5321 27.9045 44.5535C28.0409 44.6191 28.1851 44.6501 28.327 44.6501C28.6906 44.6501 29.0397 44.4461 29.2078 44.0965C29.4413 43.6103 29.2368 43.0268 28.7507 42.7931Z" fill="#4A699C"/>
<path d="M31.9337 43.8477L31.8772 43.8475C31.3354 43.8465 30.8987 44.28 30.8963 44.8194C30.8937 45.3588 31.3291 45.7981 31.8683 45.8006L31.9337 45.8008C32.473 45.8008 32.9103 45.3635 32.9103 44.8242C32.9103 44.285 32.473 43.8477 31.9337 43.8477Z" fill="#4A699C"/>
<path d="M37.8328 17.1062C37.714 16.823 37.5684 16.5561 37.399 16.3086H39.9413C42.4183 16.3086 44.4335 14.2933 44.4335 11.8164C44.4335 9.33944 42.4183 7.32421 39.9413 7.32421H32.121C32.6182 6.60136 32.9101 5.72685 32.9101 4.78515C32.9101 2.3082 30.8949 0.292969 28.4179 0.292969H4.49218C2.01523 0.292969 0 2.3082 0 4.78515C0 7.2621 2.01523 9.27733 4.49218 9.27733H12.3125C11.8153 10.0002 11.5234 10.8747 11.5234 11.8164C11.5234 12.7581 11.8152 13.6326 12.3125 14.3554H9.76561C7.28866 14.3554 5.27343 16.3707 5.27343 18.8476C5.27343 20.2702 5.93886 21.5396 6.97411 22.3632C5.93886 23.1869 5.27343 24.4563 5.27343 25.8789C5.27343 27.3014 5.93886 28.5708 6.97411 29.3945C5.93886 30.2181 5.27343 31.4875 5.27343 32.9101C5.27343 34.3326 5.93886 35.6021 6.97411 36.4257C5.93886 37.2493 5.27343 38.5188 5.27343 39.9413C5.27343 42.4183 7.28866 44.4335 9.76561 44.4335H21.2744C24.3062 47.6764 28.6193 49.707 33.3985 49.707C42.5526 49.707 50 42.2596 50 33.1055C50 25.4867 44.8408 19.051 37.8328 17.1062ZM39.9413 9.27733C41.3414 9.27733 42.4804 10.4164 42.4804 11.8164C42.4804 13.2164 41.3414 14.3554 39.9413 14.3554H33.6913H16.0156C14.6155 14.3554 13.4765 13.2164 13.4765 11.8164C13.4765 10.4164 14.6155 9.27733 16.0156 9.27733H39.9413ZM4.49218 7.32421C3.09208 7.32421 1.95312 6.18514 1.95312 4.78515C1.95312 3.38515 3.09208 2.24609 4.49218 2.24609H28.4179C29.818 2.24609 30.957 3.38515 30.957 4.78515C30.957 6.18514 29.818 7.32421 28.4179 7.32421H4.49218ZM9.76561 16.3086H33.6913C34.0847 16.3086 34.4614 16.4 34.7993 16.5636C34.3373 16.5249 33.8703 16.504 33.3985 16.504C28.814 16.504 24.6578 18.372 21.6505 21.3867H9.76561C8.36561 21.3867 7.22655 20.2476 7.22655 18.8476C7.22655 17.4476 8.36561 16.3086 9.76561 16.3086ZM9.76561 23.3398H19.9819C18.8733 24.8586 18.0162 26.5717 17.4718 28.4179H9.76561C8.36551 28.4179 7.22655 27.279 7.22655 25.8789C7.22655 24.4789 8.36551 23.3398 9.76561 23.3398ZM9.76561 30.371H17.0234C16.8753 31.261 16.7969 32.1742 16.7969 33.1055C16.7969 33.901 16.8545 34.6832 16.9632 35.4492H9.76561C8.36551 35.4492 7.22655 34.3102 7.22655 32.9101C7.22655 31.51 8.36551 30.371 9.76561 30.371ZM9.76561 42.4804C8.36551 42.4804 7.22655 41.3414 7.22655 39.9413C7.22655 38.5412 8.36551 37.4023 9.76561 37.4023H17.3619C17.8547 39.2395 18.6551 40.9517 19.7049 42.4804H9.76561ZM33.3985 47.7539C25.3213 47.7539 18.7501 41.1826 18.7501 33.1055C18.7501 25.0284 25.3213 18.4571 33.3985 18.4571C41.4756 18.4571 48.0469 25.0284 48.0469 33.1055C48.0469 41.1826 41.4756 47.7539 33.3985 47.7539Z" fill="#4A699C"/>
</svg>
