<svg width="15" height="15" viewBox="0 0 15 15" fill="none" xmlns="http://www.w3.org/2000/svg">
<g clip-path="url(#clip0)">
<path d="M14.4672 2.06921C14.1449 2.03982 13.8599 2.27728 13.8305 2.59954L13.7529 3.45117C12.4357 1.38264 10.1493 0 7.50001 0C4.64998 0 2.13833 1.62662 0.89151 4.06799C0.744322 4.35618 0.858639 4.70912 1.14683 4.85631C1.43508 5.0035 1.78796 4.88921 1.93515 4.60099C2.99034 2.53485 5.10929 1.17188 7.50001 1.17188C9.67902 1.17188 11.6455 2.30657 12.7721 4.08422L11.9366 3.48753C11.6733 3.29947 11.3073 3.36047 11.1193 3.62379C10.9312 3.88714 10.9922 4.25306 11.2555 4.44114L13.789 6.25055C14.1603 6.51524 14.6724 6.27293 14.713 5.82694L14.9975 2.70595C15.0269 2.38365 14.7895 2.09859 14.4672 2.06921Z" fill="white" fill-opacity="0.4"/>
<path d="M13.8531 10.1437C13.5649 9.99653 13.212 10.1108 13.0648 10.399C12.0096 12.4651 9.89068 13.8281 7.49997 13.8281C5.32095 13.8281 3.35449 12.6934 2.22791 10.9158L3.06337 11.5125C3.32672 11.7005 3.69263 11.6395 3.88072 11.3762C4.06878 11.1129 4.00778 10.7469 3.74446 10.5589L1.21101 8.74945C0.844245 8.48742 0.327976 8.72246 0.28696 9.17305L0.00245823 12.294C-0.0269265 12.6163 0.210525 12.9014 0.532761 12.9308C0.855437 12.9601 1.14011 12.7224 1.16947 12.4004L1.24711 11.5488C2.56424 13.6174 4.85068 15 7.49997 15C10.35 15 12.8616 13.3734 14.1085 10.932C14.2557 10.6438 14.1413 10.2909 13.8531 10.1437Z" fill="white" fill-opacity="0.4"/>
</g>
<defs>
<clipPath id="clip0">
<rect width="15" height="15" fill="white"/>
</clipPath>
</defs>
</svg>
