<svg width="30" height="30" viewBox="0 0 30 30" fill="none" xmlns="http://www.w3.org/2000/svg">
<path d="M7.38281 12.0703H5.27344C4.94982 12.0703 4.6875 12.3326 4.6875 12.6563C4.6875 12.9799 4.94982 13.2422 5.27344 13.2422H6.54943L5.14588 17.1455C5.03637 17.45 5.19451 17.7856 5.49897 17.8951C5.56447 17.9187 5.63139 17.9299 5.69719 17.9299C5.93736 17.9299 6.16266 17.781 6.24861 17.542L7.93412 12.8545C7.99869 12.675 7.9718 12.4753 7.86205 12.3193C7.75242 12.1632 7.5736 12.0703 7.38281 12.0703Z" fill="#787878" fill-opacity="0.8"/>
<path d="M14.1797 12.0703H12.0703C11.7467 12.0703 11.4844 12.3326 11.4844 12.6563C11.4844 12.9799 11.7467 13.2422 12.0703 13.2422H13.3463L11.9428 17.1455C11.8332 17.45 11.9914 17.7856 12.2958 17.8951C12.3613 17.9187 12.4283 17.9299 12.4941 17.9299C12.7342 17.9299 12.9595 17.781 13.0455 17.542L14.731 12.8545C14.7956 12.675 14.7687 12.4753 14.6589 12.3193C14.5493 12.1632 14.3705 12.0703 14.1797 12.0703Z" fill="#787878" fill-opacity="0.8"/>
<path d="M18.8672 13.2422H20.1432L18.7397 17.1455C18.6302 17.45 18.7883 17.7856 19.0928 17.8951C19.1583 17.9187 19.2252 17.9299 19.291 17.9299C19.5312 17.9299 19.7565 17.781 19.8424 17.542L21.5279 12.8545C21.5925 12.675 21.5656 12.4753 21.4559 12.3193C21.3461 12.1632 21.1673 12.0703 20.9766 12.0703H18.8672C18.5436 12.0703 18.2812 12.3326 18.2812 12.6563C18.2812 12.9799 18.5436 13.2422 18.8672 13.2422Z" fill="#787878" fill-opacity="0.8"/>
<path d="M23.3765 9.59998H2.98584C2.66223 9.59998 2.3999 9.8623 2.3999 10.1859V20.0297C2.3999 20.3533 2.66223 20.6156 2.98584 20.6156H23.3765C23.7001 20.6156 23.9624 20.3533 23.9624 20.0297V10.1859C23.9624 9.8623 23.7001 9.59998 23.3765 9.59998ZM3.57178 10.7719H9.19678V19.4437H3.57178V10.7719ZM10.3687 10.7719H15.9937V19.4437H10.3687V10.7719ZM22.7905 19.4437H17.1655V10.7719H22.7905V19.4437Z" fill="#787878" fill-opacity="0.8"/>
<path d="M30 1.99219C30 0.893672 29.1063 0 28.0078 0C26.9093 0 26.0156 0.893672 26.0156 1.99219C26.0156 2.88686 26.6085 3.64553 27.4219 3.89631V13.1726C27.4219 13.8353 26.9027 14.3775 26.25 14.4176V7.73438C26.25 7.41076 25.9877 7.14844 25.6641 7.14844H23.5031C21.8691 2.85533 17.7511 0 13.125 0C8.49891 0 4.38094 2.85533 2.74688 7.14844H0.585938C0.262324 7.14844 0 7.41076 0 7.73438V22.2656C0 22.5892 0.262324 22.8516 0.585938 22.8516H2.34375V29.4141C2.34375 29.7377 2.60607 30 2.92969 30H23.3203C23.6439 30 23.9062 29.7377 23.9062 29.4141V22.8516H25.6641C25.9877 22.8516 26.25 22.5892 26.25 22.2656V15.5914C27.5492 15.5505 28.5938 14.4817 28.5938 13.1727V3.89631C29.4071 3.64553 30 2.88686 30 1.99219ZM22.7344 28.8281H3.51562V22.8516H22.7344V28.8281ZM25.0781 21.6797H1.17188V8.32031H10.4882C10.8118 8.32031 11.0742 8.05799 11.0742 7.73438C11.0742 7.41076 10.8118 7.14844 10.4882 7.14844H4.01174C5.57449 3.54193 9.13875 1.17188 13.125 1.17188C17.1112 1.17188 20.6755 3.54193 22.2383 7.14844H15.7617C15.4381 7.14844 15.1758 7.41076 15.1758 7.73438C15.1758 8.05799 15.4381 8.32031 15.7617 8.32031H25.0781V21.6797ZM28.0078 2.8125C27.5555 2.8125 27.1875 2.44453 27.1875 1.99219C27.1875 1.53984 27.5555 1.17188 28.0078 1.17188C28.4602 1.17188 28.8281 1.53984 28.8281 1.99219C28.8281 2.44453 28.4602 2.8125 28.0078 2.8125Z" fill="#787878" fill-opacity="0.8"/>
<path d="M6.58203 26.4258H19.6679C19.9916 26.4258 20.2539 26.1635 20.2539 25.8398C20.2539 25.5162 19.9916 25.2539 19.6679 25.2539H6.58203C6.25842 25.2539 5.99609 25.5162 5.99609 25.8398C5.99609 26.1635 6.25848 26.4258 6.58203 26.4258Z" fill="#787878" fill-opacity="0.8"/>
<path d="M13.125 8.32031C13.2791 8.32031 13.4303 8.25762 13.5393 8.14863C13.6482 8.03965 13.7109 7.88848 13.7109 7.73438C13.7109 7.58027 13.6482 7.4291 13.5393 7.32012C13.4303 7.21113 13.2791 7.14844 13.125 7.14844C12.9709 7.14844 12.8197 7.21113 12.7107 7.32012C12.6018 7.4291 12.5391 7.58027 12.5391 7.73438C12.5391 7.88848 12.6018 8.03965 12.7107 8.14863C12.8197 8.25762 12.9709 8.32031 13.125 8.32031Z" fill="#787878" fill-opacity="0.8"/>
</svg>
