<svg width="21" height="12" viewBox="0 0 21 12" fill="none" xmlns="http://www.w3.org/2000/svg">
<path fill-rule="evenodd" clip-rule="evenodd" d="M10.4334 11.5788H11.6108C11.6108 11.5788 11.9664 11.5398 12.1479 11.3441C12.3151 11.1644 12.3097 10.8269 12.3097 10.8269C12.3097 10.8269 12.2867 9.2472 13.0199 9.01458C13.7426 8.78542 14.6708 10.5414 15.6545 11.2165C16.3984 11.7275 16.9636 11.6155 16.9636 11.6155L19.5939 11.5788C19.5939 11.5788 20.9699 11.4941 20.3175 10.4122C20.264 10.3237 19.9375 9.61192 18.3618 8.1493C16.7125 6.6185 16.9334 6.8661 18.9201 4.21815C20.13 2.60553 20.6138 1.621 20.4627 1.19933C20.3186 0.797709 19.4287 0.903862 19.4287 0.903862L16.4671 0.922312C16.4671 0.922312 16.2476 0.892364 16.0847 0.989694C15.9256 1.08515 15.8232 1.30762 15.8232 1.30762C15.8232 1.30762 15.3545 2.55552 14.7293 3.61679C13.4106 5.85618 12.8833 5.97436 12.6677 5.83532C12.1664 5.51124 12.2915 4.5334 12.2915 3.83873C12.2915 1.6686 12.6207 0.763751 11.6506 0.529518C11.3287 0.451708 11.0918 0.400369 10.2685 0.39208C9.21174 0.381117 8.31732 0.395289 7.81089 0.643426C7.47398 0.808405 7.21407 1.17606 7.37237 1.19719C7.5681 1.22339 8.01143 1.31671 8.24646 1.63678C8.54995 2.04962 8.53925 2.97693 8.53925 2.97693C8.53925 2.97693 8.71359 5.53157 8.13202 5.84896C7.73281 6.06661 7.18519 5.62221 6.00948 3.59059C5.40706 2.54991 4.95223 1.3996 4.95223 1.3996C4.95223 1.3996 4.86452 1.18462 4.7081 1.06964C4.51826 0.930334 4.25301 0.885948 4.25301 0.885948L1.43873 0.904397C1.43873 0.904397 1.01626 0.916163 0.861174 1.09986C0.723201 1.26323 0.85021 1.60121 0.85021 1.60121C0.85021 1.60121 3.0535 6.75594 5.54824 9.35362C7.83575 11.7353 10.4334 11.5788 10.4334 11.5788Z" fill="white"/>
</svg>
