<svg width="50" height="50" viewBox="0 0 50 50" fill="none" xmlns="http://www.w3.org/2000/svg">
<path d="M42.654 7.32227C37.932 2.60049 31.654 0 24.9762 0C18.6258 0 12.5721 2.38389 7.93042 6.7124C3.31225 11.0189 0.512253 16.847 0.0462373 23.1228C0.0162568 23.5262 0.318991 23.8775 0.722409 23.9074C1.12768 23.9385 1.47719 23.6347 1.50708 23.2313C2.00053 16.5872 5.28061 10.7273 10.1433 6.76611L10.7207 8.48076C10.9176 9.06572 11.4167 9.5002 12.0234 9.61475L14.5277 10.0872C14.1334 10.7688 13.9066 11.5587 13.9066 12.4012C13.9066 13.7151 14.9899 15.8771 17.1263 18.8272C17.4545 19.2806 17.9845 19.5512 18.5441 19.5512C19.1037 19.5512 19.6335 19.2806 19.9619 18.8272C21.0096 17.3805 21.8035 16.1237 22.3411 15.0631L25.7215 18.3066C25.7693 18.3524 25.7967 18.4166 25.7967 18.4827V23.0552C25.7967 23.1059 25.7813 23.1546 25.752 23.196L24.1945 25.4021C23.7937 25.9694 23.775 26.7152 24.1466 27.3021L24.519 27.8901C24.7739 28.2927 25.1889 28.5723 25.6579 28.6573L28.3781 29.1507C28.4779 29.1688 28.5786 29.1776 28.6789 29.1776C29.0982 29.1776 29.5115 29.0228 29.8263 28.7394L33.0531 25.8353C33.4127 25.5117 33.6189 25.0486 33.6189 24.5649V19.2128C33.6189 19.1585 33.6373 19.1051 33.6708 19.0622L36.0995 15.9625C36.146 15.903 36.2161 15.8689 36.2916 15.8689H37.501C37.9056 15.8689 38.2334 15.541 38.2334 15.1365C38.2334 14.732 37.9056 14.4041 37.501 14.4041H36.2916C35.7628 14.4041 35.2724 14.6429 34.9464 15.0591L32.518 18.1586C32.2833 18.4579 32.1541 18.8323 32.1541 19.2127V24.5648C32.1541 24.634 32.1246 24.7001 32.0732 24.7463L28.8463 27.6505C28.7907 27.7007 28.7137 27.7227 28.6395 27.7093L25.9193 27.2159C25.8522 27.2037 25.7929 27.1638 25.7566 27.1063L25.3842 26.5184C25.3311 26.4345 25.3336 26.3279 25.391 26.2469L26.9485 24.0408C27.1533 23.7509 27.2615 23.4101 27.2615 23.0551V18.4826C27.2615 18.0194 27.0698 17.57 26.7356 17.2495L22.954 13.6212C23.1049 13.1562 23.1815 12.7486 23.1815 12.4012C23.1815 9.84404 21.1011 7.76367 18.5441 7.76367C17.4374 7.76367 16.4206 8.15381 15.6225 8.80303L12.2951 8.17529C12.2083 8.15889 12.1371 8.09678 12.1089 8.01328L11.3735 5.8292C15.2346 3.08037 19.9408 1.46484 24.9762 1.46484C33.0526 1.46484 40.1912 5.55459 44.4316 11.7713L42.2867 14.3175C42.2402 14.3726 42.1722 14.4042 42.1001 14.4042H40.8213C40.4167 14.4042 40.0889 14.7321 40.0889 15.1366C40.0889 15.5411 40.4167 15.869 40.8213 15.869H42.1001C42.6054 15.869 43.0819 15.6474 43.4072 15.261L45.2547 13.0679C47.3226 16.5688 48.5115 20.6479 48.5115 24.9999C48.5115 31.1872 46.1103 36.8233 42.1923 41.0286L42.4711 38.1933C42.5065 37.8341 42.4293 37.4791 42.2478 37.1667L39.9057 33.1393C40.0317 32.7237 40.0956 32.3563 40.0956 32.0389C40.0956 29.4817 38.0152 27.4015 35.4582 27.4015C32.9836 27.4015 30.9557 29.3497 30.8274 31.7929L27.5409 32.7653C27.5184 32.772 27.495 32.7754 27.4716 32.7754H24.5168C23.6674 31.8321 22.4375 31.2379 21.0712 31.2379C20.9521 31.2379 20.8344 31.2438 20.7175 31.2527L18.4731 29.3473C18.3804 29.2686 18.3595 29.1362 18.4233 29.0328L18.9864 28.1213C19.3665 27.5058 19.3167 26.7138 18.8624 26.1505L17.1481 24.0247C16.822 23.6204 16.3372 23.3885 15.8178 23.3885H11.6616C11.0653 23.3885 10.504 23.7061 10.1965 24.2175L8.58198 26.9056C8.2188 27.51 8.26782 28.2883 8.70376 28.8424L10.0956 30.6113C10.1346 30.6609 10.1528 30.7229 10.1465 30.7859L9.62846 36.0893C9.59438 36.4377 9.66675 36.7833 9.83735 37.0888L11.5709 40.1927C11.598 40.2413 11.6079 40.2981 11.5985 40.353L10.9859 43.9385C8.70757 42.2517 6.71821 40.1388 5.13442 37.6623C4.91645 37.3215 4.46372 37.2221 4.1228 37.4399C3.78208 37.6578 3.68247 38.1108 3.90044 38.4516C8.52505 45.6828 16.404 50 24.9762 50C31.654 50 37.932 47.3995 42.654 42.6777C47.3758 37.9559 49.9762 31.6777 49.9762 25C49.9762 18.3223 47.3757 12.0442 42.654 7.32227ZM18.5441 9.22861C20.2934 9.22861 21.7166 10.6519 21.7166 12.4013C21.7166 13.3439 20.6171 15.425 18.7754 17.9682C18.7009 18.071 18.5985 18.0863 18.5441 18.0863C18.4897 18.0863 18.3873 18.071 18.3127 17.9682C16.471 15.425 15.3715 13.3439 15.3715 12.4013C15.3714 10.6519 16.7948 9.22861 18.5441 9.22861ZM35.4581 28.8664C37.2074 28.8664 38.6306 30.2896 38.6306 32.039C38.6306 32.9816 37.5311 35.0627 35.6894 37.606C35.6149 37.7088 35.5124 37.7241 35.4582 37.7241C35.4037 37.7241 35.3012 37.7088 35.2267 37.606C33.385 35.0628 32.2855 32.9816 32.2855 32.039C32.2855 30.2896 33.7087 28.8664 35.4581 28.8664ZM24.2437 35.8754C24.2437 36.8181 23.1442 38.8992 21.3025 41.4424C21.228 41.5452 21.1255 41.5606 21.0711 41.5606C21.0167 41.5606 20.9143 41.5452 20.8398 41.4424C18.9981 38.8992 17.8986 36.8181 17.8986 35.8754C17.8986 34.126 19.3218 32.7028 21.0711 32.7028C22.8205 32.7028 24.2437 34.126 24.2437 35.8754ZM12.3156 44.8537L13.0424 40.5998C13.108 40.2165 13.0397 39.8184 12.8499 39.4786L11.1162 36.3744C11.0918 36.3309 11.0816 36.2815 11.0865 36.2317L11.6045 30.9285C11.6476 30.4877 11.5206 30.0534 11.2467 29.7056L9.85503 27.9368C9.79272 27.8576 9.78569 27.7465 9.83764 27.6602L11.4522 24.9722C11.496 24.899 11.5763 24.8536 11.6616 24.8536H15.8178C15.892 24.8536 15.9613 24.8867 16.0079 24.9445L17.7221 27.0702C17.7871 27.1508 17.7942 27.2639 17.74 27.3519L17.1769 28.2634C16.7298 28.9876 16.8761 29.9131 17.5249 30.4641L19.0085 31.7237C17.4839 32.4843 16.4337 34.0592 16.4337 35.8756C16.4337 37.1896 17.517 39.3517 19.6535 42.3018C19.9817 42.7551 20.5117 43.0257 21.0712 43.0257C21.6308 43.0257 22.1607 42.7551 22.489 42.3018C24.6254 39.3517 25.7087 37.1896 25.7087 35.8756C25.7087 35.3002 25.6026 34.7493 25.4102 34.2404H27.4717C27.6359 34.2404 27.7991 34.2168 27.9566 34.1702L31.0473 33.2558C31.4666 34.5494 32.4678 36.2936 34.0406 38.4654C34.3689 38.9187 34.899 39.1893 35.4584 39.1893C36.0179 39.1893 36.5478 38.9187 36.8761 38.4653C37.8832 37.0748 38.6559 35.8595 39.1917 34.8254L40.9817 37.9032C41.0077 37.9479 41.0187 37.9986 41.0136 38.05L40.5646 42.6166C36.4097 46.2968 30.9499 48.5352 24.9762 48.5352C20.3994 48.5352 16.0328 47.2273 12.3156 44.8537Z" fill="#4A699C"/>
<path d="M1.48693 26.4528C1.46232 26.0491 1.11456 25.7418 0.711342 25.7663C0.307533 25.7909 0.000208758 26.1382 0.0248181 26.542C0.213881 29.6419 0.965052 32.637 2.25773 35.4442C2.38126 35.7125 2.6463 35.8705 2.92345 35.8705C3.02599 35.8705 3.13009 35.8488 3.22931 35.8032C3.59679 35.6341 3.75743 35.199 3.58829 34.8316C2.37179 32.1898 1.66476 29.3708 1.48693 26.4528Z" fill="#4A699C"/>
<path d="M17.4917 13.065H17.8119V13.3852C17.8119 13.7897 18.1397 14.1176 18.5443 14.1176C18.9489 14.1176 19.2768 13.7897 19.2768 13.3852V13.065H19.597C20.0016 13.065 20.3294 12.737 20.3294 12.3325C20.3294 11.9281 20.0016 11.6001 19.597 11.6001H19.2768V11.2799C19.2768 10.8754 18.9489 10.5475 18.5443 10.5475C18.1397 10.5475 17.8119 10.8754 17.8119 11.2799V11.6001H17.4917C17.0871 11.6001 16.7593 11.9281 16.7593 12.3325C16.7593 12.737 17.0872 13.065 17.4917 13.065Z" fill="#4A699C"/>
<path d="M36.1908 33.0229V32.7027H36.511C36.9156 32.7027 37.2435 32.3748 37.2435 31.9703C37.2435 31.5658 36.9156 31.2379 36.511 31.2379H36.1908V30.9177C36.1908 30.5132 35.863 30.1852 35.4584 30.1852C35.0538 30.1852 34.726 30.5132 34.726 30.9177V31.2379H34.4058C34.0012 31.2379 33.6733 31.5658 33.6733 31.9703C33.6733 32.3748 34.0012 32.7027 34.4058 32.7027H34.726V33.0229C34.726 33.4274 35.0538 33.7554 35.4584 33.7554C35.863 33.7554 36.1908 33.4274 36.1908 33.0229Z" fill="#4A699C"/>
<path d="M20.0186 36.5391H20.3388V36.8593C20.3388 37.2638 20.6666 37.5917 21.0712 37.5917C21.4758 37.5917 21.8036 37.2638 21.8036 36.8593V36.5391H22.1238C22.5284 36.5391 22.8562 36.2111 22.8562 35.8066C22.8562 35.4021 22.5284 35.0742 22.1238 35.0742H21.8036V34.754C21.8036 34.3495 21.4758 34.0216 21.0712 34.0216C20.6666 34.0216 20.3388 34.3495 20.3388 34.754V35.0742H20.0186C19.614 35.0742 19.2861 35.4021 19.2861 35.8066C19.2861 36.2111 19.6141 36.5391 20.0186 36.5391Z" fill="#4A699C"/>
<path d="M29.8545 9.96124C29.4499 9.96124 29.1221 10.2892 29.1221 10.6937C29.1221 11.0982 29.4499 11.4261 29.8545 11.4261H29.9526C30.3572 11.4261 30.6851 11.0982 30.6851 10.6937C30.6851 10.2892 30.3572 9.96124 29.9526 9.96124H29.8545Z" fill="#4A699C"/>
<path d="M32.2673 8.1543C31.8627 8.1543 31.5349 8.48223 31.5349 8.88672C31.5349 9.29121 31.8627 9.61914 32.2673 9.61914H32.3655C32.7701 9.61914 33.0979 9.29121 33.0979 8.88672C33.0979 8.48223 32.7701 8.1543 32.3655 8.1543H32.2673Z" fill="#4A699C"/>
<path d="M26.7665 39.6679H26.6685C26.2639 39.6679 25.936 39.9958 25.936 40.4003C25.936 40.8048 26.2639 41.1327 26.6685 41.1327H26.7665C27.1711 41.1327 27.4989 40.8048 27.4989 40.4003C27.4989 39.9958 27.1711 39.6679 26.7665 39.6679Z" fill="#4A699C"/>
<path d="M13.0946 26.8392H12.9966C12.592 26.8392 12.2642 27.1671 12.2642 27.5716C12.2642 27.9761 12.592 28.304 12.9966 28.304H13.0946C13.4992 28.304 13.8271 27.9761 13.8271 27.5716C13.8271 27.1671 13.4992 26.8392 13.0946 26.8392Z" fill="#4A699C"/>
</svg>
