<svg width="50" height="50" viewBox="0 0 50 50" fill="none" xmlns="http://www.w3.org/2000/svg">
<g clip-path="url(#clip0)">
<path d="M12.3047 25.1172H8.78906C8.24971 25.1172 7.8125 25.5544 7.8125 26.0938C7.8125 26.6331 8.24971 27.0703 8.78906 27.0703H10.9157L8.57647 33.5758C8.39395 34.0833 8.65752 34.6427 9.16494 34.8252C9.27412 34.8645 9.38565 34.8831 9.49531 34.8831C9.89561 34.8831 10.2711 34.6351 10.4144 34.2367L13.2235 26.4242C13.3312 26.125 13.2863 25.7922 13.1034 25.5321C12.9207 25.272 12.6227 25.1172 12.3047 25.1172Z" fill="#4A699C"/>
<path d="M23.6328 25.1172H20.1172C19.5778 25.1172 19.1406 25.5544 19.1406 26.0938C19.1406 26.6331 19.5778 27.0703 20.1172 27.0703H22.2438L19.9046 33.5758C19.7221 34.0833 19.9856 34.6427 20.4931 34.8252C20.6022 34.8645 20.7138 34.8831 20.8234 34.8831C21.2237 34.8831 21.5992 34.6351 21.7425 34.2367L24.5517 26.4242C24.6593 26.125 24.6145 25.7922 24.4315 25.5321C24.2488 25.272 23.9508 25.1172 23.6328 25.1172Z" fill="#4A699C"/>
<path d="M31.4452 27.0703H33.5718L31.2326 33.5758C31.05 34.0833 31.3136 34.6427 31.821 34.8252C31.9302 34.8645 32.0417 34.8831 32.1514 34.8831C32.5517 34.8831 32.9272 34.6351 33.0705 34.2367L35.8796 26.4242C35.9872 26.125 35.9424 25.7922 35.7595 25.5321C35.5766 25.2721 35.2787 25.1172 34.9607 25.1172H31.4451C30.9057 25.1172 30.4685 25.5544 30.4685 26.0938C30.4685 26.6331 30.9058 27.0703 31.4452 27.0703Z" fill="#4A699C"/>
<path d="M38.9609 21H4.97656C4.43721 21 4 21.4372 4 21.9766V38.3828C4 38.9222 4.43721 39.3594 4.97656 39.3594H38.9609C39.5003 39.3594 39.9375 38.9222 39.9375 38.3828V21.9766C39.9375 21.4372 39.5003 21 38.9609 21ZM5.95313 22.9531H15.3281V37.4063H5.95313V22.9531ZM17.2813 22.9531H26.6563V37.4063H17.2813V22.9531ZM37.9844 37.4063H28.6094V22.9531H37.9844V37.4063Z" fill="#4A699C"/>
<path d="M50 8.32031C50 6.48945 48.5105 5 46.6797 5C44.8488 5 43.3594 6.48945 43.3594 8.32031C43.3594 9.81143 44.3475 11.0759 45.7031 11.4938V26.9544C45.7031 28.0588 44.8379 28.9625 43.75 29.0293V17.8906C43.75 17.3513 43.3128 16.9141 42.7734 16.9141H39.1719C36.4484 9.75889 29.5852 5 21.875 5C14.1648 5 7.30156 9.75889 4.57812 16.9141H0.976562C0.437207 16.9141 0 17.3513 0 17.8906V42.1094C0 42.6487 0.437207 43.0859 0.976562 43.0859H3.90625V54.0234C3.90625 54.5628 4.34346 55 4.88281 55H38.8672C39.4065 55 39.8438 54.5628 39.8438 54.0234V43.0859H42.7734C43.3128 43.0859 43.75 42.6487 43.75 42.1094V30.9857C45.9153 30.9176 47.6562 29.1361 47.6562 26.9545V11.4938C49.0119 11.0759 50 9.81143 50 8.32031ZM37.8906 53.0469H5.85938V43.0859H37.8906V53.0469ZM41.7969 41.1328H1.95312V18.8672H17.4804C18.0197 18.8672 18.4569 18.43 18.4569 17.8906C18.4569 17.3513 18.0197 16.9141 17.4804 16.9141H6.68623C9.29082 10.9032 15.2312 6.95312 21.875 6.95312C28.5187 6.95312 34.4592 10.9032 37.0638 16.9141H26.2695C25.7302 16.9141 25.293 17.3513 25.293 17.8906C25.293 18.43 25.7302 18.8672 26.2695 18.8672H41.7969V41.1328ZM46.6797 9.6875C45.9258 9.6875 45.3125 9.07422 45.3125 8.32031C45.3125 7.56641 45.9258 6.95312 46.6797 6.95312C47.4336 6.95312 48.0469 7.56641 48.0469 8.32031C48.0469 9.07422 47.4336 9.6875 46.6797 9.6875Z" fill="#4A699C"/>
<path d="M10.9702 49.043H32.7801C33.3194 49.043 33.7566 48.6058 33.7566 48.0664C33.7566 47.5271 33.3194 47.0898 32.7801 47.0898H10.9702C10.4309 47.0898 9.99365 47.5271 9.99365 48.0664C9.99365 48.6058 10.431 49.043 10.9702 49.043Z" fill="#4A699C"/>
<path d="M21.875 18.8672C22.1318 18.8672 22.3838 18.7627 22.5654 18.5811C22.7471 18.3994 22.8516 18.1475 22.8516 17.8906C22.8516 17.6338 22.7471 17.3818 22.5654 17.2002C22.3838 17.0186 22.1318 16.9141 21.875 16.9141C21.6182 16.9141 21.3662 17.0186 21.1846 17.2002C21.0029 17.3818 20.8984 17.6338 20.8984 17.8906C20.8984 18.1475 21.0029 18.3994 21.1846 18.5811C21.3662 18.7627 21.6182 18.8672 21.875 18.8672Z" fill="#4A699C"/>
</g>
<defs>
<clipPath id="clip0">
<rect width="50" height="50" fill="white"/>
</clipPath>
</defs>
</svg>
