<svg width="250" height="150" viewBox="0 0 250 150" fill="none" xmlns="http://www.w3.org/2000/svg">
<rect width="250" height="150" rx="10" fill="#141B2E"/>
<rect x="16.5" y="114.17" width="217.271" height="13.1002" rx="6.5501" fill="#222243" stroke="#4A699C" stroke-width="5"/>
<rect x="26.6702" y="119.272" width="98.1031" height="3.25804" fill="#039800"/>
<rect x="125.135" y="119.272" width="98.4651" height="3.25804" fill="#C91D1D"/>
<circle cx="125.135" cy="120.72" r="5.43006" fill="#4A699C"/>
<g clip-path="url(#clip0)">
<path d="M130.854 7.44773C127.634 5.66765 122.365 5.66765 119.145 7.44773L85.6984 25.9372C82.4783 27.7173 79.8438 32.1841 79.8438 35.8634V76.2493C79.8438 79.9286 82.4785 84.3954 85.6984 86.1755L119.145 104.665C122.365 106.445 127.634 106.445 130.854 104.665L164.3 86.1755C167.521 84.3954 170.155 79.9286 170.155 76.2493V35.8634C170.155 32.1841 167.52 27.7173 164.3 25.9372L130.854 7.44773Z" fill="#E3E8F4" fill-opacity="0.4"/>
<path d="M125.001 105.999V60.0273C125.001 56.3755 123.017 53.0121 119.821 51.2455L85.8798 32.4824C83.2587 31.0334 79.8673 32.8123 79.8454 35.8072C79.8452 35.8257 79.8452 35.8447 79.8452 35.8632V76.2494C79.8452 79.9287 82.4798 84.3953 85.6997 86.1754L119.146 104.665C120.757 105.555 122.879 106 125.003 106L125.001 105.999Z" fill="#C7CFE2" fill-opacity="0.4"/>
<path d="M125 105.999V60.0276C125 56.3758 126.984 53.0124 130.18 51.2458L164.121 32.4829C166.742 31.0338 170.133 32.8128 170.155 35.8077C170.155 35.8262 170.155 35.8452 170.155 35.8637V76.2499C170.155 79.9291 167.521 84.3957 164.301 86.1758L130.855 104.665C129.244 105.555 127.122 106 124.998 106L125 105.999Z" fill="#D7DEED" fill-opacity="0.4"/>
<path d="M131.07 50.7567L164.399 32.3317C166.894 30.9528 166.894 27.3667 164.399 25.9878L131.07 7.56296C127.293 5.47527 122.709 5.47527 118.933 7.56296L85.603 25.988C83.1083 27.3669 83.1083 30.953 85.603 32.3319L118.932 50.7569C122.709 52.8444 127.293 52.8444 131.07 50.7567Z" fill="#EFF2FA" fill-opacity="0.4"/>
<path d="M107.405 71.5231C107.405 75.4014 105.047 77.1841 102.138 75.5048C99.2296 73.8255 96.8718 69.3202 96.8718 65.4419C96.8718 61.5636 99.2298 59.7809 102.138 61.4602C105.047 63.1395 107.405 67.645 107.405 71.5231Z" fill="#5B5D6E" fill-opacity="0.4"/>
<path d="M102.138 61.4601C100.035 60.2454 98.2333 60.8616 97.3894 62.7513C98.0804 62.7062 98.8457 62.8774 99.6642 63.3503C102.573 65.0296 104.931 69.5349 104.931 73.4134C104.931 74.487 104.736 75.3804 104.413 76.1036C106.177 75.9882 107.405 74.3101 107.405 71.5234C107.405 67.6448 105.047 63.1396 102.138 61.4601Z" fill="#515262" fill-opacity="0.4"/>
<path d="M131.689 90.3942C131.689 94.2725 134.047 96.0551 136.956 94.3759C139.865 92.6966 142.223 88.1913 142.223 84.313C142.223 80.4346 139.865 78.652 136.956 80.3313C134.047 82.0104 131.689 86.5157 131.689 90.3942Z" fill="#707487" fill-opacity="0.4"/>
<path d="M136.957 80.3311C136.573 80.5528 136.201 80.8291 135.84 81.1412C137.631 81.2287 138.879 82.9162 138.879 85.7284C138.879 89.095 137.1 92.9282 134.728 94.9813C135.407 95.0145 136.157 94.8375 136.957 94.3756C139.865 92.6963 142.223 88.191 142.223 84.3127C142.224 80.4344 139.866 78.6518 136.957 80.3311Z" fill="#5B5D6E" fill-opacity="0.4"/>
<path d="M153.431 53.344C153.431 57.2223 155.789 59.0049 158.698 57.3256C161.607 55.6463 163.964 51.1411 163.964 47.2626C163.964 43.3841 161.606 41.6016 158.698 43.2809C155.789 44.9602 153.431 49.4659 153.431 53.344Z" fill="#707487" fill-opacity="0.4"/>
<path d="M158.698 43.2812C158.314 43.5029 157.942 43.7792 157.582 44.0913C159.372 44.1788 160.62 45.8663 160.62 48.6784C160.62 52.045 158.841 55.8783 156.47 57.9314C157.149 57.9646 157.898 57.7876 158.698 57.3257C161.607 55.6464 163.965 51.1411 163.965 47.2628C163.965 43.3843 161.607 41.6019 158.698 43.2812Z" fill="#5B5D6E" fill-opacity="0.4"/>
<path d="M142.897 71.7406C142.897 75.6189 145.255 77.4015 148.164 75.7222C151.073 74.0429 153.43 69.5377 153.43 65.6592C153.43 61.7808 151.072 59.9982 148.164 61.6775C145.255 63.357 142.897 67.8625 142.897 71.7406Z" fill="#707487" fill-opacity="0.4"/>
<path d="M148.165 61.6775C147.781 61.8992 147.409 62.1756 147.048 62.4877C148.839 62.5752 150.086 64.2627 150.086 67.0748C150.086 70.4414 148.308 74.2746 145.936 76.3277C146.615 76.3609 147.365 76.184 148.164 75.7221C151.073 74.0428 153.431 69.5375 153.431 65.659C153.431 61.7807 151.073 59.9983 148.165 61.6775Z" fill="#5B5D6E" fill-opacity="0.4"/>
<path d="M124.999 32.8714C129.618 32.8714 133.361 30.9995 133.361 28.6903C133.361 26.3812 129.618 24.5093 124.999 24.5093C120.381 24.5093 116.637 26.3812 116.637 28.6903C116.637 30.9995 120.381 32.8714 124.999 32.8714Z" fill="#707487" fill-opacity="0.4"/>
<path d="M125 24.509C121.046 24.509 117.752 25.8854 116.881 27.7296C118.415 26.7924 120.717 26.1815 123.328 26.1815C127.946 26.1815 131.69 28.0534 131.69 30.3626C131.69 30.6946 131.593 31.0134 131.447 31.3231C132.626 30.6026 133.362 29.694 133.362 28.6901C133.362 26.3809 129.619 24.509 125 24.509Z" fill="#65687A" fill-opacity="0.4"/>
<path d="M124.999 21.1647C129.618 21.1647 133.361 19.2928 133.361 16.9837C133.361 14.6745 129.618 12.8026 124.999 12.8026C120.381 12.8026 116.637 14.6745 116.637 16.9837C116.637 19.2928 120.381 21.1647 124.999 21.1647Z" fill="#707487" fill-opacity="0.4"/>
<path d="M125 12.8021C121.046 12.8021 117.752 14.1785 116.881 16.0226C118.415 15.0855 120.717 14.4746 123.328 14.4746C127.946 14.4746 131.69 16.3465 131.69 18.6556C131.69 18.9877 131.593 19.3064 131.447 19.6162C132.626 18.8955 133.362 17.9871 133.362 16.9832C133.362 14.674 129.619 12.8021 125 12.8021Z" fill="#65687A" fill-opacity="0.4"/>
<path d="M124.999 44.5784C129.618 44.5784 133.361 42.7065 133.361 40.3974C133.361 38.0882 129.618 36.2163 124.999 36.2163C120.381 36.2163 116.637 38.0882 116.637 40.3974C116.637 42.7065 120.381 44.5784 124.999 44.5784Z" fill="#707487" fill-opacity="0.4"/>
<path d="M125 36.2158C121.046 36.2158 117.752 37.5922 116.881 39.4363C118.415 38.4992 120.717 37.8883 123.328 37.8883C127.946 37.8883 131.69 39.7602 131.69 42.0693C131.69 42.4014 131.593 42.7201 131.447 43.0299C132.626 42.3092 133.362 41.4008 133.362 40.3969C133.362 38.0877 129.619 36.2158 125 36.2158Z" fill="#65687A" fill-opacity="0.4"/>
<path d="M146.741 32.8714C151.359 32.8714 155.103 30.9995 155.103 28.6903C155.103 26.3812 151.359 24.5093 146.741 24.5093C142.123 24.5093 138.379 26.3812 138.379 28.6903C138.379 30.9995 142.123 32.8714 146.741 32.8714Z" fill="#707487" fill-opacity="0.4"/>
<path d="M146.741 24.509C142.786 24.509 139.492 25.8854 138.622 27.7296C140.155 26.7924 142.457 26.1815 145.068 26.1815C149.686 26.1815 153.43 28.0534 153.43 30.3626C153.43 30.6946 153.333 31.0134 153.187 31.3231C154.366 30.6026 155.103 29.694 155.103 28.6901C155.103 26.3809 151.359 24.509 146.741 24.509Z" fill="#65687A" fill-opacity="0.4"/>
<path d="M103.258 32.8714C107.876 32.8714 111.62 30.9995 111.62 28.6903C111.62 26.3812 107.876 24.5093 103.258 24.5093C98.6396 24.5093 94.8958 26.3812 94.8958 28.6903C94.8958 30.9995 98.6396 32.8714 103.258 32.8714Z" fill="#707487" fill-opacity="0.4"/>
<path d="M103.259 24.509C99.3045 24.509 96.0108 25.8854 95.1399 27.7296C96.6733 26.7924 98.9756 26.1815 101.586 26.1815C106.205 26.1815 109.948 28.0534 109.948 30.3626C109.948 30.6946 109.852 31.0134 109.705 31.3231C110.884 30.6026 111.621 29.694 111.621 28.6901C111.621 26.3809 107.877 24.509 103.259 24.509Z" fill="#65687A" fill-opacity="0.4"/>
</g>
<defs>
<clipPath id="clip0">
<rect width="100" height="100" fill="white" transform="translate(75 6)"/>
</clipPath>
</defs>
</svg>
