<svg width="236" height="150" viewBox="0 0 236 150" fill="none" xmlns="http://www.w3.org/2000/svg">
<rect width="236" height="150" rx="10" fill="#141B2E"/>
<path d="M32 124C50.4827 116.527 87.358 98.0659 86.9974 84" stroke="white" stroke-width="2"/>
<path d="M144 122C164.142 113.55 210.391 95.9053 209.998 80" stroke="white" stroke-width="2"/>
<circle cx="87.5" cy="81.5" r="2.5" fill="white"/>
<circle cx="209.5" cy="78.5" r="2.5" fill="white"/>
<path d="M2 130.098L12.9296 122.435L13.9232 131.63L27.3369 122.435L41.2473 131.63L74.0362 122.435L96.8891 131.63L121.729 108.13L153.525 131.63C164.951 125.33 188.102 112.626 189.294 112.217C190.487 111.809 208.338 117.156 217.115 119.88L235 102V143.891L226.058 149H221.586H139.614H66.5842H6.96802L2 143.891V130.098Z" fill="white" fill-opacity="0.5" stroke="white" stroke-opacity="0.4" stroke-width="2"/>
<path d="M96.8 88.55C97.4733 88.55 98.04 88.7533 98.5 89.16C98.96 89.56 99.19 90.12 99.19 90.84C99.19 91.56 98.9467 92.1233 98.46 92.53C97.98 92.9367 97.39 93.14 96.69 93.14C96.1233 93.14 95.6233 93.0133 95.19 92.76C94.7567 92.5067 94.4433 92.1333 94.25 91.64L95.43 90.95C95.6033 91.51 96.0233 91.79 96.69 91.79C97.0433 91.79 97.3167 91.7067 97.51 91.54C97.71 91.3667 97.81 91.1333 97.81 90.84C97.81 90.5533 97.7133 90.3233 97.52 90.15C97.3267 89.9767 97.0633 89.89 96.73 89.89H94.61L94.89 86H98.86V87.29H96.17L96.08 88.55H96.8ZM104.679 93H103.189L102.109 91.48L101.019 93H99.5285L101.359 90.45L99.6085 88H101.099L102.109 89.41L103.119 88H104.599L102.849 90.44L104.679 93Z" fill="white"/>
<path d="M214.95 84H216.15V91H214.77V85.46L213.45 85.83L213.11 84.65L214.95 84ZM217.137 91V89.97L219.527 87.51C220.061 86.95 220.327 86.4833 220.327 86.11C220.327 85.8367 220.241 85.6167 220.067 85.45C219.901 85.2833 219.684 85.2 219.417 85.2C218.891 85.2 218.501 85.4733 218.247 86.02L217.087 85.34C217.307 84.86 217.624 84.4933 218.037 84.24C218.451 83.9867 218.904 83.86 219.397 83.86C220.031 83.86 220.574 84.06 221.027 84.46C221.481 84.8533 221.707 85.3867 221.707 86.06C221.707 86.7867 221.324 87.5333 220.557 88.3L219.187 89.67H221.817V91H217.137ZM227.38 91H225.89L224.81 89.48L223.72 91H222.23L224.06 88.45L222.31 86H223.8L224.81 87.41L225.82 86H227.3L225.55 88.44L227.38 91Z" fill="white"/>
<g clip-path="url(#clip0)">
<path d="M193.47 79.1481C206.807 75.5745 214.722 61.8661 211.148 48.5295C207.575 35.1928 193.866 27.2782 180.529 30.8518C167.193 34.4253 159.278 48.1338 162.852 61.4704C166.425 74.8071 180.134 82.7216 193.47 79.1481Z" fill="#FFDC64"/>
<path d="M192.578 75.8173C204.075 72.7366 210.898 60.919 207.817 49.4219C204.737 37.9248 192.919 31.1018 181.422 34.1825C169.925 37.2631 163.102 49.0808 166.182 60.5779C169.263 72.075 181.081 78.8979 192.578 75.8173Z" fill="#FFC850"/>
<path d="M191.909 73.3193C202.026 70.6083 208.03 60.2088 205.319 50.0914C202.608 39.9739 192.209 33.9697 182.092 36.6807C171.974 39.3917 165.97 49.7912 168.681 59.9086C171.392 70.0261 181.791 76.0303 191.909 73.3193Z" fill="#FFF082"/>
<path d="M190.279 53.9142L187.919 45.1079C189.813 45.2815 191.296 46.0526 191.614 47.2376C191.798 47.9271 192.508 48.3367 193.197 48.1519C193.887 47.9672 194.296 47.2578 194.112 46.5683C193.43 44.0244 190.652 42.4929 187.213 42.4712L186.984 41.6172C186.799 40.9276 186.09 40.5181 185.4 40.7029C184.711 40.8876 184.301 41.597 184.486 42.2865L184.605 42.7308C184.326 42.7873 184.046 42.8506 183.765 42.926C183.483 43.0015 183.209 43.0866 182.939 43.1771L182.82 42.7328C182.636 42.0432 181.926 41.6337 181.237 41.8185C180.547 42.0032 180.138 42.7126 180.322 43.4021L180.551 44.2562C177.584 45.9946 175.943 48.7098 176.625 51.2537C177.529 54.626 180.318 55.7008 183.721 56.0858L186.081 64.8921C184.186 64.7185 182.704 63.9474 182.386 62.7624C182.201 62.0729 181.492 61.6633 180.803 61.8481C180.113 62.0328 179.703 62.7422 179.888 63.4318C180.57 65.9756 183.348 67.5071 186.787 67.5288L187.016 68.3829C187.201 69.0725 187.91 69.482 188.6 69.2972C189.289 69.1125 189.699 68.4031 189.514 67.7136L189.395 67.2693C189.673 67.2128 189.954 67.1495 190.235 67.0741C190.517 66.9986 190.791 66.9135 191.06 66.823L191.179 67.2673C191.364 67.9569 192.074 68.3664 192.763 68.1816C193.453 67.9969 193.862 67.2875 193.677 66.598L193.449 65.7439C196.416 64.0055 198.056 61.2903 197.375 58.7464C196.471 55.374 193.681 54.2991 190.279 53.9142ZM184.434 45.424C184.716 45.3486 184.997 45.2901 185.277 45.2391L187.551 53.7259C187.381 53.7195 187.211 53.7125 187.04 53.7073C186.581 53.6933 186.156 53.6733 185.746 53.6502L183.612 45.6854C183.88 45.5894 184.152 45.4995 184.434 45.424ZM179.123 50.5843C178.806 49.3993 179.704 47.9903 181.258 46.8928L182.991 53.3629C180.585 52.941 179.532 52.1094 179.123 50.5843ZM189.566 64.576C189.284 64.6514 189.003 64.7099 188.723 64.7609L186.449 56.2741C186.619 56.2805 186.789 56.2875 186.96 56.2927C187.419 56.3067 187.844 56.3267 188.254 56.3498L190.388 64.3146C190.12 64.4107 189.847 64.5005 189.566 64.576ZM192.742 63.1072L191.008 56.6371C193.415 57.059 194.468 57.8906 194.877 59.4157C195.194 60.6006 194.296 62.0097 192.742 63.1072Z" fill="#E7B452"/>
</g>
<g clip-path="url(#clip1)">
<path d="M83.0891 74.7667C96.4258 71.1932 104.34 57.4848 100.767 44.1481C97.1932 30.8115 83.4848 22.8969 70.1481 26.4704C56.8115 30.044 48.8969 43.7524 52.4705 57.0891C56.044 70.4257 69.7524 78.3403 83.0891 74.7667Z" fill="#FFDC64"/>
<path d="M82.1966 71.4359C93.6937 68.3553 100.517 56.5377 97.436 45.0405C94.3553 33.5434 82.5377 26.7205 71.0405 29.8011C59.5434 32.8818 52.7205 44.6994 55.8012 56.1966C58.8818 67.6937 70.6994 74.5166 82.1966 71.4359Z" fill="#FFC850"/>
<path d="M81.5274 68.938C91.6449 66.227 97.6491 55.8275 94.9381 45.71C92.2271 35.5926 81.8276 29.5884 71.7102 32.2994C61.5927 35.0103 55.5885 45.4098 58.2995 55.5273C61.0105 65.6448 71.41 71.6489 81.5274 68.938Z" fill="#FFF082"/>
<path d="M79.8975 49.5328L77.5378 40.7266C79.4321 40.9001 80.9147 41.6713 81.2322 42.8562C81.417 43.5458 82.1263 43.9553 82.8159 43.7706C83.5054 43.5858 83.915 42.8764 83.7302 42.1869C83.0486 39.643 80.2706 38.1115 76.8313 38.0899L76.6025 37.2358C76.4177 36.5463 75.7084 36.1367 75.0188 36.3215C74.3293 36.5063 73.9197 37.2156 74.1045 37.9052L74.2235 38.3495C73.945 38.4059 73.6649 38.4692 73.3833 38.5447C73.1017 38.6201 72.8276 38.7053 72.5581 38.7957L72.439 38.3514C72.2543 37.6619 71.5449 37.2523 70.8553 37.4371C70.1658 37.6219 69.7562 38.3312 69.941 39.0208L70.1698 39.8748C67.2022 41.6133 65.5621 44.3284 66.2438 46.8724C67.1473 50.2446 69.937 51.3194 73.3396 51.7045L75.6992 60.5107C73.805 60.3372 72.3224 59.566 72.0049 58.3811C71.8201 57.6915 71.1107 57.282 70.4212 57.4667C69.7316 57.6515 69.3221 58.3609 69.5068 59.0504C70.1885 61.5943 72.9664 63.1258 76.4057 63.1474L76.6346 64.0016C76.8193 64.6911 77.5287 65.1007 78.2183 64.9159C78.9078 64.7311 79.3174 64.0218 79.1326 63.3322L79.0135 62.8879C79.2921 62.8315 79.5722 62.7682 79.8538 62.6927C80.1353 62.6173 80.4094 62.5321 80.679 62.4417L80.7981 62.886C80.9828 63.5755 81.6922 63.9851 82.3817 63.8003C83.0713 63.6155 83.4808 62.9062 83.2961 62.2166L83.0672 61.3626C86.0349 59.6241 87.675 56.909 86.9933 54.365C86.0898 50.9926 83.3001 49.9178 79.8975 49.5328ZM74.0527 41.0427C74.3342 40.9672 74.6154 40.9088 74.8956 40.8578L77.1696 49.3445C76.9993 49.3382 76.8297 49.3312 76.6583 49.3259C76.1993 49.3119 75.7744 49.2919 75.3643 49.2689L73.2302 41.304C73.4983 41.208 73.7711 41.1181 74.0527 41.0427ZM68.7417 46.203C68.4242 45.018 69.3226 43.609 70.8763 42.5114L72.61 48.9815C70.2034 48.5596 69.1504 47.7281 68.7417 46.203ZM79.1844 60.1946C78.9028 60.2701 78.6217 60.3285 78.3414 60.3795L76.0674 51.8928C76.2377 51.8991 76.4074 51.9061 76.5788 51.9114C77.0377 51.9254 77.4626 51.9454 77.8727 51.9685L80.0069 59.9333C79.7387 60.0293 79.466 60.1192 79.1844 60.1946ZM82.3607 58.7258L80.6271 52.2557C83.0337 52.6777 84.0867 53.5093 84.4953 55.0344C84.8128 56.2192 83.9145 57.6284 82.3607 58.7258Z" fill="#E7B452"/>
</g>
<defs>
<clipPath id="clip0">
<rect width="50" height="50" fill="white" transform="translate(156.381 37.3223) rotate(-15)"/>
</clipPath>
<clipPath id="clip1">
<rect width="50" height="50" fill="white" transform="translate(46 32.9409) rotate(-15)"/>
</clipPath>
</defs>
</svg>
