<svg width="236" height="150" viewBox="0 0 236 150" fill="none" xmlns="http://www.w3.org/2000/svg">
<rect width="236" height="150" rx="10" fill="#141B2E"/>
<rect x="13" y="13" width="30" height="30" fill="white" fill-opacity="0.25"/>
<rect x="49" y="13" width="30" height="30" fill="white" fill-opacity="0.25"/>
<rect x="85" y="13" width="30" height="30" fill="white" fill-opacity="0.25"/>
<rect x="121" y="13" width="30" height="30" fill="white" fill-opacity="0.25"/>
<rect x="157" y="13" width="30" height="30" fill="white" fill-opacity="0.25"/>
<rect x="193" y="13" width="30" height="30" fill="white" fill-opacity="0.25"/>
<rect x="193" y="46" width="30" height="30" fill="white" fill-opacity="0.25"/>
<rect x="193" y="84" width="30" height="30" fill="white" fill-opacity="0.25"/>
<rect x="193" y="122" width="30" height="18" fill="white" fill-opacity="0.25"/>
<rect x="157" y="47" width="30" height="30" fill="white" fill-opacity="0.25"/>
<rect x="157" y="85" width="30" height="30" fill="white" fill-opacity="0.25"/>
<rect x="157" y="123" width="30" height="18" fill="white" fill-opacity="0.25"/>
<rect x="121" y="48" width="30" height="30" fill="white" fill-opacity="0.25"/>
<rect x="121" y="86" width="30" height="30" fill="white" fill-opacity="0.25"/>
<rect x="121" y="123" width="30" height="18" fill="white" fill-opacity="0.25"/>
<rect x="85" y="49" width="30" height="30" fill="white" fill-opacity="0.25"/>
<rect x="85" y="87" width="30" height="30" fill="white" fill-opacity="0.25"/>
<rect x="85" y="124" width="30" height="18" fill="white" fill-opacity="0.25"/>
<rect x="49" y="50" width="30" height="30" fill="white" fill-opacity="0.25"/>
<rect x="49" y="88" width="30" height="30" fill="white" fill-opacity="0.25"/>
<rect x="49" y="124" width="30" height="18" fill="white" fill-opacity="0.25"/>
<rect x="13" y="51" width="30" height="30" fill="white" fill-opacity="0.25"/>
<rect x="13" y="89" width="30" height="30" fill="white" fill-opacity="0.25"/>
<rect x="13" y="125" width="30" height="18" fill="white" fill-opacity="0.25"/>
<g clip-path="url(#clip0)">
<path d="M102.259 84.9105C100.965 85.767 99.7289 86.6435 98.4371 87.4254C96.0406 88.8756 93.6273 90.2978 91.1941 91.6813C88.4141 93.261 85.6059 94.7892 82.8079 96.3345C81.0366 97.3121 79.2656 98.2887 77.4848 99.2471C76.4317 99.8154 75.3461 100.325 74.2982 100.901C72.98 101.624 71.686 102.389 70.3795 103.134C70.3102 103.175 70.2283 103.195 70.0497 103.264C70.1709 102.948 70.2076 102.662 70.3631 102.475C73.5366 98.6844 76.7024 94.8864 79.9159 91.1294C82.8432 87.7067 85.8364 84.3404 88.7764 80.9286C89.593 79.9813 89.5197 80.0226 90.667 80.5485C91.9053 81.1151 93.2203 81.5126 94.4941 82.0019C95.2841 82.3047 96.0503 82.6665 96.8428 82.9594C98.6009 83.6092 100.369 84.2319 102.259 84.9105Z" fill="#29D6E2"/>
<path d="M100.334 73.3224C101.077 76.9226 101.552 80.4532 103.168 83.8419C98.6639 82.858 94.6637 81.1755 90.57 79.3278C94.0748 77.6932 97.2835 75.835 100.334 73.3224Z" fill="#65BFBA"/>
<path d="M99.834 72.3556C99.4781 72.6848 99.1862 72.9966 98.8529 73.2543C96.055 75.4208 93.0195 77.1862 89.7831 78.6137C89.2838 78.8329 89.0795 78.5416 88.9146 78.2223C88.2878 77.0126 87.5654 75.831 87.1151 74.5573C86.1891 71.9392 85.4161 69.2684 84.5799 66.6189C84.633 66.571 84.6864 66.5221 84.7385 66.4738C85.2832 66.6826 85.8308 66.884 86.3713 67.1007C88.8089 68.0792 91.239 69.0774 93.6865 70.0333C94.3142 70.2786 94.9918 70.3935 95.6467 70.5679C95.7261 70.5887 95.8129 70.5933 95.8869 70.6252C97.1623 71.1822 98.4355 71.7419 99.834 72.3556Z" fill="#89FFFF"/>
<path d="M88.5798 79.7858C85.474 83.3243 82.4144 86.7705 79.4001 90.2544C76.3758 93.7488 73.3959 97.2805 70.445 100.74C70.5808 98.374 70.5782 95.9446 70.8869 93.5555C71.5757 88.2445 71.9718 82.9135 72.2947 77.5736C72.3812 76.1454 72.3869 74.7126 72.4286 73.3139C74.3217 74.0394 76.2467 74.7627 78.1587 75.5169C78.7511 75.7512 79.3025 76.0893 79.8886 76.3402C81.9774 77.2389 84.0656 78.136 86.1684 78.9981C86.8905 79.294 87.6552 79.4877 88.5798 79.7858ZM76.4345 82.6022C76.3704 82.5226 76.3053 82.4426 76.2402 82.3626C75.3254 83.0976 74.4111 83.8315 73.4967 84.5655C73.5607 84.6451 73.6254 84.7261 73.6894 84.8057C74.7445 84.2418 75.6912 83.5454 76.4345 82.6022ZM72.7858 87.1045C73.4683 86.5665 74.1514 86.03 74.835 85.4924C74.7908 85.436 74.7455 85.3792 74.7013 85.3227C73.9036 85.7148 73.123 86.1278 72.6327 86.9105C72.6832 86.9754 72.7342 87.0392 72.7858 87.1045ZM76.7544 80.1588C76.7186 80.1056 76.6838 80.0527 76.6479 79.9995C75.5569 80.345 73.5916 82.0191 73.6396 82.734C74.7261 81.835 75.7403 80.9969 76.7544 80.1588Z" fill="#89FFFF"/>
<path d="M83.895 66.6633C84.8296 70.752 85.7591 74.682 87.7682 78.3435C83.0597 76.3261 78.3506 74.3073 73.629 72.2836C76.9934 70.4408 80.3856 68.5847 83.895 66.6633Z" fill="#6586E2"/>
<path d="M69.3322 102.288C69.2247 102.303 69.1168 102.32 69.0093 102.335C68.4635 100.767 67.8281 99.2237 67.3958 97.6254C66.8868 95.7428 66.5408 93.8162 66.1618 91.9008C66.1215 91.6998 66.2715 91.3959 66.4291 91.2313C67.0449 90.5863 67.6994 89.9778 68.34 89.3556C68.2773 89.2849 68.2157 89.2146 68.1544 89.1433C67.4473 89.7268 66.7401 90.3104 65.9727 90.945C65.8174 90.2165 65.6515 89.5437 65.5449 88.8601C65.5217 88.7112 65.6742 88.4884 65.8079 88.3673C66.5426 87.7057 67.3002 87.0685 68.0437 86.4151C68.2075 86.272 68.3455 86.1023 68.4958 85.9444C68.4622 85.904 68.428 85.8622 68.3944 85.8218C67.3824 86.5698 66.3705 87.3178 65.3341 88.0828C65.1572 87.5542 64.9761 87.0121 64.7849 86.4397C65.9205 85.5189 67.1448 84.6883 68.0568 83.5297C68.0037 83.4651 67.9503 83.4015 67.8983 83.3373C66.8286 84.1673 65.7595 84.9988 64.6312 85.8757C64.4901 85.313 64.3298 84.8039 64.2499 84.2814C64.2256 84.1201 64.3778 83.8697 64.5237 83.7544C65.2311 83.1889 65.9751 82.6685 66.6846 82.1038C66.9633 81.8827 67.1871 81.5891 67.4353 81.3287C67.3886 81.2725 67.3423 81.2153 67.2956 81.1591C66.1899 81.8987 65.0853 82.6387 63.9844 83.3754C63.8188 82.9517 63.6538 82.5078 63.4708 82.0703C63.3396 81.7567 63.4975 81.6102 63.7263 81.419C64.6401 80.6585 65.5301 79.8697 66.4244 79.085C66.5248 78.9978 66.598 78.8787 66.6837 78.7738C66.6466 78.7333 66.608 78.6934 66.5698 78.6524C65.4616 79.4892 64.3534 80.326 63.1793 81.213C63.0663 80.8082 62.9613 80.4328 62.8437 80.012C64.2879 79.0634 65.9659 78.1421 67.2683 76.7298C67.2344 76.6809 67.2015 76.6324 67.1676 76.5835C65.6593 77.5806 64.1499 78.5772 62.5515 79.6343C62.3665 79.0679 62.184 78.5133 62.0183 78.0057C63.3707 76.9034 64.6801 75.835 65.9907 74.7669C65.934 74.6961 65.8778 74.6243 65.8211 74.5535C64.5424 75.5105 63.2633 76.4685 61.855 77.523C60.9303 74.1861 60.0096 70.8639 59.1133 67.6312C63.2723 69.371 67.4402 71.1155 71.6422 72.8742C71.4867 82.6934 69.9826 92.4554 69.3322 102.288Z" fill="#29ABE2"/>
<path d="M83.3338 66.0105C79.6894 67.9626 76.1996 69.8329 72.6253 71.7485C71.522 68.2438 71.0988 64.8322 70.7241 61.475C74.8073 62.944 78.9846 64.4455 83.3338 66.0105Z" fill="#29D6E2"/>
<path d="M71.5645 71.4747C67.6656 69.9806 63.8043 68.5009 59.9503 67.024C63.312 65.1789 66.6186 63.3653 69.9368 61.543C70.1345 63.2633 70.2647 64.9349 70.5342 66.5833C70.8025 68.2193 71.2116 69.8315 71.5645 71.4747ZM65.8996 68.1896C66.9885 67.4471 68.0177 66.8445 68.9286 65.9166C68.0973 65.8529 66.0422 67.3585 65.8996 68.1896ZM65.4727 66.7178C66.1922 66.1988 66.9117 65.6798 67.6316 65.1598C67.5975 65.1144 67.5649 65.0684 67.5323 65.0224C66.7198 65.4184 65.9521 65.8758 65.3014 66.5026C65.3587 66.5748 65.416 66.647 65.4727 66.7178Z" fill="#6586E2"/>
<path d="M104.432 82.7843C104.788 83.8518 104.444 84.7071 103.608 85.4053C101.931 86.807 100.156 88.0607 98.26 89.1595C95.9466 90.4991 93.7088 91.9694 91.393 93.3057C88.841 94.7776 86.2387 96.1621 83.6574 97.5822C81.9758 98.5068 80.2992 99.437 78.6107 100.348C77.5028 100.947 76.3661 101.493 75.2627 102.102C73.8739 102.868 72.5077 103.675 71.1303 104.462C70.8607 104.616 70.575 104.739 70.3111 104.9C69.2587 105.538 68.5538 105.079 68.1482 104.108C67.1985 101.826 66.0936 99.5968 65.589 97.1533C65.39 96.189 65.2982 95.2011 65.0728 94.2434C64.4018 91.4095 63.7711 88.5611 62.9705 85.7624C62.0829 82.66 60.9886 79.6159 60.0534 76.5252C59.5377 74.8195 59.1604 73.0712 58.7272 71.3409C58.3885 69.9855 58.0708 68.625 57.7232 67.271C57.5533 66.6087 57.7629 66.1241 58.3564 65.8309C59.8191 65.106 61.297 64.4133 62.7599 63.6909C64.7429 62.7106 66.7264 61.7293 68.694 60.7204C69.8828 60.1107 71.0564 60.0746 72.2615 60.6369C72.5052 60.7507 72.7637 60.8318 73.0152 60.9282C73.0264 60.8989 73.038 60.8687 73.0486 60.838C76.4816 62.0986 79.9199 63.3455 83.3453 64.6259C85.8423 65.5588 88.3337 66.5124 90.8079 67.5048C92.2229 68.0723 93.585 68.7749 95.0008 69.3403C96.3225 69.8671 97.6658 70.3627 99.0348 70.7473C100.632 71.1965 101.49 72.2568 101.883 73.7787C102.38 75.7046 102.815 77.6476 103.34 79.5663C103.639 80.6564 104.074 81.7096 104.432 82.7843ZM98.4372 87.4261C99.729 86.6441 100.965 85.7677 102.259 84.9112C100.37 84.2326 98.601 83.6099 96.8429 82.9601C96.0503 82.6672 95.2842 82.3053 94.4942 82.0026C93.2204 81.5133 91.9053 81.1158 90.6671 80.5492C89.5198 80.0233 89.593 79.982 88.7764 80.9293C85.8365 84.3411 82.8433 87.7074 79.916 91.13C76.7025 94.887 73.5367 98.685 70.3632 102.475C70.2077 102.662 70.171 102.949 70.0498 103.265C70.2284 103.196 70.3103 103.175 70.3796 103.135C71.6861 102.39 72.9801 101.624 74.2983 100.901C75.3462 100.325 76.4318 99.816 77.4849 99.2477C79.2657 98.2893 81.0367 97.3127 82.808 96.3351C85.606 94.7898 88.4142 93.2616 91.1942 91.682C93.6274 90.2985 96.0407 88.8763 98.4372 87.4261ZM103.167 83.8434C101.552 80.4547 101.077 76.9241 100.333 73.3239C97.2832 75.8365 94.0745 77.6947 90.5696 79.3293C94.6634 81.177 98.6636 82.8595 103.167 83.8434ZM98.852 73.2576C99.1853 73 99.4771 72.6881 99.8331 72.359C98.4346 71.7452 97.1614 71.1855 95.8859 70.6285C95.812 70.5966 95.7252 70.5921 95.6458 70.5712C94.9909 70.3968 94.3132 70.282 93.6855 70.0366C91.238 69.0808 88.808 68.0825 86.3703 67.1041C85.8298 66.8874 85.2823 66.6859 84.7375 66.4772C84.6855 66.5254 84.632 66.5744 84.579 66.6223C85.4152 69.2718 86.1882 71.9425 87.1142 74.5606C87.5644 75.8343 88.2869 77.0159 88.9137 78.2256C89.0786 78.5449 89.2829 78.8362 89.7822 78.6171C93.0186 77.1895 96.0541 75.4241 98.852 73.2576ZM79.3991 90.2581C82.4134 86.7743 85.473 83.3281 88.5788 79.7896C87.6542 79.4915 86.8894 79.2978 86.1674 79.0019C84.0646 78.1399 81.9764 77.2427 79.8876 76.3441C79.3015 76.0931 78.7501 75.755 78.1577 75.5208C76.2457 74.7665 74.3207 74.0432 72.4276 73.3177C72.3859 74.7164 72.3802 76.1492 72.2937 77.5774C71.9708 82.9173 71.5747 88.2483 70.886 93.5592C70.5772 95.9483 70.5798 98.3777 70.444 100.743C73.3949 97.2842 76.3749 93.7525 79.3991 90.2581ZM87.7671 78.3475C85.758 74.686 84.8284 70.756 83.8939 66.6673C80.3845 68.5886 76.9923 70.4448 73.6278 72.2876C78.3495 74.3112 83.0586 76.3301 87.7671 78.3475ZM69.0079 102.339C69.1154 102.324 69.2233 102.308 69.3308 102.293C69.9812 92.4597 71.4852 82.6977 71.6408 72.8786C67.4388 71.1199 63.2708 69.3754 59.1118 67.6356C60.0082 70.8683 60.9289 74.1905 61.8536 77.5274C63.2618 76.4729 64.541 75.5149 65.8197 74.5579C65.8763 74.6287 65.9326 74.7005 65.9892 74.7713C64.6787 75.8393 63.3692 76.9078 62.0169 78.0101C62.1826 78.5176 62.365 79.0722 62.5501 79.6387C64.1485 78.5816 65.6578 77.5849 67.1662 76.5879C67.2001 76.6368 67.233 76.6853 67.2669 76.7342C65.9645 78.1465 64.2865 79.0677 62.8423 80.0163C62.9598 80.4372 63.0649 80.8126 63.1779 81.2173C64.352 80.3304 65.4602 79.4936 66.5684 78.6568C66.6066 78.6977 66.6451 78.7377 66.6823 78.7782C66.5966 78.883 66.5234 79.0022 66.423 79.0894C65.5286 79.8741 64.6387 80.6629 63.7249 81.4233C63.4961 81.6145 63.3382 81.7611 63.4693 82.0746C63.6523 82.5122 63.8174 82.956 63.9829 83.3797C65.0839 82.6431 66.1885 81.9031 67.2942 81.1634C67.3409 81.2196 67.3872 81.2769 67.4338 81.3331C67.1857 81.5934 66.9618 81.887 66.6832 82.1082C65.9737 82.6729 65.2297 83.1933 64.5223 83.7588C64.3764 83.874 64.2242 84.1245 64.2485 84.2858C64.3283 84.8083 64.4887 85.3174 64.6297 85.8801C65.7581 85.0031 66.8272 84.1717 67.8969 83.3417C67.9489 83.4059 68.0023 83.4694 68.0553 83.534C67.1434 84.6926 65.9191 85.5232 64.7835 86.444C64.9746 87.0164 65.1558 87.5586 65.3327 88.0871C66.3691 87.3222 67.381 86.5741 68.393 85.8261C68.4266 85.8665 68.4608 85.9084 68.4944 85.9488C68.3441 86.1066 68.2061 86.2763 68.0423 86.4194C67.2988 87.0728 66.5412 87.7101 65.8065 88.3716C65.6728 88.4927 65.5203 88.7156 65.5435 88.8645C65.6501 89.548 65.816 90.2208 65.9713 90.9493C66.7387 90.3147 67.4459 89.7311 68.153 89.1476C68.2142 89.2189 68.2759 89.2892 68.3385 89.3599C67.698 89.9821 67.0435 90.5907 66.4277 91.2356C66.2701 91.4002 66.1201 91.7041 66.1604 91.9051C66.5394 93.8205 66.8854 95.7471 67.3944 97.6297C67.8267 99.228 68.4621 100.771 69.0079 102.339ZM72.6238 71.7532C76.198 69.8376 79.6878 67.9674 83.3323 66.0152C78.983 64.4503 74.8057 62.9488 70.7225 61.4798C71.0972 64.8369 71.5205 68.2485 72.6238 71.7532ZM59.9488 67.0288C63.8028 68.5057 67.6641 69.9854 71.5629 71.4795C71.2101 69.8363 70.801 68.2241 70.5326 66.5882C70.2631 64.9398 70.1329 63.2681 69.9352 61.5479C66.617 63.3701 63.3105 65.1837 59.9488 67.0288Z" fill="black"/>
<path d="M76.2397 82.3649C76.3048 82.4449 76.3699 82.5249 76.4339 82.6045C75.6907 83.5477 74.744 84.2441 73.6889 84.808C73.6248 84.7284 73.5602 84.6474 73.4961 84.5678C74.4105 83.8338 75.3249 83.0999 76.2397 82.3649Z" fill="black"/>
<path d="M74.8346 85.494C74.151 86.0316 73.4679 86.5681 72.7854 87.1061C72.7338 87.0408 72.6828 86.977 72.6323 86.9121C73.1226 86.1294 73.9032 85.7164 74.7009 85.3243C74.7451 85.3808 74.7904 85.4376 74.8346 85.494Z" fill="black"/>
<path d="M76.6464 80.0042C76.6823 80.0574 76.7171 80.1103 76.753 80.1635C75.7388 81.0016 74.7246 81.8398 73.6381 82.7387C73.5901 82.0238 75.5554 80.3497 76.6464 80.0042Z" fill="black"/>
<path d="M68.9269 65.9212C68.0159 66.8491 66.9867 67.4517 65.8979 68.1942C66.0404 67.3631 68.0955 65.8575 68.9269 65.9212Z" fill="black"/>
<path d="M67.63 65.164C66.9101 65.684 66.1906 66.203 65.4711 66.722C65.4144 66.6512 65.3571 66.579 65.2998 66.5068C65.9505 65.88 66.7183 65.4226 67.5307 65.0266C67.5633 65.0726 67.5959 65.1186 67.63 65.164Z" fill="black"/>
</g>
<g clip-path="url(#clip1)">
<path d="M138.766 53.2195L148.757 72.3671L150.658 74.1919L155.733 83.8417L154.995 84.2296L152.782 85.3932L152.045 85.7811L146.97 76.1313L146.544 73.5307L136.492 54.4155L138.766 53.2195Z" fill="#A57939"/>
<path d="M155.549 53.6522C152.801 51.4099 145.953 52.2646 139.008 55.9171C132.001 59.6018 127.387 64.8528 127.738 68.3558L132.17 64.848C137.547 60.5825 143.661 57.3406 150.208 55.2838L155.549 53.6522Z" fill="#D0CFCE"/>
<path d="M141.643 58.6899L148.66 72.1828L150.593 74.0691L155.668 83.7189L154.93 84.1067L152.718 85.2703L151.98 85.6582L146.905 76.0084L146.447 73.3464L139.368 59.8858L141.643 58.6899Z" stroke="black" stroke-width="2" stroke-linecap="round" stroke-linejoin="round"/>
<path d="M138.831 53.3425L139.803 55.3417L137.591 56.5053L136.556 54.5385L138.831 53.3425Z" stroke="black" stroke-width="2" stroke-linecap="round" stroke-linejoin="round"/>
<path d="M155.484 53.5293C152.736 51.287 145.888 52.1417 138.943 55.7942C131.936 59.4789 127.322 64.7299 127.673 68.2328L132.106 64.7251C137.482 60.4595 143.596 57.2177 150.144 55.1608L155.484 53.5293Z" stroke="black" stroke-width="2" stroke-linecap="round" stroke-linejoin="round"/>
</g>
<defs>
<clipPath id="clip0">
<rect width="50" height="50" fill="white" transform="translate(62.8921 53) rotate(20.9677)"/>
</clipPath>
<clipPath id="clip1">
<rect width="50" height="50" fill="white" transform="translate(112 58.2722) rotate(-27.7389)"/>
</clipPath>
</defs>
</svg>
