<svg width="30" height="30" viewBox="0 0 30 30" fill="none" xmlns="http://www.w3.org/2000/svg">
<path d="M15 22.5C19.1421 22.5 22.5 19.1421 22.5 15C22.5 10.8579 19.1421 7.5 15 7.5C10.8579 7.5 7.5 10.8579 7.5 15C7.5 19.1421 10.8579 22.5 15 22.5Z" stroke="white" stroke-width="2" stroke-linecap="round" stroke-linejoin="round"/>
<path d="M12.8174 12.7499C12.9937 12.2487 13.3417 11.826 13.7998 11.5568C14.258 11.2876 14.7966 11.1891 15.3203 11.279C15.844 11.3688 16.319 11.6411 16.6612 12.0476C17.0034 12.4541 17.1907 12.9686 17.1899 13.4999C17.1899 14.9999 14.9399 15.7499 14.9399 15.7499" stroke="white" stroke-width="2" stroke-linecap="round" stroke-linejoin="round"/>
<mask id="path-3-inside-1" fill="white">
<ellipse cx="15" cy="18.75" rx="0.75" ry="0.75"/>
</mask>
<path d="M14.75 18.75C14.75 18.6119 14.8619 18.5 15 18.5V20.5C15.9665 20.5 16.75 19.7165 16.75 18.75H14.75ZM15 18.5C15.1381 18.5 15.25 18.6119 15.25 18.75H13.25C13.25 19.7165 14.0335 20.5 15 20.5V18.5ZM15.25 18.75C15.25 18.8881 15.1381 19 15 19V17C14.0335 17 13.25 17.7835 13.25 18.75H15.25ZM15 19C14.8619 19 14.75 18.8881 14.75 18.75H16.75C16.75 17.7835 15.9665 17 15 17V19Z" fill="white" mask="url(#path-3-inside-1)"/>
</svg>
