<svg width="20" height="20" viewBox="0 0 20 20" fill="none" xmlns="http://www.w3.org/2000/svg">
<g clip-path="url(#clip0)">
<path d="M11.6227 1.06611C11.3907 0.955445 11.1173 0.984779 10.9173 1.14611L4.432 6.33411H1.33333C0.598667 6.33411 0 6.93278 0 7.66744V13.0008C0 13.7354 0.598667 14.3341 1.33333 14.3341H4.432L10.916 19.5221C11.0373 19.6181 11.1853 19.6674 11.3333 19.6674C11.432 19.6674 11.5307 19.6461 11.6227 19.6021C11.8533 19.4901 12 19.2568 12 19.0008V1.66745C12 1.41145 11.8533 1.17811 11.6227 1.06611ZM4 13.0008H1.33333V7.66744H4V13.0008ZM10.6667 17.6128L5.33333 13.3461V7.32211L10.6667 3.05544V17.6128Z" fill="white"/>
<path d="M15.3762 5.19285C15.1136 4.93285 14.6922 4.93685 14.4336 5.19818C14.1749 5.46085 14.1776 5.88218 14.4389 6.14085C15.4456 7.13685 16.0002 8.47418 16.0002 9.90751C16.0002 11.3408 15.4456 12.6782 14.4389 13.6742C14.1762 13.9328 14.1736 14.3542 14.4336 14.6168C14.5642 14.7488 14.7362 14.8142 14.9069 14.8142C15.0762 14.8142 15.2456 14.7502 15.3762 14.6208C16.6389 13.3742 17.3336 11.7008 17.3336 9.90751C17.3336 8.11418 16.6389 6.44085 15.3762 5.19285Z" fill="white"/>
<path d="M17.2558 3.19301C16.9945 2.93434 16.5718 2.93567 16.3131 3.19701C16.0545 3.45834 16.0558 3.88101 16.3171 4.13967C17.8318 5.64234 18.6665 7.64767 18.6665 9.78634C18.6665 11.925 17.8318 13.9303 16.3171 15.433C16.0558 15.6917 16.0545 16.1143 16.3131 16.3757C16.4438 16.5077 16.6145 16.573 16.7865 16.573C16.9558 16.573 17.1251 16.509 17.2558 16.3797C19.0251 14.625 19.9998 12.2837 19.9998 9.78634C19.9998 7.28901 19.0251 4.94767 17.2558 3.19301Z" fill="white"/>
</g>
<defs>
<clipPath id="clip0">
<rect width="20" height="20" fill="white"/>
</clipPath>
</defs>
</svg>
