<svg width="30" height="30" viewBox="0 0 30 30" fill="none" xmlns="http://www.w3.org/2000/svg">
<path d="M26 0H4V30H26V0Z" fill="#F2F2F4"/>
<path d="M26 0H15V30H26V0Z" fill="#DFDFE1"/>
<path d="M10.7575 15.4142L15.0001 19.6569L19.2426 15.4143C20.0236 14.6332 20.0236 13.3669 19.2426 12.5859C18.4615 11.8049 17.1953 11.8049 16.4143 12.5859L15.0001 14L13.5858 12.5857C12.8047 11.8048 11.5385 11.8048 10.7575 12.5857C9.97635 13.3668 9.97635 14.6332 10.7575 15.4142Z" fill="#FF6643"/>
<path d="M19.2426 12.5858C18.4616 11.8048 17.1952 11.8048 16.4142 12.5858L15 14V19.6569L19.2426 15.4143C20.0237 14.6331 20.0237 13.3668 19.2426 12.5858Z" fill="#FF4F19"/>
</svg>
