<svg width="30" height="30" viewBox="0 0 30 30" fill="none" xmlns="http://www.w3.org/2000/svg">
<path d="M0.01875 9.48838L0 7.51494L10.2422 1.72119L18.75 7.39307L27.3094 2.19463L28.3547 3.48369L18.8484 9.45088L10.1625 3.66182L0.01875 9.48838Z" fill="#E21B1B"/>
<path d="M26.386 1.60781L30 1.28906L28.4719 4.57969L26.386 1.60781Z" fill="#E21B1B"/>
<path d="M8.01577 28.6822H5.04858V8.58691L8.01577 7.0166V28.6822Z" fill="black"/>
<path d="M3.07485 28.6823H0.107666V11.3714L3.07485 9.90417V28.6823Z" fill="#E21B1B"/>
<path d="M12.9563 28.6823H9.98901V5.80261L12.9328 7.90261L12.9563 28.6823Z" fill="#E21B1B"/>
<path d="M17.8969 28.6833H14.9297V9.0802L17.8969 11.0583V28.6833Z" fill="black"/>
<path d="M22.8374 28.6367H19.8562L19.8374 10.8852L22.8374 9.26331V28.6367Z" fill="#E21B1B"/>
<path d="M27.7782 28.7112H24.8157V7.87061L27.7782 6.04248V28.7112Z" fill="black"/>
</svg>
