<svg width="30" height="30" viewBox="0 0 30 30" fill="none" xmlns="http://www.w3.org/2000/svg">
<path d="M10.2263 25.7812C9.96852 25.7812 9.60847 25.632 9.42612 25.4497L2.67521 18.6988C2.49293 18.5165 2.34375 18.1564 2.34375 17.8986V8.35134C2.34375 8.09352 2.49287 7.73341 2.67521 7.55112L9.42612 0.800214C9.60841 0.617929 9.96852 0.46875 10.2263 0.46875H19.7736C20.0314 0.46875 20.3914 0.617929 20.5738 0.800214L27.3247 7.55112C27.507 7.73341 27.6562 8.09352 27.6562 8.35134V17.8986C27.6562 18.1564 27.507 18.5165 27.3247 18.6988L20.5738 25.4497C20.3915 25.632 20.0314 25.7812 19.7736 25.7812H10.2263Z" fill="#EFF2FA"/>
<path d="M15 14.0624C15.5178 14.0624 15.9375 13.6427 15.9375 13.1249C15.9375 12.6072 15.5178 12.1874 15 12.1874C14.4822 12.1874 14.0625 12.6072 14.0625 13.1249C14.0625 13.6427 14.4822 14.0624 15 14.0624Z" fill="#AFB9D2"/>
<path d="M8.90624 17.4023C9.68289 17.4023 10.3125 16.7727 10.3125 15.996C10.3125 15.2194 9.68289 14.5898 8.90624 14.5898C8.1296 14.5898 7.5 15.2194 7.5 15.996C7.5 16.7727 8.1296 17.4023 8.90624 17.4023Z" fill="#FFD782"/>
<path d="M9.84374 16.9335C9.06708 16.9335 8.4375 16.3039 8.4375 15.5273C8.4375 15.1708 8.57443 14.849 8.79304 14.6012C8.07029 14.6598 7.5 15.2581 7.5 15.996C7.5 16.7727 8.12959 17.4023 8.90624 17.4023C9.32642 17.4023 9.69925 17.2142 9.95694 16.9221C9.91897 16.9251 9.88253 16.9335 9.84374 16.9335Z" fill="#FFC36E"/>
<path d="M15.9961 18.164C16.7727 18.164 17.4023 17.5344 17.4023 16.7577C17.4023 15.9811 16.7727 15.3515 15.9961 15.3515C15.2194 15.3515 14.5898 15.9811 14.5898 16.7577C14.5898 17.5344 15.2194 18.164 15.9961 18.164Z" fill="#FFD782"/>
<path d="M16.9336 17.6952C16.1569 17.6952 15.5273 17.0656 15.5273 16.289C15.5273 15.9325 15.6643 15.6108 15.8829 15.3629C15.1601 15.4215 14.5898 16.0199 14.5898 16.7577C14.5898 17.5344 15.2194 18.164 15.9961 18.164C16.4163 18.164 16.7891 17.9759 17.0468 17.6838C17.0088 17.6868 16.9724 17.6952 16.9336 17.6952Z" fill="#FFC36E"/>
<path d="M12.6562 18.164C13.4329 18.164 14.0625 17.5344 14.0625 16.7577C14.0625 15.9811 13.4329 15.3515 12.6562 15.3515C11.8796 15.3515 11.25 15.9811 11.25 16.7577C11.25 17.5344 11.8796 18.164 12.6562 18.164Z" fill="#FFD782"/>
<path d="M13.5937 17.6952C12.8171 17.6952 12.1875 17.0656 12.1875 16.289C12.1875 15.9325 12.3244 15.6108 12.543 15.3629C11.8203 15.4215 11.25 16.0199 11.25 16.7577C11.25 17.5344 11.8796 18.164 12.6562 18.164C13.0764 18.164 13.4492 17.9759 13.7069 17.6838C13.669 17.6868 13.6325 17.6952 13.5937 17.6952Z" fill="#FFC36E"/>
<path d="M12.1289 21.0351C12.9055 21.0351 13.5351 20.4055 13.5351 19.6288C13.5351 18.8522 12.9055 18.2226 12.1289 18.2226C11.3523 18.2226 10.7227 18.8522 10.7227 19.6288C10.7227 20.4055 11.3523 21.0351 12.1289 21.0351Z" fill="#FFD782"/>
<path d="M13.0664 20.5663C12.2897 20.5663 11.6602 19.9367 11.6602 19.1601C11.6602 18.8036 11.7971 18.4819 12.0157 18.234C11.2929 18.2926 10.7227 18.891 10.7227 19.6288C10.7227 20.4055 11.3522 21.0351 12.1289 21.0351C12.5491 21.0351 12.9219 20.847 13.1796 20.5549C13.1416 20.5579 13.1052 20.5663 13.0664 20.5663Z" fill="#FFC36E"/>
<path d="M15 21.0351C15.7766 21.0351 16.4062 20.4055 16.4062 19.6288C16.4062 18.8522 15.7766 18.2226 15 18.2226C14.2233 18.2226 13.5938 18.8522 13.5938 19.6288C13.5938 20.4055 14.2233 21.0351 15 21.0351Z" fill="#FFD782"/>
<path d="M15.9375 20.5663C15.1608 20.5663 14.5312 19.9367 14.5312 19.1601C14.5312 18.8036 14.6682 18.4819 14.8868 18.234C14.164 18.2926 13.5938 18.891 13.5938 19.6288C13.5938 20.4055 14.2233 21.0351 15 21.0351C15.4202 21.0351 15.793 20.847 16.0507 20.5549C16.0127 20.5579 15.9763 20.5663 15.9375 20.5663Z" fill="#FFC36E"/>
<path d="M17.8125 21.0351C18.5891 21.0351 19.2187 20.4055 19.2187 19.6288C19.2187 18.8522 18.5891 18.2226 17.8125 18.2226C17.0358 18.2226 16.4062 18.8522 16.4062 19.6288C16.4062 20.4055 17.0358 21.0351 17.8125 21.0351Z" fill="#FFD782"/>
<path d="M18.75 20.5663C17.9733 20.5663 17.3437 19.9367 17.3437 19.1601C17.3437 18.8036 17.4807 18.4819 17.6993 18.234C16.9765 18.2926 16.4062 18.891 16.4062 19.6288C16.4062 20.4055 17.0358 21.0351 17.8125 21.0351C18.2327 21.0351 18.6055 20.847 18.8632 20.5549C18.8252 20.5579 18.7888 20.5663 18.75 20.5663Z" fill="#FFC36E"/>
<path d="M19.2773 23.9062C20.054 23.9062 20.6836 23.2766 20.6836 22.4999C20.6836 21.7233 20.054 21.0937 19.2773 21.0937C18.5007 21.0937 17.8711 21.7233 17.8711 22.4999C17.8711 23.2766 18.5007 23.9062 19.2773 23.9062Z" fill="#FFD782"/>
<path d="M20.2148 23.4374C19.4382 23.4374 18.8086 22.8078 18.8086 22.0312C18.8086 21.6747 18.9455 21.353 19.1641 21.1051C18.4414 21.1637 17.8711 21.7621 17.8711 22.4999C17.8711 23.2766 18.5007 23.9062 19.2773 23.9062C19.6975 23.9062 20.0703 23.7181 20.328 23.426C20.2901 23.429 20.2536 23.4374 20.2148 23.4374Z" fill="#FFC36E"/>
<path d="M16.4062 23.9062C17.1829 23.9062 17.8125 23.2766 17.8125 22.4999C17.8125 21.7233 17.1829 21.0937 16.4062 21.0937C15.6296 21.0937 15 21.7233 15 22.4999C15 23.2766 15.6296 23.9062 16.4062 23.9062Z" fill="#FFD782"/>
<path d="M17.3437 23.4374C16.5671 23.4374 15.9375 22.8078 15.9375 22.0312C15.9375 21.6747 16.0744 21.353 16.293 21.1051C15.5703 21.1637 15 21.7621 15 22.4999C15 23.2766 15.6296 23.9062 16.4062 23.9062C16.8264 23.9062 17.1993 23.7181 17.4569 23.426C17.419 23.429 17.3825 23.4374 17.3437 23.4374Z" fill="#FFC36E"/>
<path d="M13.6523 23.9062C14.429 23.9062 15.0586 23.2766 15.0586 22.4999C15.0586 21.7233 14.429 21.0937 13.6523 21.0937C12.8757 21.0937 12.2461 21.7233 12.2461 22.4999C12.2461 23.2766 12.8757 23.9062 13.6523 23.9062Z" fill="#FFD782"/>
<path d="M14.5898 23.4374C13.8132 23.4374 13.1836 22.8078 13.1836 22.0312C13.1836 21.6747 13.3205 21.353 13.5391 21.1051C12.8164 21.1637 12.2461 21.7621 12.2461 22.4999C12.2461 23.2766 12.8757 23.9062 13.6523 23.9062C14.0725 23.9062 14.4453 23.7181 14.703 23.426C14.6651 23.429 14.6286 23.4374 14.5898 23.4374Z" fill="#FFC36E"/>
<path d="M10.7227 23.9062C11.4993 23.9062 12.1289 23.2766 12.1289 22.4999C12.1289 21.7233 11.4993 21.0937 10.7227 21.0937C9.946 21.0937 9.31641 21.7233 9.31641 22.4999C9.31641 23.2766 9.946 23.9062 10.7227 23.9062Z" fill="#FFD782"/>
<path d="M11.6601 23.4374C10.8835 23.4374 10.2539 22.8078 10.2539 22.0312C10.2539 21.6747 10.3908 21.353 10.6094 21.1051C9.8867 21.1637 9.31641 21.7621 9.31641 22.4999C9.31641 23.2766 9.94599 23.9062 10.7227 23.9062C11.1428 23.9062 11.5157 23.7181 11.7733 23.426C11.7354 23.429 11.6989 23.4374 11.6601 23.4374Z" fill="#FFC36E"/>
<path d="M8.49609 21.0351C9.27274 21.0351 9.90233 20.4055 9.90233 19.6288C9.90233 18.8522 9.27274 18.2226 8.49609 18.2226C7.71944 18.2226 7.08984 18.8522 7.08984 19.6288C7.08984 20.4055 7.71944 21.0351 8.49609 21.0351Z" fill="#FFD782"/>
<path d="M9.43359 20.5663C8.65693 20.5663 8.02734 19.9367 8.02734 19.1601C8.02734 18.8036 8.16428 18.4819 8.38289 18.234C7.66014 18.2926 7.08984 18.891 7.08984 19.6288C7.08984 20.4055 7.71943 21.0351 8.49609 21.0351C8.91627 21.0351 9.2891 20.847 9.54679 20.5549C9.50883 20.5579 9.47238 20.5663 9.43359 20.5663Z" fill="#FFC36E"/>
<path d="M8.02734 10.7226C8.80399 10.7226 9.43358 10.093 9.43358 9.31634C9.43358 8.53969 8.80399 7.9101 8.02734 7.9101C7.25069 7.9101 6.62109 8.53969 6.62109 9.31634C6.62109 10.093 7.25069 10.7226 8.02734 10.7226Z" fill="#FFD782"/>
<path d="M8.96483 10.2539C8.18817 10.2539 7.55859 9.6243 7.55859 8.84764C7.55859 8.49116 7.69552 8.16942 7.91413 7.92157C7.19138 7.98016 6.62109 8.57852 6.62109 9.31639C6.62109 10.093 7.25068 10.7226 8.02733 10.7226C8.44751 10.7226 8.82034 10.5346 9.07803 10.2425C9.04006 10.2455 9.00362 10.2539 8.96483 10.2539Z" fill="#FFC36E"/>
<path d="M5.62499 14.5312C6.40164 14.5312 7.03124 13.9016 7.03124 13.1249C7.03124 12.3483 6.40164 11.7187 5.62499 11.7187C4.84835 11.7187 4.21875 12.3483 4.21875 13.1249C4.21875 13.9016 4.84835 14.5312 5.62499 14.5312Z" fill="#FFD782"/>
<path d="M6.56249 14.0624C5.78583 14.0624 5.15625 13.4328 5.15625 12.6562C5.15625 12.2997 5.29318 11.978 5.51179 11.7301C4.78904 11.7887 4.21875 12.3871 4.21875 13.1249C4.21875 13.9016 4.84834 14.5312 5.62499 14.5312C6.04517 14.5312 6.418 14.3431 6.67569 14.051C6.63772 14.054 6.60128 14.0624 6.56249 14.0624Z" fill="#FFC36E"/>
<path d="M14.0625 6.56249C14.8391 6.56249 15.4687 5.93289 15.4687 5.15624C15.4687 4.3796 14.8391 3.75 14.0625 3.75C13.2858 3.75 12.6562 4.3796 12.6562 5.15624C12.6562 5.93289 13.2858 6.56249 14.0625 6.56249Z" fill="#FFD782"/>
<path d="M15 6.09379C14.2233 6.09379 13.5937 5.4642 13.5937 4.68755C13.5937 4.33106 13.7307 4.00933 13.9493 3.76147C13.2265 3.82007 12.6562 4.41843 12.6562 5.15629C12.6562 5.93295 13.2858 6.56254 14.0625 6.56254C14.4827 6.56254 14.8555 6.37451 15.1132 6.08236C15.0752 6.08541 15.0388 6.09379 15 6.09379Z" fill="#FFC36E"/>
<path d="M22.0312 21.0937C22.8079 21.0937 23.4375 20.4641 23.4375 19.6874C23.4375 18.9108 22.8079 18.2812 22.0312 18.2812C21.2546 18.2812 20.625 18.9108 20.625 19.6874C20.625 20.4641 21.2546 21.0937 22.0312 21.0937Z" fill="#FFD782"/>
<path d="M22.9687 20.6249C22.1921 20.6249 21.5625 19.9953 21.5625 19.2187C21.5625 18.8622 21.6994 18.5405 21.918 18.2926C21.1953 18.3512 20.625 18.9496 20.625 19.6874C20.625 20.4641 21.2546 21.0937 22.0312 21.0937C22.4514 21.0937 22.8242 20.9056 23.0819 20.6135C23.044 20.6165 23.0075 20.6249 22.9687 20.6249Z" fill="#FFC36E"/>
<path d="M27.6561 7.21966L20.9052 0.468748C20.6336 0.197109 20.1577 0 19.7736 0H10.2264C9.84231 0 9.36636 0.197109 9.09478 0.468748L2.34375 7.21966C2.07211 7.4913 1.875 7.96725 1.875 8.35133V17.8986C1.875 18.2827 2.07211 18.7587 2.34375 19.0302L8.57863 25.2651L6.73756 29.0624H5.62499C5.36612 29.0624 5.15624 29.2723 5.15624 29.5311C5.15624 29.79 5.36612 29.9999 5.62499 29.9999H7.02883C7.02953 29.9999 7.03018 30 7.03088 30C7.03141 30 7.03199 29.9999 7.03252 29.9999H9.37497C9.63384 29.9999 9.84372 29.79 9.84372 29.5311C9.84372 29.2723 9.63384 29.0624 9.37497 29.0624H7.77947L9.29224 25.9422C9.56411 26.1271 9.92352 26.2499 10.2263 26.2499H19.7735C20.0763 26.2499 20.4357 26.1271 20.7075 25.9422L22.2204 29.0624H20.6249C20.3661 29.0624 20.1562 29.2723 20.1562 29.5311C20.1562 29.79 20.3661 29.9999 20.6249 29.9999H22.9674C22.9679 29.9999 22.9685 30 22.969 30C22.9697 30 22.9704 29.9999 22.9711 29.9999H24.3749C24.6338 29.9999 24.8437 29.79 24.8437 29.5311C24.8437 29.2723 24.6338 29.0624 24.3749 29.0624H23.2623L21.4213 25.2651L27.6561 19.0302C27.9278 18.7586 28.1249 18.2826 28.1249 17.8986V8.35133C28.1249 7.96725 27.9278 7.4913 27.6561 7.21966ZM9.84372 22.4999C9.84372 22.1539 10.0327 21.8517 10.3123 21.6893L9.85444 22.6339C9.84811 22.59 9.84372 22.5455 9.84372 22.4999ZM11.25 19.6874C11.25 19.367 11.4117 19.084 11.6576 18.9148L11.2531 19.7491C11.2517 19.7286 11.25 19.7082 11.25 19.6874ZM20.1455 22.6339L19.6875 21.6893C19.9672 21.8517 20.1562 22.1539 20.1562 22.4999C20.1562 22.5455 20.1518 22.59 20.1455 22.6339ZM14.9999 18.7499C15.5169 18.7499 15.9374 19.1705 15.9374 19.6874C15.9374 20.2043 15.5169 20.6249 14.9999 20.6249C14.483 20.6249 14.0625 20.2043 14.0625 19.6874C14.0625 19.1705 14.483 18.7499 14.9999 18.7499ZM14.3803 17.9181C14.296 17.9478 14.2145 17.9832 14.1362 18.0241C14.1957 17.9476 14.2495 17.8666 14.2968 17.7814C14.3228 17.8282 14.3505 17.8739 14.3803 17.9181ZM13.4393 17.3891L13.5452 17.1705C13.5192 17.2484 13.4836 17.3218 13.4393 17.3891ZM12.7038 18.9058C12.9573 19.0738 13.125 19.3612 13.125 19.6874C13.125 20.2043 12.7044 20.6249 12.1875 20.6249C12.0847 20.6249 11.9861 20.6077 11.8936 20.577L12.7038 18.9058ZM11.3292 21.7409C11.5647 21.9113 11.7187 22.1877 11.7187 22.4999C11.7187 23.0168 11.2981 23.4374 10.7812 23.4374C10.692 23.4374 10.6061 23.4241 10.5244 23.4008L11.3292 21.7409ZM13.5937 21.5624C14.1106 21.5624 14.5312 21.983 14.5312 22.4999C14.5312 23.0168 14.1106 23.4374 13.5937 23.4374C13.0768 23.4374 12.6562 23.0168 12.6562 22.4999C12.6562 21.983 13.0768 21.5624 13.5937 21.5624ZM16.4062 21.5624C16.9231 21.5624 17.3437 21.983 17.3437 22.4999C17.3437 23.0168 16.9231 23.4374 16.4062 23.4374C15.8893 23.4374 15.4687 23.0168 15.4687 22.4999C15.4687 21.983 15.8893 21.5624 16.4062 21.5624ZM18.6706 21.7409L19.4754 23.4008C19.3936 23.4241 19.3077 23.4374 19.2186 23.4374C18.7017 23.4374 18.2811 23.0168 18.2811 22.4999C18.2812 22.1877 18.4352 21.9113 18.6706 21.7409ZM18.7468 19.7491L18.3423 18.9149C18.5882 19.084 18.7499 19.3671 18.7499 19.6875C18.7499 19.7082 18.7482 19.7286 18.7468 19.7491ZM18.1063 20.577C18.0138 20.6077 17.9152 20.6249 17.8124 20.6249C17.2955 20.6249 16.8749 20.2043 16.8749 19.6874C16.8749 19.3613 17.0426 19.0738 17.2961 18.9058L18.1063 20.577ZM15.9374 17.8124C15.4205 17.8124 14.9999 17.3918 14.9999 16.8749C14.9999 16.3846 15.3786 15.9816 15.8588 15.9414L16.6213 17.5141C16.4501 17.6972 16.2072 17.8124 15.9374 17.8124ZM14.9999 13.5937C14.7415 13.5937 14.5312 13.3834 14.5312 13.1249C14.5312 12.8665 14.7415 12.6562 14.9999 12.6562C15.2584 12.6562 15.4687 12.8665 15.4687 13.1249C15.4687 13.3834 15.2584 13.5937 14.9999 13.5937ZM14.83 14.5205C14.8858 14.5273 14.9424 14.5312 14.9999 14.5312C15.0575 14.5312 15.1141 14.5273 15.1699 14.5205L15.4356 15.0687C14.9469 15.2046 14.5381 15.5337 14.2968 15.9684C14.2676 15.9159 14.2361 15.8648 14.2021 15.8155L14.83 14.5205ZM12.24 17.7136C11.9316 17.5599 11.7187 17.2422 11.7187 16.8749C11.7187 16.358 12.1393 15.9374 12.6562 15.9374C12.7997 15.9374 12.9352 15.9708 13.0569 16.0287L12.24 17.7136ZM20.2423 25.1182C20.1479 25.2126 19.907 25.3124 19.7736 25.3124H10.2263C10.0929 25.3124 9.85198 25.2126 9.75759 25.1182L9.71329 25.0739L10.1123 24.2511C10.3201 24.3308 10.5456 24.3749 10.7812 24.3749C11.3408 24.3749 11.8436 24.1282 12.1875 23.7381C12.5313 24.1282 13.0341 24.3749 13.5937 24.3749C14.1533 24.3749 14.6561 24.1282 14.9999 23.7381C15.3438 24.1282 15.8466 24.3749 16.4062 24.3749C16.9658 24.3749 17.4686 24.1282 17.8124 23.7381C18.1563 24.1282 18.6591 24.3749 19.2187 24.3749C19.4543 24.3749 19.6798 24.3308 19.8876 24.2511L20.2866 25.0739L20.2423 25.1182ZM27.1874 17.8986C27.1874 18.032 27.0876 18.273 26.9933 18.3673L20.9883 24.3722L20.6608 23.6967C20.9309 23.3718 21.0937 22.9545 21.0937 22.4999C21.0937 21.5369 20.3638 20.7415 19.4283 20.6369C19.5927 20.3582 19.6874 20.0338 19.6874 19.6874C19.6874 18.6535 18.8463 17.8124 17.8124 17.8124C17.8109 17.8124 17.8094 17.8125 17.8079 17.8125L17.6836 17.5564C17.7664 17.345 17.8124 17.1153 17.8124 16.8749C17.8124 16.0311 17.2519 15.3158 16.4836 15.0813L16.0092 14.1028C16.2546 13.8495 16.4061 13.5047 16.4061 13.125C16.4061 12.3496 15.7753 11.7188 14.9999 11.7188C14.2245 11.7188 13.5936 12.3496 13.5936 13.125C13.5936 13.5047 13.7452 13.8495 13.9906 14.1028L13.4663 15.1842C13.221 15.0662 12.9462 14.9999 12.6562 14.9999C11.6223 14.9999 10.7812 15.8411 10.7812 16.8749C10.7812 17.3338 10.9472 17.7545 11.222 18.0808C10.6774 18.4092 10.3125 19.0065 10.3125 19.6874C10.3125 20.0338 10.4072 20.3582 10.5716 20.6369C10.338 20.663 10.1173 20.7324 9.91743 20.8366C10.1647 20.5189 10.3125 20.1201 10.3125 19.6874C10.3125 18.6535 9.47136 17.8124 8.43747 17.8124C7.40359 17.8124 6.56248 18.6535 6.56248 19.6874C6.56248 20.7213 7.40359 21.5624 8.43747 21.5624C8.74884 21.5624 9.04251 21.4857 9.30126 21.3508C9.05405 21.6685 8.90622 22.0672 8.90622 22.4999C8.90622 22.9545 9.06894 23.3718 9.33911 23.6967L9.01157 24.3722L3.00662 18.3673C2.91228 18.273 2.8125 18.032 2.8125 17.8986V8.35133C2.8125 8.21792 2.91228 7.97692 3.00662 7.88259L9.75759 1.13168C9.85198 1.03728 10.0929 0.937496 10.2263 0.937496H19.7736C19.907 0.937496 20.1479 1.03728 20.2423 1.13168L26.9933 7.88259C27.0876 7.97692 27.1874 8.21792 27.1874 8.35133V17.8986ZM9.37497 19.6874C9.37497 20.2043 8.95439 20.6249 8.43747 20.6249C7.92056 20.6249 7.49998 20.2043 7.49998 19.6874C7.49998 19.1705 7.92056 18.7499 8.43747 18.7499C8.95439 18.7499 9.37497 19.1705 9.37497 19.6874Z" fill="#2D2B29"/>
<path d="M8.90625 14.0624C7.87236 14.0624 7.03125 14.9035 7.03125 15.9374C7.03125 16.9713 7.87236 17.8124 8.90625 17.8124C9.94013 17.8124 10.7812 16.9713 10.7812 15.9374C10.7812 14.9035 9.94013 14.0624 8.90625 14.0624ZM8.90625 16.8749C8.38933 16.8749 7.96875 16.4543 7.96875 15.9374C7.96875 15.4205 8.38933 14.9999 8.90625 14.9999C9.42316 14.9999 9.84374 15.4205 9.84374 15.9374C9.84374 16.4543 9.42316 16.8749 8.90625 16.8749Z" fill="#2D2B29"/>
<path d="M5.625 11.2499C4.59111 11.2499 3.75 12.091 3.75 13.1249C3.75 14.1588 4.59111 14.9999 5.625 14.9999C6.65888 14.9999 7.49999 14.1588 7.49999 13.1249C7.49999 12.091 6.65888 11.2499 5.625 11.2499ZM5.625 14.0624C5.10808 14.0624 4.6875 13.6418 4.6875 13.1249C4.6875 12.608 5.10808 12.1874 5.625 12.1874C6.14191 12.1874 6.56249 12.608 6.56249 13.1249C6.56249 13.6418 6.14191 14.0624 5.625 14.0624Z" fill="#2D2B29"/>
<path d="M14.0625 3.28125C13.0286 3.28125 12.1875 4.12236 12.1875 5.15624C12.1875 6.19013 13.0286 7.03124 14.0625 7.03124C15.0964 7.03124 15.9375 6.19013 15.9375 5.15624C15.9375 4.12236 15.0964 3.28125 14.0625 3.28125ZM14.0625 6.09374C13.5456 6.09374 13.125 5.67315 13.125 5.15624C13.125 4.63933 13.5456 4.21875 14.0625 4.21875C14.5794 4.21875 15 4.63933 15 5.15624C15 5.67315 14.5794 6.09374 14.0625 6.09374Z" fill="#2D2B29"/>
<path d="M22.0312 17.8124C20.9974 17.8124 20.1562 18.6535 20.1562 19.6874C20.1562 20.7213 20.9974 21.5624 22.0312 21.5624C23.0651 21.5624 23.9062 20.7213 23.9062 19.6874C23.9062 18.6535 23.0651 17.8124 22.0312 17.8124ZM22.0312 20.6249C21.5143 20.6249 21.0937 20.2043 21.0937 19.6874C21.0937 19.1705 21.5143 18.7499 22.0312 18.7499C22.5482 18.7499 22.9687 19.1705 22.9687 19.6874C22.9687 20.2043 22.5482 20.6249 22.0312 20.6249Z" fill="#2D2B29"/>
<path d="M7.96875 11.25C9.00263 11.25 9.84374 10.4089 9.84374 9.37499C9.84374 8.34111 9.00263 7.5 7.96875 7.5C6.93486 7.5 6.09375 8.34111 6.09375 9.37499C6.09375 10.4089 6.93486 11.25 7.96875 11.25ZM7.96875 8.4375C8.48566 8.4375 8.90625 8.85808 8.90625 9.37499C8.90625 9.8919 8.48566 10.3125 7.96875 10.3125C7.45183 10.3125 7.03125 9.8919 7.03125 9.37499C7.03125 8.85808 7.45183 8.4375 7.96875 8.4375Z" fill="#2D2B29"/>
<path d="M18.75 1.875H17.8125C17.5536 1.875 17.3438 2.08488 17.3438 2.34375C17.3438 2.60261 17.5536 2.8125 17.8125 2.8125H18.75C19.0089 2.8125 19.2187 2.60261 19.2187 2.34375C19.2187 2.08488 19.0089 1.875 18.75 1.875Z" fill="#2D2B29"/>
<path d="M20.6112 2.82631C20.4282 2.64338 20.1315 2.64332 19.9484 2.82631C19.7653 3.00941 19.7653 3.30613 19.9484 3.48923L23.5734 7.1143C23.665 7.20582 23.7849 7.25158 23.9049 7.25158C24.0248 7.25158 24.1448 7.20582 24.2364 7.1143C24.4195 6.93119 24.4195 6.63447 24.2364 6.45137L20.6112 2.82631Z" fill="#2D2B29"/>
</svg>
