<svg width="30" height="30" viewBox="0 0 30 30" fill="none" xmlns="http://www.w3.org/2000/svg">
<g clip-path="url(#clip0)">
<path d="M15.0001 30C21.0545 30 25.9626 25.0919 25.9626 19.0375C25.9626 12.983 21.0545 8.07495 15.0001 8.07495C8.94567 8.07495 4.0376 12.983 4.0376 19.0375C4.0376 25.0919 8.94567 30 15.0001 30Z" fill="#0E1010" fill-opacity="0.5"/>
<path d="M6.04401 18.4012C5.79931 14.6818 8.63781 11.5007 12.3083 11.3049L6.04401 18.4012Z" fill="#777777"/>
<path d="M22.7326 11.2573C27.0393 15.564 27.0393 22.4645 22.7326 26.7712C18.4259 31.0779 11.5254 31.0779 7.21875 26.7712" fill="#242121" fill-opacity="0.5"/>
<path d="M20.3834 9.10236C20.3834 10.179 19.5025 11.0599 18.4258 11.0599H11.5743C10.4976 11.0599 9.6167 10.179 9.6167 9.10236C9.6167 8.02569 10.4976 7.14478 11.5743 7.14478H18.4258C19.5025 7.14478 20.3834 8.02569 20.3834 9.10236Z" fill="#0E1010" fill-opacity="0.5"/>
<path d="M20.3834 9.104C20.3834 10.2296 19.5514 11.0616 18.4258 11.0616H11.5743C10.4487 11.0616 9.6167 10.2296 9.6167 9.104" fill="#242121" fill-opacity="0.5"/>
<path d="M15.4893 6.65579H14.0211V3.03426C14.0211 2.15334 13.336 1.51713 12.504 1.51713C11.6231 1.51713 10.9869 2.20228 10.9869 3.18108H9.46973C9.46973 1.22349 10.7911 0 12.504 0C14.2169 0 15.5382 1.27243 15.5382 2.98532V6.65579H15.4893Z" fill="#E88813"/>
<path d="M12.4551 0.0512695C14.168 0.0512695 15.4893 1.3237 15.4893 3.03659V6.65812H14.0211V3.03659C14.0211 2.15567 13.336 1.51946 12.504 1.51946" fill="#BC5E00"/>
<path d="M10.204 5.18623C10.8797 5.18623 11.4275 4.63845 11.4275 3.96274C11.4275 3.28703 10.8797 2.73926 10.204 2.73926C9.52824 2.73926 8.98047 3.28703 8.98047 3.96274C8.98047 4.63845 9.52824 5.18623 10.204 5.18623Z" fill="#E88813"/>
<path d="M11.0359 3.1311C11.5253 3.6205 11.5253 4.3546 11.0359 4.844C10.5465 5.3334 9.81239 5.3334 9.323 4.844" fill="#BC5E00"/>
<path d="M8.19732 4.45654C8.19732 4.60336 8.09944 4.75017 7.95262 4.75017L5.35882 5.19063C5.212 5.19063 5.06519 5.09275 5.06519 4.94593C5.06519 4.79911 5.16306 4.65229 5.30988 4.65229L7.90368 4.26078C8.0505 4.21184 8.19732 4.30972 8.19732 4.45654Z" fill="#CEE0C7" fill-opacity="0.5"/>
<path d="M8.58869 2.74224C8.49081 2.84012 8.34399 2.88906 8.19717 2.79118L6.09277 1.27405C5.99489 1.17617 5.94595 1.02936 6.04383 0.882536C6.14171 0.735717 6.28853 0.735717 6.43535 0.833597L8.53975 2.39967C8.63763 2.4486 8.68657 2.64436 8.58869 2.74224Z" fill="#CEE0C7" fill-opacity="0.5"/>
<path d="M9.07832 5.97132C8.98044 5.87344 8.78468 5.92238 8.68681 6.02026L7.12074 8.12466C7.02286 8.22254 7.0718 8.4183 7.16967 8.51618C7.26755 8.61406 7.46331 8.56512 7.56119 8.46724L9.12726 6.36284C9.22514 6.26496 9.1762 6.0692 9.07832 5.97132Z" fill="#CEE0C7" fill-opacity="0.5"/>
</g>
<defs>
<clipPath id="clip0">
<rect width="30" height="30" fill="white"/>
</clipPath>
</defs>
</svg>
