<svg width="30" height="30" viewBox="0 0 30 30" fill="none" xmlns="http://www.w3.org/2000/svg">
<path d="M18 29.5C14.134 29.5 11 23.008 11 15C11 6.992 14.134 0.5 18 0.5C21.866 0.5 25 6.992 25 15C25 23.008 21.866 29.5 18 29.5Z" fill="#FAC9A6"/>
<path d="M13 15C13 7.3695 15.9615 2.5 18 2.5C20.0385 2.5 23 7.3695 23 15C23 22.6305 20.0385 27.5 18 27.5C15.9615 27.5 13 22.6305 13 15Z" fill="#DF9061"/>
<path d="M17.6435 19.2705C17.749 19.769 18.0565 20.0615 18.4075 19.9535L18.782 19.839C19.057 19.754 19.287 19.425 19.401 19.022C20.5725 18.4745 20.9965 17.0765 20.9965 15.0005C20.9965 14.902 20.9945 14.8055 20.9905 14.711C20.961 14.0025 21.03 13.296 21.2315 12.744C21.3135 12.5195 21.3995 12.3365 21.489 12.2155C21.529 12.161 21.5035 12.0285 21.452 12.0285C21.3635 12.0285 21.258 12.035 21.1415 12.0545C20.6875 12.13 20.756 12.04 20.303 11.5915C20.04 11.331 19.736 11.124 19.4 10.974C19.2855 10.573 19.056 10.246 18.782 10.162L18.4075 10.047C18.0565 9.93898 17.749 10.231 17.6435 10.7295C16.747 10.872 15.9585 11.481 15.525 12.8105L14.8945 12.7375C14.7265 12.7185 14.5705 12.573 14.494 12.361L13.5265 9.68048C13.1985 11.2455 13 13.03 13 15C13 16.942 13.1925 18.704 13.512 20.254L14.4925 17.6315C14.57 17.424 14.7245 17.282 14.89 17.263L15.525 17.19C15.9585 18.519 16.747 19.128 17.6435 19.2705Z" fill="#FCD6BD"/>
<path d="M4.5 23.4525C4.224 23.4525 4 23.6765 4 23.9525V25.701C2.5065 25.0595 1 24.0235 1 22.4525C1 21.3735 1.966 20.307 3.7195 19.449C3.968 19.3275 4.0705 19.028 3.949 18.78C3.828 18.5325 3.529 18.4295 3.2805 18.5505C0.569 19.877 0 21.405 0 22.4525C0 23.662 0.639 25.3115 3.5055 26.5735L2.2 27.5525C1.979 27.718 1.9345 28.0315 2.1 28.2525C2.198 28.3835 2.3485 28.4525 2.5005 28.4525C2.6045 28.4525 2.71 28.42 2.8 28.3525L4.8 26.8525C4.8095 26.845 4.814 26.8345 4.823 26.8265C4.8495 26.804 4.87 26.778 4.891 26.7505C4.91 26.725 4.929 26.7015 4.943 26.6735C4.9535 26.6525 4.961 26.6315 4.9685 26.609C4.969 26.6075 4.97 26.607 4.97 26.6055C4.9725 26.599 4.971 26.593 4.973 26.5865C4.9825 26.553 4.991 26.521 4.993 26.4865C4.994 26.4745 5 26.465 5 26.4525V23.9525C5 23.677 4.776 23.4525 4.5 23.4525Z" fill="#D1D4D2"/>
<path d="M26.4945 2.9265L27.8 1.9475C28.021 1.7815 28.066 1.468 27.9 1.2475C27.7345 1.027 27.422 0.980999 27.2 1.1475L25.2 2.6475C25.1905 2.6545 25.186 2.6655 25.177 2.6735C25.1505 2.696 25.13 2.722 25.109 2.7495C25.09 2.775 25.071 2.7985 25.0575 2.826C25.0465 2.8475 25.039 2.869 25.0315 2.8915C25.031 2.8925 25.0305 2.893 25.03 2.8945C25.0275 2.9005 25.029 2.907 25.027 2.9135C25.0175 2.947 25.0095 2.979 25.007 3.0135C25.006 3.0255 25 3.0355 25 3.0475V5.5475C25 5.8235 25.224 6.0475 25.5 6.0475C25.776 6.0475 26 5.8235 26 5.5475V3.799C27.4935 4.4405 29 5.4765 29 7.0475C29 8.126 28.0345 9.193 26.28 10.051C26.032 10.172 25.929 10.4715 26.0505 10.7195C26.1375 10.8965 26.315 10.9995 26.5 10.9995C26.574 10.9995 26.6485 10.983 26.7195 10.9485C29.431 9.623 30 8.095 30 7.0475C30 5.838 29.3615 4.1885 26.4945 2.9265Z" fill="#D1D4D2"/>
<path d="M11 15C11 6.992 14.134 0.5 18 0.5H13.5C9.634 0.5 6.5 6.992 6.5 15C6.5 23.008 9.634 29.5 13.5 29.5H18C14.134 29.5 11 23.008 11 15Z" fill="#F4B389"/>
<path d="M14.8991 2H10.3991C10.1111 2.2955 9.83407 2.6285 9.57007 3H14.0701C14.3341 2.6285 14.6111 2.2955 14.8991 2Z" fill="#DF9061"/>
<path d="M14.0706 27H9.57056C9.83456 27.3715 10.1116 27.7045 10.3996 28H14.8996C14.6111 27.7045 14.3341 27.3715 14.0706 27Z" fill="#DF9061"/>
<path d="M13.4421 4H8.94209C8.76459 4.316 8.59509 4.6495 8.43359 5H12.9336C13.0951 4.6495 13.2646 4.316 13.4421 4Z" fill="#DF9061"/>
<path d="M12.9341 25H8.43408C8.59558 25.3505 8.76508 25.684 8.94258 26H13.4426C13.2651 25.684 13.0951 25.3505 12.9341 25Z" fill="#DF9061"/>
<path d="M12.5136 6H8.01361C7.89011 6.323 7.77261 6.656 7.66211 7H12.1621C12.2726 6.6555 12.3901 6.323 12.5136 6Z" fill="#DF9061"/>
<path d="M12.1626 23H7.6626C7.7726 23.3445 7.8906 23.677 8.0141 24H12.5141C12.3906 23.677 12.2726 23.344 12.1626 23Z" fill="#DF9061"/>
<path d="M11.8694 8H7.36943C7.28243 8.3255 7.20243 8.66 7.12793 9H11.6279C11.7024 8.66 11.7824 8.3255 11.8694 8Z" fill="#DF9061"/>
<path d="M11.6279 21H7.12793C7.20293 21.3405 7.28243 21.6745 7.36943 22H11.8694C11.7824 21.6745 11.7029 21.3405 11.6279 21Z" fill="#DF9061"/>
<path d="M11.3455 10.5H6.84554C6.79354 10.8285 6.74704 11.1615 6.70654 11.5H11.2065C11.247 11.1615 11.2935 10.8285 11.3455 10.5Z" fill="#DF9061"/>
<path d="M11.2065 18.5H6.70654C6.74704 18.8385 6.79354 19.1715 6.84554 19.5H11.3455C11.2935 19.1715 11.247 18.8385 11.2065 18.5Z" fill="#DF9061"/>
<path d="M11.0681 13H6.56805C6.54605 13.33 6.52955 13.6635 6.51855 14H11.0186C11.0296 13.6635 11.0461 13.33 11.0681 13Z" fill="#DF9061"/>
<path d="M11.0186 16H6.51855C6.52955 16.3365 6.54605 16.67 6.56805 17H11.0681C11.0461 16.67 11.0296 16.3365 11.0186 16Z" fill="#DF9061"/>
</svg>
