<svg width="30" height="30" viewBox="0 0 30 30" fill="none" xmlns="http://www.w3.org/2000/svg">
<g clip-path="url(#clip0)">
<path d="M22.3748 22.0278V7.97234L15.0001 0.597656L7.62549 7.97234V22.0278L15.0001 29.4025L22.3748 22.0278Z" fill="#C6E267"/>
<path d="M22.7974 7.54941L15.4227 0.17479C15.1893 -0.058589 14.8109 -0.058589 14.5775 0.17479L7.20285 7.54941C7.09082 7.66145 7.02783 7.8135 7.02783 7.97199V22.0275C7.02783 22.186 7.09082 22.338 7.20285 22.4501L14.5775 29.8247C14.6942 29.9414 14.8471 29.9997 15.0001 29.9997C15.153 29.9997 15.306 29.9414 15.4226 29.8247L22.7973 22.4501C22.9093 22.338 22.9723 22.186 22.9723 22.0275V7.97205C22.9724 7.8135 22.9095 7.66156 22.7974 7.54941ZM18.2037 7.59822L16.4593 2.90169L21.1559 7.59822H18.2037ZM17.1241 8.12434V21.8753L15.0001 27.5938L12.8761 21.8753V8.12434L15.0001 2.40587L17.1241 8.12434ZM11.7966 7.59822H8.84453L13.541 2.90169L11.7966 7.59822ZM11.6809 8.79342V21.2062H8.22309V8.79342H11.6809ZM11.7966 22.4014L13.5409 27.098L8.84442 22.4014H11.7966ZM18.2037 22.4014H21.1557L16.4593 27.098L18.2037 22.4014ZM18.3194 21.2062V8.79342H21.7773V21.2062H18.3194Z" fill="#00537B"/>
<path d="M20.6774 20.737C20.3474 20.737 20.0798 20.4695 20.0798 20.1394V13.9243C20.0798 13.5942 20.3474 13.3267 20.6774 13.3267C21.0075 13.3267 21.275 13.5942 21.275 13.9243V20.1394C21.275 20.4695 21.0075 20.737 20.6774 20.737Z" fill="#00537B"/>
<path d="M20.6774 12.6693C20.3474 12.6693 20.0798 12.4018 20.0798 12.0717V11.8924C20.0798 11.5623 20.3474 11.2948 20.6774 11.2948C21.0075 11.2948 21.275 11.5623 21.275 11.8924V12.0717C21.275 12.4018 21.0075 12.6693 20.6774 12.6693Z" fill="#00537B"/>
</g>
<defs>
<clipPath id="clip0">
<rect width="30" height="30" fill="white"/>
</clipPath>
</defs>
</svg>
