<svg width="30" height="30" viewBox="0 0 30 30" fill="none" xmlns="http://www.w3.org/2000/svg">
<g clip-path="url(#clip0)">
<path d="M27.4136 10.3448H26.3792V20.6897H27.4136V10.3448Z" fill="#AFB9D2"/>
<path d="M26.8965 11.1207C27.4679 11.1207 27.931 10.6576 27.931 10.0862C27.931 9.51491 27.4679 9.05176 26.8965 9.05176C26.3252 9.05176 25.8621 9.51491 25.8621 10.0862C25.8621 10.6576 26.3252 11.1207 26.8965 11.1207Z" fill="#FF6464"/>
<path d="M26.4827 10.0862C26.4827 9.62375 26.7883 9.23686 27.2069 9.10437C27.1083 9.0732 27.0055 9.05176 26.8965 9.05176C26.3252 9.05176 25.8621 9.51488 25.8621 10.0862C25.8621 10.6575 26.3252 11.1207 26.8965 11.1207C27.0054 11.1207 27.1083 11.0993 27.2069 11.0681C26.7883 10.9356 26.4827 10.5487 26.4827 10.0862Z" fill="#D2555A"/>
<path d="M27.4138 21.7242H23.2759V18.6207H27.4138C27.6995 18.6207 27.9311 18.8523 27.9311 19.138V21.2069C27.9311 21.4926 27.6995 21.7242 27.4138 21.7242Z" fill="#959CB3"/>
<path d="M3.62065 24.3104L2.58618 28.9656H25.3448L24.3103 24.3104H3.62065Z" fill="#707487"/>
<path d="M3.62076 24.3104L3.27588 25.8621H24.6552L24.3104 24.3104H3.62076Z" fill="#5B5D6E"/>
<path d="M24.8275 24.8276H3.10345C2.8178 24.8276 2.58618 24.596 2.58618 24.3104V19.1379H25.3448V24.3104C25.3448 24.5961 25.1132 24.8276 24.8275 24.8276Z" fill="#959CB3"/>
<path d="M2.58611 22.2414H25.3447C25.6304 22.2414 25.862 22.0098 25.862 21.7241V18.6207C25.862 18.335 25.6304 18.1034 25.3447 18.1034H2.58611C2.30047 18.1034 2.06885 18.335 2.06885 18.6207V21.7241C2.06885 22.0098 2.30047 22.2414 2.58611 22.2414Z" fill="#AFB9D2"/>
<path d="M24.3103 8.2758H3.62061V3.10344C3.62061 2.53209 4.08373 2.06897 4.65508 2.06897H23.2758C23.8471 2.06897 24.3102 2.53209 24.3102 3.10344V8.2758H24.3103Z" fill="#AFB9D2"/>
<path d="M24.8276 18.1036H3.10352V7.75872C3.10352 7.47308 3.33514 7.24146 3.62078 7.24146H24.3104C24.5961 7.24146 24.8277 7.47308 24.8277 7.75872V18.1036H24.8276Z" fill="#C7CFE2"/>
<path d="M23.2756 15.5173H4.65496C4.36932 15.5173 4.1377 15.2857 4.1377 15V8.79314C4.1377 8.5075 4.36932 8.27588 4.65496 8.27588H23.2756C23.5613 8.27588 23.7929 8.5075 23.7929 8.79314V15C23.7929 15.2857 23.5613 15.5173 23.2756 15.5173Z" fill="#AFB9D2"/>
<path d="M9.90786 14.4828H5.60972C5.36831 14.4828 5.17261 14.2871 5.17261 14.0457V9.74753C5.17261 9.50613 5.36831 9.31042 5.60972 9.31042H9.90786C10.1493 9.31042 10.345 9.50613 10.345 9.74753V14.0457C10.345 14.2871 10.1493 14.4828 9.90786 14.4828Z" fill="#EFF2FA"/>
<path d="M6.85499 11.341H7.96616C7.02866 11.7809 7.13284 13.5633 7.13284 13.5633H8.52175C8.52175 11.7057 9.63292 10.7854 9.63292 10.7854L9.35519 10.2299H6.29817C6.14548 10.2299 6.02173 10.3536 6.02173 10.5063V11.8966H6.57603C6.73019 11.8966 6.85517 11.7716 6.85517 11.6174V11.341H6.85499V11.341Z" fill="#FF6464"/>
<path d="M5.17261 11.3793V12.4137C5.45825 12.4137 5.68987 12.1821 5.68987 11.8965C5.68987 11.6108 5.45825 11.3793 5.17261 11.3793Z" fill="#FF6464"/>
<path d="M10.3451 12.4137V11.3793C10.0595 11.3793 9.82788 11.6109 9.82788 11.8965C9.82788 12.1822 10.0595 12.4137 10.3451 12.4137Z" fill="#FF6464"/>
<path d="M16.1144 14.4828H11.8163C11.5749 14.4828 11.3792 14.2871 11.3792 14.0457V9.74753C11.3792 9.50613 11.5749 9.31042 11.8163 9.31042H16.1144C16.3558 9.31042 16.5515 9.50613 16.5515 9.74753V14.0457C16.5516 14.2871 16.3559 14.4828 16.1144 14.4828Z" fill="#EFF2FA"/>
<path d="M13.0615 11.341H14.1726C13.2351 11.7809 13.3393 13.5633 13.3393 13.5633H14.7282C14.7282 11.7057 15.8394 10.7854 15.8394 10.7854L15.5617 10.2299H12.5047C12.352 10.2299 12.2283 10.3536 12.2283 10.5063V11.8966H12.7826C12.9367 11.8966 13.0617 11.7716 13.0617 11.6174V11.341H13.0615V11.341Z" fill="#FF6464"/>
<path d="M11.3792 11.3793V12.4137C11.6648 12.4137 11.8964 12.1821 11.8964 11.8965C11.8964 11.6108 11.6648 11.3793 11.3792 11.3793Z" fill="#FF6464"/>
<path d="M16.5517 12.4137V11.3793C16.266 11.3793 16.0344 11.6109 16.0344 11.8965C16.0344 12.1822 16.266 12.4137 16.5517 12.4137Z" fill="#FF6464"/>
<path d="M22.3214 14.4828H18.0233C17.7819 14.4828 17.5862 14.2871 17.5862 14.0457V9.74753C17.5862 9.50613 17.7819 9.31042 18.0233 9.31042H22.3214C22.5628 9.31042 22.7585 9.50613 22.7585 9.74753V14.0457C22.7586 14.2871 22.5629 14.4828 22.3214 14.4828Z" fill="#EFF2FA"/>
<path d="M19.2685 11.341H20.3797C19.4422 11.7809 19.5464 13.5633 19.5464 13.5633H20.9353C20.9353 11.7057 22.0464 10.7854 22.0464 10.7854L21.7687 10.2299H18.7117C18.5591 10.2299 18.4353 10.3536 18.4353 10.5063V11.8966H18.9896C19.1438 11.8966 19.2687 11.7716 19.2687 11.6174V11.341H19.2685V11.341Z" fill="#FF6464"/>
<path d="M17.5862 11.3793V12.4137C17.8718 12.4137 18.1034 12.1821 18.1034 11.8965C18.1034 11.6108 17.8718 11.3793 17.5862 11.3793Z" fill="#FF6464"/>
<path d="M22.7587 12.4137V11.3793C22.4731 11.3793 22.2415 11.6109 22.2415 11.8965C22.2415 12.1822 22.473 12.4137 22.7587 12.4137Z" fill="#FF6464"/>
<path d="M22.7587 3.10352H5.17254C4.88689 3.10352 4.65527 3.33514 4.65527 3.62078V5.68972C4.65527 5.97537 4.88689 6.20699 5.17254 6.20699H22.7587C23.0444 6.20699 23.276 5.97537 23.276 5.68972V3.62078C23.276 3.33508 23.0444 3.10352 22.7587 3.10352Z" fill="#FFE669"/>
<path d="M22.1646 16.5517C21.9494 16.5517 21.7394 16.6746 21.6714 16.8786C21.5346 17.2897 21.1467 17.5862 20.6897 17.5862C20.2326 17.5862 19.8447 17.2897 19.7079 16.8786C19.64 16.6745 19.4299 16.5517 19.2147 16.5517H18.1034C17.8178 16.5517 17.5862 16.7833 17.5862 17.069V18.1034H22.7586V17.0689C22.7586 16.7833 22.527 16.5516 22.2413 16.5516H22.1646V16.5517Z" fill="#959CB3"/>
<path d="M7.24155 18.1035H5.17261V17.5862C5.17261 17.3006 5.40423 17.069 5.68987 17.069H6.72435C7.00999 17.069 7.24161 17.3006 7.24161 17.5862V18.1035H7.24155Z" fill="#FFE669"/>
<path d="M10.3451 18.1035H8.27612V17.5862C8.27612 17.3006 8.50774 17.069 8.79339 17.069H9.82786C10.1135 17.069 10.3451 17.3006 10.3451 17.5862V18.1035H10.3451Z" fill="#FFE669"/>
<path d="M13.4481 18.1035H11.3792V17.5862C11.3792 17.3006 11.6108 17.069 11.8964 17.069H12.9309C13.2165 17.069 13.4482 17.3006 13.4482 17.5862V18.1035H13.4481Z" fill="#FF6464"/>
<path d="M16.5516 18.1035H14.4827V17.5862C14.4827 17.3006 14.7143 17.069 14.9999 17.069H16.0344C16.32 17.069 16.5517 17.3006 16.5517 17.5862V18.1035H16.5516Z" fill="#FF6464"/>
<path d="M13.9654 2.06895C14.5367 2.06895 14.9999 1.6058 14.9999 1.03447C14.9999 0.463149 14.5367 0 13.9654 0C13.3941 0 12.9309 0.463149 12.9309 1.03447C12.9309 1.6058 13.3941 2.06895 13.9654 2.06895Z" fill="#FF6464"/>
<path d="M13.707 1.03447C13.707 0.600586 13.9747 0.230273 14.3535 0.0767578C14.2336 0.0280664 14.103 0 13.9656 0C13.3943 0 12.9312 0.463125 12.9312 1.03447C12.9312 1.60576 13.3943 2.06895 13.9656 2.06895C14.103 2.06895 14.2336 2.04088 14.3536 1.99219C13.9747 1.83867 13.707 1.46836 13.707 1.03447Z" fill="#D2555A"/>
<path d="M15.5173 2.06883H12.4138V1.55157C12.4138 1.26592 12.6454 1.0343 12.9311 1.0343H15C15.2857 1.0343 15.5173 1.26592 15.5173 1.55157V2.06883Z" fill="#C7CFE2"/>
<path d="M18.6207 2.06895C19.192 2.06895 19.6551 1.6058 19.6551 1.03447C19.6551 0.463149 19.192 0 18.6207 0C18.0493 0 17.5862 0.463149 17.5862 1.03447C17.5862 1.6058 18.0493 2.06895 18.6207 2.06895Z" fill="#FF6464"/>
<path d="M18.362 1.03447C18.362 0.600586 18.6297 0.230273 19.0085 0.0767578C18.8886 0.0280664 18.7581 0 18.6207 0C18.0493 0 17.5862 0.463125 17.5862 1.03447C17.5862 1.60576 18.0493 2.06895 18.6207 2.06895C18.7581 2.06895 18.8887 2.04088 19.0086 1.99219C18.6298 1.83867 18.362 1.46836 18.362 1.03447Z" fill="#D2555A"/>
<path d="M20.1723 2.06883H17.0688V1.55157C17.0688 1.26592 17.3005 1.0343 17.5861 1.0343H19.6551C19.9407 1.0343 20.1723 1.26592 20.1723 1.55157V2.06883Z" fill="#C7CFE2"/>
<path d="M9.31035 2.06895C9.88167 2.06895 10.3448 1.6058 10.3448 1.03447C10.3448 0.463149 9.88167 0 9.31035 0C8.73903 0 8.27588 0.463149 8.27588 1.03447C8.27588 1.6058 8.73903 2.06895 9.31035 2.06895Z" fill="#FF6464"/>
<path d="M9.05172 1.03447C9.05172 0.600586 9.31943 0.230273 9.69824 0.0767578C9.5783 0.0280664 9.4477 0 9.31035 0C8.739 0 8.27588 0.463125 8.27588 1.03447C8.27588 1.60576 8.739 2.06895 9.31035 2.06895C9.44775 2.06895 9.57836 2.04088 9.6983 1.99219C9.31943 1.83867 9.05172 1.46836 9.05172 1.03447Z" fill="#D2555A"/>
<path d="M10.862 2.06883H7.75854V1.55157C7.75854 1.26592 7.99017 1.0343 8.27581 1.0343H10.3448C10.6304 1.0343 10.862 1.26592 10.862 1.55157V2.06883Z" fill="#C7CFE2"/>
<path d="M6.7243 5.17247C6.43865 5.17247 6.20703 4.94085 6.20703 4.65521C6.20703 4.36956 6.43865 4.13794 6.7243 4.13794C7.00994 4.13794 7.24156 4.36956 7.24156 4.65521C7.2415 4.94085 7.00994 5.17247 6.7243 5.17247Z" fill="#FF6464"/>
<path d="M9.82755 5.17247H8.27581C7.99017 5.17247 7.75854 4.94085 7.75854 4.65521C7.75854 4.36956 7.99017 4.13794 8.27581 4.13794H9.82755C10.1132 4.13794 10.3448 4.36956 10.3448 4.65521C10.3448 4.94085 10.1132 5.17247 9.82755 5.17247Z" fill="white"/>
<path d="M18.1034 5.17247C17.8178 5.17247 17.5862 4.94085 17.5862 4.65521C17.5862 4.36956 17.8178 4.13794 18.1034 4.13794C18.3891 4.13794 18.6207 4.36956 18.6207 4.65521C18.6207 4.94085 18.3891 5.17247 18.1034 5.17247Z" fill="#FF6464"/>
<path d="M21.2067 5.17247H19.655C19.3693 5.17247 19.1377 4.94085 19.1377 4.65521C19.1377 4.36956 19.3693 4.13794 19.655 4.13794H21.2067C21.4923 4.13794 21.724 4.36956 21.724 4.65521C21.724 4.94085 21.4923 5.17247 21.2067 5.17247Z" fill="white"/>
<path d="M11.8964 5.17247C11.6108 5.17247 11.3792 4.94085 11.3792 4.65521C11.3792 4.36956 11.6108 4.13794 11.8964 4.13794C12.1821 4.13794 12.4137 4.36956 12.4137 4.65521C12.4137 4.94085 12.1821 5.17247 11.8964 5.17247Z" fill="#FF6464"/>
<path d="M16.0346 5.17247H13.4484C13.1628 5.17247 12.9312 4.94085 12.9312 4.65521C12.9312 4.36956 13.1628 4.13794 13.4484 4.13794H16.0346C16.3203 4.13794 16.5519 4.36956 16.5519 4.65521C16.5519 4.94085 16.3203 5.17247 16.0346 5.17247Z" fill="white"/>
<path d="M18.1034 21.2069H22.2414C22.527 21.2069 22.7587 20.9753 22.7587 20.6897V19.6552C22.7587 19.3696 22.527 19.1379 22.2414 19.1379H18.1034C17.8178 19.1379 17.5862 19.3696 17.5862 19.6552V20.6897C17.5862 20.9753 17.8177 21.2069 18.1034 21.2069Z" fill="#5B5D6E"/>
<path d="M16.5195 20.1725L14.6437 19.0892V19.6552H12.9312V20.6897H14.6437V21.2556L16.5195 20.1725Z" fill="#FFE669"/>
<path d="M11.3796 20.6897C11.6652 20.6897 11.8968 20.4581 11.8968 20.1724C11.8968 19.8867 11.6652 19.6552 11.3796 19.6552C11.0939 19.6552 10.8623 19.8867 10.8623 20.1724C10.8623 20.4581 11.0939 20.6897 11.3796 20.6897Z" fill="#EFF2FA"/>
<path d="M7.24138 20.6897C7.52706 20.6897 7.75864 20.4581 7.75864 20.1724C7.75864 19.8867 7.52706 19.6552 7.24138 19.6552C6.95571 19.6552 6.72412 19.8867 6.72412 20.1724C6.72412 20.4581 6.95571 20.6897 7.24138 20.6897Z" fill="#EFF2FA"/>
<path d="M9.31048 20.6897C9.59616 20.6897 9.82774 20.4581 9.82774 20.1724C9.82774 19.8867 9.59616 19.6552 9.31048 19.6552C9.0248 19.6552 8.79321 19.8867 8.79321 20.1724C8.79321 20.4581 9.0248 20.6897 9.31048 20.6897Z" fill="#EFF2FA"/>
<path d="M5.17254 20.6897C5.45822 20.6897 5.6898 20.4581 5.6898 20.1724C5.6898 19.8867 5.45822 19.6552 5.17254 19.6552C4.88686 19.6552 4.65527 19.8867 4.65527 20.1724C4.65527 20.4581 4.88686 20.6897 5.17254 20.6897Z" fill="#EFF2FA"/>
<path d="M25.3447 30H2.58611C2.30047 30 2.06885 29.7684 2.06885 29.4827V28.9654C2.06885 28.6798 2.30047 28.4482 2.58611 28.4482H25.3447C25.6304 28.4482 25.862 28.6798 25.862 28.9654V29.4827C25.862 29.7684 25.6304 30 25.3447 30Z" fill="#959CB3"/>
<path d="M21.207 30H6.7243C6.43865 30 6.20703 29.7684 6.20703 29.4828V28.4483C6.20703 28.1627 6.43865 27.931 6.7243 27.931H21.207C21.4927 27.931 21.7243 28.1627 21.7243 28.4483V29.4828C21.7243 29.7684 21.4927 30 21.207 30Z" fill="#AFB9D2"/>
</g>
<defs>
<clipPath id="clip0">
<rect width="30" height="30" fill="white"/>
</clipPath>
</defs>
</svg>
