<svg width="30" height="30" viewBox="0 0 30 30" fill="none" xmlns="http://www.w3.org/2000/svg">
<g clip-path="url(#clip0)">
<path d="M16.7565 0.434331C15.7904 -0.0996924 14.2097 -0.0996924 13.2437 0.434331L3.20978 5.98117C2.24374 6.51519 1.45337 7.85523 1.45337 8.95902V21.0748C1.45337 22.1786 2.2438 23.5186 3.20978 24.0527L13.2437 29.5995C14.2097 30.1335 15.7904 30.1335 16.7565 29.5995L26.7904 24.0527C27.7564 23.5186 28.5468 22.1786 28.5468 21.0748V8.95902C28.5468 7.85523 27.7563 6.51519 26.7904 5.98117L16.7565 0.434331Z" fill="#E3E8F4"/>
<path d="M15 29.9998V16.2083C15 15.1127 14.4048 14.1037 13.4461 13.5737L3.26374 7.94479C2.47741 7.51008 1.45999 8.04375 1.45343 8.94223C1.45337 8.9478 1.45337 8.95348 1.45337 8.95905V21.0749C1.45337 22.1787 2.24374 23.5187 3.20972 24.0527L13.2436 29.5995C13.7268 29.8666 14.3636 30.0001 15.0006 30L15 29.9998Z" fill="#C7CFE2"/>
<path d="M14.9999 29.9998V16.2082C14.9999 15.1127 15.595 14.1036 16.5538 13.5737L26.736 7.94479C27.5224 7.51008 28.5398 8.04375 28.5464 8.94223C28.5464 8.9478 28.5464 8.95348 28.5464 8.95905V21.0749C28.5464 22.1787 27.756 23.5187 26.7901 24.0527L16.7563 29.5994C16.2731 29.8665 15.6362 29.9999 14.9993 29.9999L14.9999 29.9998Z" fill="#D7DEED"/>
<path d="M16.8207 13.4271L26.8195 7.89962C27.5679 7.48595 27.5679 6.41011 26.8195 5.99644L16.8207 0.468999C15.6878 -0.15731 14.3125 -0.15731 13.1796 0.468999L3.1807 5.9965C2.43228 6.41017 2.43228 7.48601 3.1807 7.89968L13.1795 13.4272C14.3125 14.0534 15.6878 14.0534 16.8207 13.4271Z" fill="#EFF2FA"/>
<path d="M9.72149 19.6569C9.72149 20.8204 9.01409 21.3552 8.14151 20.8514C7.26887 20.3477 6.56152 18.9961 6.56152 17.8326C6.56152 16.6691 7.26893 16.1343 8.14151 16.6381C9.01409 17.1419 9.72149 18.4935 9.72149 19.6569Z" fill="#5B5D6E"/>
<path d="M8.14139 16.638C7.51033 16.2736 6.96998 16.4585 6.7168 17.0254C6.9241 17.0118 7.15367 17.0632 7.39924 17.2051C8.27187 17.7089 8.97922 19.0604 8.97922 20.224C8.97922 20.5461 8.92068 20.8141 8.82377 21.0311C9.35316 20.9964 9.72143 20.493 9.72143 19.657C9.72137 18.4934 9.01397 17.1419 8.14139 16.638Z" fill="#515262"/>
<path d="M17.0068 25.3183C17.0068 26.4818 17.7142 27.0166 18.5868 26.5128C19.4594 26.009 20.1668 24.6574 20.1668 23.494C20.1668 22.3305 19.4594 21.7957 18.5868 22.2995C17.7142 22.8032 17.0068 24.1548 17.0068 25.3183Z" fill="#707487"/>
<path d="M18.587 22.2993C18.4719 22.3658 18.3603 22.4487 18.252 22.5424C18.7892 22.5686 19.1636 23.0749 19.1636 23.9185C19.1636 24.9285 18.6299 26.0785 17.9185 26.6944C18.1222 26.7044 18.3471 26.6513 18.587 26.5127C19.4596 26.0089 20.1669 24.6573 20.1669 23.4938C20.1671 22.3303 19.4596 21.7955 18.587 22.2993Z" fill="#5B5D6E"/>
<path d="M23.5295 14.2031C23.5295 15.3666 24.2369 15.9014 25.1095 15.3976C25.9822 14.8938 26.6895 13.5423 26.6895 12.3787C26.6895 11.2152 25.9821 10.6804 25.1095 11.1842C24.2369 11.688 23.5295 13.0397 23.5295 14.2031Z" fill="#707487"/>
<path d="M25.1092 11.1844C24.9941 11.2509 24.8825 11.3338 24.7742 11.4274C25.3114 11.4537 25.6858 11.9599 25.6858 12.8035C25.6858 13.8135 25.1521 14.9635 24.4407 15.5794C24.6444 15.5894 24.8693 15.5363 25.1092 15.3977C25.9818 14.8939 26.6892 13.5423 26.6892 12.3788C26.6893 11.2153 25.9819 10.6806 25.1092 11.1844Z" fill="#5B5D6E"/>
<path d="M20.3694 19.7222C20.3694 20.8857 21.0768 21.4205 21.9494 20.9167C22.822 20.4129 23.5293 19.0613 23.5293 17.8978C23.5293 16.7343 22.8219 16.1995 21.9494 16.7033C21.0768 17.2071 20.3694 18.5588 20.3694 19.7222Z" fill="#707487"/>
<path d="M21.9496 16.7033C21.8344 16.7698 21.7228 16.8527 21.6146 16.9463C22.1518 16.9726 22.5261 17.4788 22.5261 18.3225C22.5261 19.3324 21.9925 20.4824 21.281 21.0983C21.4847 21.1083 21.7096 21.0552 21.9495 20.9166C22.8221 20.4128 23.5295 19.0613 23.5295 17.8977C23.5295 16.7342 22.8222 16.1995 21.9496 16.7033Z" fill="#5B5D6E"/>
<path d="M14.9996 8.06149C16.3851 8.06149 17.5082 7.49991 17.5082 6.80717C17.5082 6.11443 16.3851 5.55286 14.9996 5.55286C13.6141 5.55286 12.491 6.11443 12.491 6.80717C12.491 7.49991 13.6141 8.06149 14.9996 8.06149Z" fill="#707487"/>
<path d="M14.9999 5.55273C13.8136 5.55273 12.8255 5.96565 12.5642 6.51889C13.0242 6.23776 13.7149 6.05447 14.4982 6.05447C15.8836 6.05447 17.0068 6.61604 17.0068 7.3088C17.0068 7.40841 16.9777 7.50403 16.9338 7.59696C17.2876 7.38081 17.5085 7.10823 17.5085 6.80706C17.5085 6.1143 16.3855 5.55273 14.9999 5.55273Z" fill="#65687A"/>
<path d="M14.9996 4.54941C16.3851 4.54941 17.5082 3.98783 17.5082 3.29509C17.5082 2.60235 16.3851 2.04077 14.9996 2.04077C13.6141 2.04077 12.491 2.60235 12.491 3.29509C12.491 3.98783 13.6141 4.54941 14.9996 4.54941Z" fill="#707487"/>
<path d="M14.9999 2.04065C13.8136 2.04065 12.8255 2.45356 12.5642 3.0068C13.0242 2.72567 13.7149 2.54239 14.4982 2.54239C15.8836 2.54239 17.0068 3.10395 17.0068 3.7967C17.0068 3.89631 16.9777 3.99193 16.9338 4.08486C17.2876 3.86865 17.5085 3.59613 17.5085 3.29496C17.5085 2.60221 16.3855 2.04065 14.9999 2.04065Z" fill="#65687A"/>
<path d="M14.9996 11.5736C16.3851 11.5736 17.5082 11.012 17.5082 10.3193C17.5082 9.62652 16.3851 9.06494 14.9996 9.06494C13.6141 9.06494 12.491 9.62652 12.491 10.3193C12.491 11.012 13.6141 11.5736 14.9996 11.5736Z" fill="#707487"/>
<path d="M14.9999 9.0647C13.8136 9.0647 12.8255 9.47761 12.5642 10.0309C13.0242 9.74972 13.7149 9.56644 14.4982 9.56644C15.8836 9.56644 17.0068 10.128 17.0068 10.8208C17.0068 10.9204 16.9777 11.016 16.9338 11.1089C17.2876 10.8927 17.5085 10.6202 17.5085 10.319C17.5085 9.62626 16.3855 9.0647 14.9999 9.0647Z" fill="#65687A"/>
<path d="M21.5223 8.06149C22.9078 8.06149 24.0309 7.49991 24.0309 6.80717C24.0309 6.11443 22.9078 5.55286 21.5223 5.55286C20.1368 5.55286 19.0137 6.11443 19.0137 6.80717C19.0137 7.49991 20.1368 8.06149 21.5223 8.06149Z" fill="#707487"/>
<path d="M21.5224 5.55273C20.3361 5.55273 19.3479 5.96565 19.0867 6.51889C19.5467 6.23776 20.2374 6.05447 21.0206 6.05447C22.4061 6.05447 23.5292 6.61604 23.5292 7.3088C23.5292 7.40841 23.5002 7.50403 23.4563 7.59696C23.81 7.38081 24.031 7.10823 24.031 6.80706C24.031 6.1143 22.9079 5.55273 21.5224 5.55273Z" fill="#65687A"/>
<path d="M8.47739 8.06149C9.86287 8.06149 10.986 7.49991 10.986 6.80717C10.986 6.11443 9.86287 5.55286 8.47739 5.55286C7.09191 5.55286 5.96875 6.11443 5.96875 6.80717C5.96875 7.49991 7.09191 8.06149 8.47739 8.06149Z" fill="#707487"/>
<path d="M8.47743 5.55273C7.29114 5.55273 6.30302 5.96565 6.04175 6.51889C6.50177 6.23776 7.19247 6.05447 7.97569 6.05447C9.36114 6.05447 10.4843 6.61604 10.4843 7.3088C10.4843 7.40841 10.4553 7.50403 10.4114 7.59696C10.7651 7.38081 10.9861 7.10823 10.9861 6.80706C10.9861 6.1143 9.86294 5.55273 8.47743 5.55273Z" fill="#65687A"/>
</g>
<defs>
<clipPath id="clip0">
<rect width="30" height="30" fill="white"/>
</clipPath>
</defs>
</svg>
