<svg width="30" height="30" viewBox="0 0 30 30" fill="none" xmlns="http://www.w3.org/2000/svg">
<g clip-path="url(#clip0)">
<path d="M21.1799 15.6372L20.6115 15.3637V12.1353L21.1799 11.8618L23.2619 12.0701L28.5409 7.10912L20.7454 8.43893L19.9221 10.0457L19.3227 10.3341L15.9979 8.73425V8.15746L17.2558 6.75902L14.7393 0.468079L12.2228 6.75888L13.4814 8.15731V8.79131L10.2165 10.3626L9.55728 10.0456L8.73329 8.43879L0.937012 7.10905L6.2166 12.07L8.29858 11.8617L8.98792 12.1936V15.3053L8.29858 15.6371L6.2166 15.4288L0.937012 20.3898L8.73312 19.0612L9.55711 17.4533L10.2163 17.1363L13.4812 18.7076V19.3414L12.2226 20.7399L14.7391 27.0309L17.2557 20.7399L15.9977 19.3414V18.7648L19.3225 17.1648L19.9219 17.4533L20.7452 19.0601L28.5407 20.3898L23.2618 15.4288L21.1799 15.6372ZM14.8065 15.3122C13.7711 15.3122 12.932 14.6129 12.932 13.75C12.932 12.886 13.771 12.1867 14.8065 12.1867C15.842 12.1867 16.6817 12.886 16.6817 13.75C16.6818 14.6129 15.842 15.3122 14.8065 15.3122Z" fill="#F6BB42"/>
<path d="M14.74 27.8126C14.337 27.8126 13.9785 27.5963 13.8508 27.2781L11.3343 20.9861C11.2368 20.7435 11.2889 20.4756 11.4737 20.2708L12.4961 19.1345L10.2653 18.0621L9.5965 19.3678C9.47565 19.6035 9.22366 19.774 8.92219 19.8255L1.12608 21.1553C0.730569 21.2229 0.328199 21.0718 0.126311 20.7811C-0.0755767 20.4893 -0.0309275 20.1231 0.236879 19.8713L5.51646 14.9104C5.72037 14.7181 6.02457 14.622 6.33008 14.6529L8.05153 14.8257V12.673L6.33008 12.8458C6.02457 12.8767 5.72037 12.7805 5.51646 12.5883L0.236704 7.62744C-0.0311033 7.37563 -0.0757525 7.00949 0.126135 6.71879C0.328023 6.42698 0.730393 6.27588 1.12591 6.34341L8.92202 7.67322C9.22348 7.72471 9.47547 7.89522 9.59632 8.13099L10.2651 9.43677L12.496 8.36442L11.4735 7.22797C11.2888 7.02319 11.2367 6.75533 11.3341 6.51275L13.8506 0.220785C13.9784 -0.0973845 14.3368 -0.3125 14.7399 -0.3125C15.1436 -0.3125 15.502 -0.0973112 15.6291 0.220785L18.1456 6.51275C18.243 6.75533 18.1909 7.02319 18.0062 7.22797L17.0201 8.32318L19.2387 9.39092L19.8842 8.13092C20.005 7.89515 20.257 7.72464 20.5585 7.67315L28.3533 6.34334C28.7488 6.27581 29.1526 6.42691 29.3544 6.71871C29.5549 7.00942 29.511 7.37556 29.2432 7.62737L23.9642 12.5884C23.7596 12.7806 23.4561 12.8768 23.1505 12.8459L21.5492 12.6856V14.8131L23.1505 14.6528C23.4561 14.6219 23.7596 14.7181 23.9642 14.9103L29.2171 19.8472C29.3805 19.9868 29.4807 20.1791 29.4807 20.3897C29.4807 20.8108 29.0811 21.1542 28.5813 21.1701C28.5058 21.1736 28.4302 21.1679 28.3533 21.1553L20.5585 19.8255C20.257 19.774 20.005 19.6035 19.8842 19.3677L19.2387 18.1078L17.0201 19.1756L18.0062 20.2706C18.1909 20.4755 18.243 20.7433 18.1456 20.9859L15.6291 27.278C15.5021 27.5963 15.1437 27.8126 14.74 27.8126ZM13.2685 20.8808L14.74 24.5601L16.2122 20.8808L15.2482 19.8107C15.1267 19.6746 15.0607 19.5109 15.0607 19.3415V18.7649C15.0607 18.4857 15.2393 18.2282 15.5297 18.0886L18.8544 16.4886C19.1449 16.349 19.5019 16.349 19.7924 16.4886L20.3911 16.7771C20.5669 16.8617 20.7049 16.9911 20.7845 17.1467L21.4156 18.377L25.975 19.1552L22.8871 16.2529L21.2926 16.4132C21.0915 16.4338 20.8875 16.3983 20.7118 16.3137L20.1433 16.0402C19.8528 15.9006 19.6743 15.643 19.6743 15.3638V12.1354C19.6743 11.8562 19.8528 11.5987 20.1433 11.4591L20.7118 11.1856C20.8875 11.1009 21.0915 11.0655 21.2926 11.0861L22.8871 11.2462L25.975 8.34406L21.4156 9.12227L20.7845 10.3525C20.7049 10.5081 20.5669 10.6375 20.3911 10.7221L19.7924 11.0106C19.5026 11.1502 19.1449 11.1502 18.8551 11.0106L15.5297 9.4107C15.24 9.2711 15.0607 9.01357 15.0607 8.73437V8.15758C15.0607 7.98824 15.1267 7.82454 15.2482 7.68838L16.2122 6.61837L14.74 2.93914L13.2685 6.61837L14.2318 7.68838C14.3534 7.82454 14.4193 7.98824 14.4193 8.15758V8.79157C14.4193 9.07078 14.2408 9.32947 13.9503 9.46907L10.6854 11.0392C10.3956 11.1788 10.0386 11.1788 9.74811 11.0392L9.08892 10.7222C8.91314 10.6375 8.77515 10.5082 8.69543 10.3525L8.06516 9.12234L3.50514 8.34413L6.59297 11.2463L8.18741 11.0861C8.3886 11.0656 8.59251 11.101 8.76829 11.1857L9.45772 11.5164C9.7475 11.656 9.92671 11.9147 9.92671 12.1939V15.3056C9.92671 15.5848 9.7475 15.8435 9.45772 15.9831L8.7682 16.3135C8.59242 16.3982 8.38851 16.4337 8.18733 16.4131L6.59288 16.2528L3.50506 19.1551L8.06507 18.3769L8.69534 17.1466C8.77497 16.9909 8.91305 16.8616 9.08883 16.7769L9.74802 16.4599C10.0385 16.3203 10.3955 16.3203 10.686 16.4599L13.9503 18.0301C14.2408 18.1697 14.4193 18.4284 14.4193 18.7076V19.3415C14.4193 19.5108 14.3534 19.6745 14.2318 19.8107L13.2685 20.8808Z" fill="#FFCE54"/>
<path d="M14.8067 16.0938C13.2563 16.0938 11.9941 15.0421 11.9941 13.75C11.9941 12.4569 13.2562 11.4062 14.8067 11.4062C16.3578 11.4062 17.6192 12.4569 17.6192 13.75C17.6192 15.0421 16.3578 16.0938 14.8067 16.0938ZM14.8067 12.9685C14.2896 12.9685 13.8694 13.3186 13.8694 13.7501C13.8694 14.1804 14.2896 14.5306 14.8067 14.5306C15.3238 14.5306 15.7447 14.1804 15.7447 13.7501C15.7447 13.3186 15.3238 12.9685 14.8067 12.9685Z" fill="#FFCE54"/>
</g>
<defs>
<clipPath id="clip0">
<rect width="30" height="30" fill="white"/>
</clipPath>
</defs>
</svg>
