<svg width="30" height="30" viewBox="0 0 30 30" fill="none" xmlns="http://www.w3.org/2000/svg">
<path d="M15 29.9999C23.2842 29.9999 29.9999 23.2842 29.9999 15C29.9999 6.71571 23.2842 0 15 0C6.71571 0 0 6.71571 0 15C0 23.2842 6.71571 29.9999 15 29.9999Z" fill="#FFC10E"/>
<path d="M10.4405 12.1819C11.7415 12.1819 12.7963 11.1272 12.7963 9.82617C12.7963 8.52511 11.7415 7.4704 10.4405 7.4704C9.13943 7.4704 8.08472 8.52511 8.08472 9.82617C8.08472 11.1272 9.13943 12.1819 10.4405 12.1819Z" fill="#333333"/>
<path d="M19.3487 12.1819C20.6497 12.1819 21.7045 11.1272 21.7045 9.82617C21.7045 8.52511 20.6497 7.4704 19.3487 7.4704C18.0476 7.4704 16.9929 8.52511 16.9929 9.82617C16.9929 11.1272 18.0476 12.1819 19.3487 12.1819Z" fill="#333333"/>
<path d="M21.7281 20.0573C17.9756 23.8761 11.938 23.846 8.21677 20.0004C7.68505 19.4507 6.84848 20.2891 7.3795 20.8377C11.5427 25.1402 18.3712 25.1636 22.5655 20.8945C23.1009 20.3495 22.2639 19.5118 21.7281 20.0573Z" fill="#333333"/>
</svg>
