<svg width="30" height="30" viewBox="0 0 30 30" fill="none" xmlns="http://www.w3.org/2000/svg">
<path d="M29.3183 8.86353V13.6362L10.9092 27.9544H0.681885V25.2271H6.13644V21.1362H11.591V17.0453H17.0455V12.9544H22.5001V8.86353H29.3183Z" fill="#FAA85F"/>
<path d="M29.3182 8.18169H25.9091V2.04534C25.9091 1.7849 25.7604 1.54695 25.5259 1.4324C25.2921 1.31919 25.0131 1.34714 24.8072 1.5081L2.9891 18.5535C2.8241 18.6831 2.7273 18.8815 2.7273 19.0908V24.5453H0.681797C0.304746 24.5453 0 24.8508 0 25.2271V27.9544C0 28.3307 0.304746 28.6362 0.681797 28.6362H10.909C11.0611 28.6362 11.2077 28.5857 11.3277 28.493L29.7368 14.1748C29.9025 14.0459 30 13.8468 30 13.6361V8.86337C30 8.48714 29.6953 8.18169 29.3182 8.18169ZM4.0909 19.4235L24.5454 3.44374V8.18239H22.5C22.1229 8.18239 21.8182 8.48784 21.8182 8.86419V12.2733H17.0454C16.6684 12.2733 16.3637 12.5787 16.3637 12.9551V16.3642H11.5909C11.2138 16.3642 10.9091 16.6696 10.9091 17.046V20.4551H6.13635C5.7593 20.4551 5.45455 20.7605 5.45455 21.1369V24.546H4.0909V19.4235ZM28.6363 13.3028L10.6753 27.2726H1.36365V25.909H6.13641C6.51346 25.909 6.8182 25.6035 6.8182 25.2272V21.8181H11.591C11.968 21.8181 12.2728 21.5126 12.2728 21.1363V17.7272H17.0455C17.4226 17.7272 17.7273 17.4218 17.7273 17.0454V13.6363H22.5C22.8771 13.6363 23.1818 13.3309 23.1818 12.9545V9.5454H28.6363V13.3028Z" fill="#00384E"/>
</svg>
