<svg width="30" height="30" viewBox="0 0 30 30" fill="none" xmlns="http://www.w3.org/2000/svg">
<path d="M7.24146 9.31035H22.7587V5.6897H7.24146V9.31035Z" fill="#9EADB7"/>
<path d="M22.7587 5.68964H7.24143L5.6897 2.58618H24.3103L22.7587 5.68964Z" fill="#C8D2DA"/>
<path d="M5.6897 2.58622H7.75862V0H5.6897V2.58622Z" fill="#9EADB7"/>
<path d="M9.82739 2.58622H11.8964V0H9.82739V2.58622Z" fill="#9EADB7"/>
<path d="M18.1035 2.58622H20.1725V0H18.1035V2.58622Z" fill="#9EADB7"/>
<path d="M13.9656 2.58622H16.0346V0H13.9656V2.58622Z" fill="#9EADB7"/>
<path d="M22.2415 2.58622H24.3104V0H22.2415V2.58622Z" fill="#9EADB7"/>
<path d="M9.82755 9.82767C9.54151 9.82767 9.3103 9.59593 9.3103 9.31043V7.7587C9.3103 7.4732 9.54151 7.24146 9.82755 7.24146C10.1136 7.24146 10.3448 7.4732 10.3448 7.7587V9.31043C10.3448 9.59599 10.1136 9.82767 9.82755 9.82767Z" fill="#C8D2DA"/>
<path d="M1.55167 22.7588C1.26563 22.7588 1.03442 22.5271 1.03442 22.2416V20.6898C1.03442 20.4043 1.26563 20.1726 1.55167 20.1726C1.83771 20.1726 2.06891 20.4043 2.06891 20.6898V22.2416C2.06891 22.5271 1.83771 22.7588 1.55167 22.7588Z" fill="#C8D2DA"/>
<path d="M3.62076 22.7588C3.33472 22.7588 3.10352 22.5271 3.10352 22.2416V20.6898C3.10352 20.4043 3.33472 20.1726 3.62076 20.1726C3.9068 20.1726 4.138 20.4043 4.138 20.6898V22.2416C4.138 22.5271 3.9068 22.7588 3.62076 22.7588Z" fill="#C8D2DA"/>
<path d="M5.68961 22.7588C5.40357 22.7588 5.17236 22.5271 5.17236 22.2416V20.6898C5.17236 20.4043 5.40357 20.1726 5.68961 20.1726C5.97565 20.1726 6.20685 20.4043 6.20685 20.6898V22.2416C6.20685 22.5271 5.97565 22.7588 5.68961 22.7588Z" fill="#C8D2DA"/>
<path d="M24.3102 22.7588C24.0242 22.7588 23.793 22.5271 23.793 22.2416V20.6898C23.793 20.4043 24.0242 20.1726 24.3102 20.1726C24.5963 20.1726 24.8275 20.4043 24.8275 20.6898V22.2416C24.8275 22.5271 24.5963 22.7588 24.3102 22.7588Z" fill="#C8D2DA"/>
<path d="M26.3793 22.7588C26.0933 22.7588 25.8621 22.5271 25.8621 22.2416V20.6898C25.8621 20.4043 26.0933 20.1726 26.3793 20.1726C26.6653 20.1726 26.8965 20.4043 26.8965 20.6898V22.2416C26.8965 22.5271 26.6653 22.7588 26.3793 22.7588Z" fill="#C8D2DA"/>
<path d="M28.4484 22.7588C28.1624 22.7588 27.9312 22.5271 27.9312 22.2416V20.6898C27.9312 20.4043 28.1624 20.1726 28.4484 20.1726C28.7344 20.1726 28.9656 20.4043 28.9656 20.6898V22.2416C28.9656 22.5271 28.7344 22.7588 28.4484 22.7588Z" fill="#C8D2DA"/>
<path d="M12.4137 9.82767C12.1277 9.82767 11.8965 9.59593 11.8965 9.31043V7.7587C11.8965 7.4732 12.1277 7.24146 12.4137 7.24146C12.6998 7.24146 12.931 7.4732 12.931 7.7587V9.31043C12.931 9.59599 12.6998 9.82767 12.4137 9.82767Z" fill="#C8D2DA"/>
<path d="M14.9999 9.82767C14.7139 9.82767 14.4827 9.59593 14.4827 9.31043V7.7587C14.4827 7.4732 14.7139 7.24146 14.9999 7.24146C15.2859 7.24146 15.5172 7.4732 15.5172 7.7587V9.31043C15.5172 9.59599 15.2859 9.82767 14.9999 9.82767Z" fill="#C8D2DA"/>
<path d="M17.5861 9.82767C17.3001 9.82767 17.0688 9.59593 17.0688 9.31043V7.7587C17.0688 7.4732 17.3001 7.24146 17.5861 7.24146C17.8721 7.24146 18.1033 7.4732 18.1033 7.7587V9.31043C18.1033 9.59599 17.8721 9.82767 17.5861 9.82767Z" fill="#C8D2DA"/>
<path d="M20.1725 9.82767C19.8865 9.82767 19.6553 9.59593 19.6553 9.31043V7.7587C19.6553 7.4732 19.8865 7.24146 20.1725 7.24146C20.4586 7.24146 20.6898 7.4732 20.6898 7.7587V9.31043C20.6898 9.59599 20.4586 9.82767 20.1725 9.82767Z" fill="#C8D2DA"/>
<path d="M0 29.9999H7.24141V22.2413H0V29.9999Z" fill="#9EADB7"/>
<path d="M22.7585 29.9999H29.9999V22.2413H22.7585V29.9999Z" fill="#9EADB7"/>
<path d="M7.24146 30H22.7587V9.3103H7.24146V30Z" fill="#C8D2DA"/>
<path d="M16.552 29.9999H13.4485V24.8275C13.4485 23.9704 14.1432 23.2758 15.0002 23.2758C15.8573 23.2758 16.552 23.9704 16.552 24.8275V29.9999Z" fill="#9EADB7"/>
<path d="M16.0346 19.138H13.9656V16.0345C13.9656 15.4629 14.4285 15 15.0001 15C15.5716 15 16.0346 15.4629 16.0346 16.0345V19.138Z" fill="#9EADB7"/>
<path d="M11.3795 22.2415H9.31055V19.138C9.31055 18.5665 9.77349 18.1035 10.345 18.1035C10.9166 18.1035 11.3795 18.5665 11.3795 19.138V22.2415Z" fill="#9EADB7"/>
<path d="M20.6898 15.5172H18.6208V12.4138C18.6208 11.8422 19.0838 11.3793 19.6553 11.3793C20.2269 11.3793 20.6898 11.8422 20.6898 12.4138V15.5172Z" fill="#9EADB7"/>
<path d="M13.4485 12.4138H11.3795C11.0935 12.4138 10.8623 12.182 10.8623 11.8965C10.8623 11.611 11.0935 11.3793 11.3795 11.3793H13.4485C13.7346 11.3793 13.9658 11.611 13.9658 11.8965C13.9658 12.182 13.7346 12.4138 13.4485 12.4138Z" fill="#9EADB7"/>
<path d="M8.79321 11.8965C8.79321 11.611 9.02495 11.3793 9.31046 11.3793C9.59596 11.3793 9.8277 11.611 9.8277 11.8965C9.8277 12.182 9.59596 12.4138 9.31046 12.4138C9.02495 12.4138 8.79321 12.182 8.79321 11.8965Z" fill="#9EADB7"/>
<path d="M18.6209 21.7242H16.5519C16.2659 21.7242 16.0347 21.4924 16.0347 21.2069C16.0347 20.9214 16.2659 20.6897 16.5519 20.6897H18.6209C18.9069 20.6897 19.1381 20.9214 19.1381 21.2069C19.1381 21.4924 18.9069 21.7242 18.6209 21.7242Z" fill="#9EADB7"/>
<path d="M21.2071 21.2069C21.2071 21.4924 20.9754 21.7242 20.6898 21.7242C20.4043 21.7242 20.1726 21.4924 20.1726 21.2069C20.1726 20.9214 20.4043 20.6897 20.6898 20.6897C20.9754 20.6897 21.2071 20.9214 21.2071 21.2069Z" fill="#9EADB7"/>
</svg>
