<svg width="30" height="30" viewBox="0 0 30 30" fill="none" xmlns="http://www.w3.org/2000/svg">
<g clip-path="url(#clip0)">
<path d="M21.7805 1.01732C21.9049 1.00613 22.0318 1.0506 22.1214 1.14008C22.2111 1.22978 22.2561 1.35482 22.2441 1.48109C21.9029 5.05964 19.0521 7.90419 15.4657 8.24444C15.4521 8.24567 15.4387 8.24649 15.4254 8.24649C15.313 8.24649 15.2046 8.20202 15.1247 8.12186C15.035 8.03215 14.9899 7.90711 15.0019 7.78085C15.3431 4.20183 18.1938 1.35752 21.7805 1.01732Z" fill="#A5EB78"/>
<path d="M15.4658 8.24438C15.4522 8.24561 15.4388 8.24643 15.4255 8.24643C15.3131 8.24643 15.2047 8.20196 15.1248 8.1218L22.1123 1.13428C22.115 1.1368 22.1189 1.13744 22.1215 1.14002C22.2112 1.22973 22.2563 1.35477 22.2443 1.48103C21.903 5.0597 19.0522 7.90424 15.4658 8.24438Z" fill="#8CD76E"/>
<path d="M7.83482 0.0017649C7.67486 -0.0126491 7.51174 0.0444797 7.3966 0.159558C7.28123 0.274928 7.22328 0.435709 7.23881 0.598014C7.6775 5.19902 11.3429 8.85632 15.954 9.29372C15.9713 9.29536 15.9887 9.29636 16.0058 9.29636C16.1503 9.29636 16.2896 9.23923 16.3925 9.13616C16.5079 9.02079 16.5658 8.86001 16.5503 8.69771C16.1115 4.09623 12.4463 0.439225 7.83482 0.0017649Z" fill="#A5EB78"/>
<path d="M15.954 9.29413C15.9713 9.29577 15.9887 9.29677 16.0058 9.29677C16.1503 9.29677 16.2896 9.23964 16.3925 9.13657L7.40838 0.152588C7.40492 0.155869 7.39994 0.156689 7.3966 0.160029C7.28123 0.2754 7.22328 0.436181 7.23881 0.598485C7.67756 5.19949 11.3428 8.85679 15.954 9.29413Z" fill="#8CD76E"/>
<path d="M16.5528 9.8144C16.4204 9.8144 16.2878 9.76389 16.1868 9.66282L9.97587 3.45195C9.77367 3.24986 9.77367 2.92215 9.97587 2.71994C10.178 2.51791 10.5057 2.51791 10.7078 2.71994L16.9187 8.93081C17.1209 9.13302 17.1209 9.46061 16.9187 9.66282C16.8176 9.76389 16.6852 9.8144 16.5528 9.8144Z" fill="#73BE73"/>
<path d="M15.5176 8.26165C15.3852 8.26165 15.2527 8.21114 15.1517 8.11007C14.9494 7.90786 14.9494 7.58027 15.1517 7.37806L18.7747 3.75504C18.9767 3.55301 19.3045 3.55301 19.5066 3.75504C19.7088 3.95725 19.7088 4.28484 19.5066 4.48705L15.8835 8.11007C15.7825 8.21114 15.6501 8.26165 15.5176 8.26165Z" fill="#73BE73"/>
<path d="M24.834 15.7003C24.834 21.7957 19.6345 30 15 30C10.3655 30 5.16602 21.7957 5.16602 15.7003C5.16602 9.60499 9.56886 7.22644 15 7.22644C20.4312 7.22644 24.834 9.60499 24.834 15.7003Z" fill="#FF6464"/>
<path d="M13.4472 10.332C13.1614 10.332 12.9297 10.1003 12.9297 9.81445V8.77928C12.9297 8.49346 13.1614 8.26172 13.4472 8.26172C13.7331 8.26172 13.9648 8.49346 13.9648 8.77928V9.81439C13.9649 10.1002 13.7331 10.332 13.4472 10.332Z" fill="#D2555A"/>
<path d="M11.8945 13.4375C11.6087 13.4375 11.377 13.2057 11.377 12.9199V11.8847C11.377 11.5989 11.6087 11.3672 11.8945 11.3672C12.1803 11.3672 12.4121 11.5989 12.4121 11.8847V12.9199C12.4121 13.2057 12.1804 13.4375 11.8945 13.4375Z" fill="#D2555A"/>
<path d="M11.8945 19.6484C11.6087 19.6484 11.377 19.4166 11.377 19.1308V18.0956C11.377 17.8098 11.6087 17.5781 11.8945 17.5781C12.1803 17.5781 12.4121 17.8098 12.4121 18.0956V19.1308C12.4121 19.4167 12.1804 19.6484 11.8945 19.6484Z" fill="#D2555A"/>
<path d="M13.4472 28.9648C13.1614 28.9648 12.9297 28.733 12.9297 28.4472V27.412C12.9297 27.1262 13.1614 26.8945 13.4472 26.8945C13.7331 26.8945 13.9648 27.1262 13.9648 27.412V28.4472C13.9649 28.7331 13.7331 28.9648 13.4472 28.9648Z" fill="#D2555A"/>
<path d="M11.377 15.7003C11.377 10.361 13.7776 7.87414 16.9668 7.33929C16.3313 7.26353 15.6737 7.2265 15 7.2265C9.56887 7.2265 5.16602 9.60499 5.16602 15.7004C5.16602 21.7958 10.3655 30 15 30C15.3051 30 15.6129 29.9623 15.9212 29.8942C13.0204 28.9267 11.377 21.3944 11.377 15.7003Z" fill="#D2555A"/>
<path d="M15.0002 13.4375C14.7144 13.4375 14.4827 13.2057 14.4827 12.9199V11.8847C14.4827 11.5989 14.7144 11.3672 15.0002 11.3672C15.286 11.3672 15.5178 11.5989 15.5178 11.8847V12.9199C15.5178 13.2057 15.286 13.4375 15.0002 13.4375Z" fill="#D2555A"/>
<path d="M18.1054 13.4375C17.8196 13.4375 17.5879 13.2057 17.5879 12.9199V11.8847C17.5879 11.5989 17.8196 11.3672 18.1054 11.3672C18.3913 11.3672 18.623 11.5989 18.623 11.8847V12.9199C18.623 13.2057 18.3913 13.4375 18.1054 13.4375Z" fill="#D2555A"/>
<path d="M21.2112 13.4375C20.9253 13.4375 20.6936 13.2057 20.6936 12.9199V11.8847C20.6936 11.5989 20.9253 11.3672 21.2112 11.3672C21.497 11.3672 21.7287 11.5989 21.7287 11.8847V12.9199C21.7287 13.2057 21.497 13.4375 21.2112 13.4375Z" fill="#D2555A"/>
<path d="M8.78904 13.4375C8.50322 13.4375 8.27148 13.2058 8.27148 12.92V11.8848C8.27148 11.599 8.50322 11.3672 8.78904 11.3672C9.07486 11.3672 9.3066 11.599 9.3066 11.8848V12.9199C9.30666 13.2058 9.07486 13.4375 8.78904 13.4375Z" fill="#C04150"/>
<path d="M15 19.6484C14.7142 19.6484 14.4824 19.4167 14.4824 19.1309V18.0957C14.4824 17.8099 14.7142 17.5781 15 17.5781C15.2858 17.5781 15.5175 17.8099 15.5175 18.0957V19.1309C15.5175 19.4167 15.2858 19.6484 15 19.6484Z" fill="#D2555A"/>
<path d="M18.1054 19.6484C17.8196 19.6484 17.5879 19.4167 17.5879 19.1309V18.0957C17.5879 17.8099 17.8196 17.5781 18.1054 17.5781C18.3913 17.5781 18.623 17.8099 18.623 18.0957V19.1309C18.623 19.4167 18.3913 19.6484 18.1054 19.6484Z" fill="#D2555A"/>
<path d="M21.2109 19.6484C20.9251 19.6484 20.6934 19.4167 20.6934 19.1309V18.0957C20.6934 17.8099 20.9251 17.5781 21.2109 17.5781C21.4967 17.5781 21.7285 17.8099 21.7285 18.0957V19.1309C21.7285 19.4167 21.4967 19.6484 21.2109 19.6484Z" fill="#D2555A"/>
<path d="M8.78904 19.6484C8.50322 19.6484 8.27148 19.4167 8.27148 19.1309V18.0957C8.27148 17.8099 8.50322 17.5781 8.78904 17.5781C9.07486 17.5781 9.3066 17.8099 9.3066 18.0957V19.1309C9.30666 19.4167 9.07486 19.6484 8.78904 19.6484Z" fill="#C04150"/>
<path d="M16.5527 16.5429C16.2669 16.5429 16.0352 16.3112 16.0352 16.0254V14.9902C16.0352 14.7044 16.2669 14.4727 16.5527 14.4727C16.8385 14.4727 17.0703 14.7044 17.0703 14.9902V16.0254C17.0703 16.3113 16.8385 16.5429 16.5527 16.5429Z" fill="#D2555A"/>
<path d="M19.6582 16.5429C19.3724 16.5429 19.1406 16.3112 19.1406 16.0254V14.9902C19.1406 14.7044 19.3724 14.4727 19.6582 14.4727C19.944 14.4727 20.1757 14.7044 20.1757 14.9902V16.0254C20.1757 16.3113 19.944 16.5429 19.6582 16.5429Z" fill="#D2555A"/>
<path d="M22.7637 16.5429C22.4778 16.5429 22.2461 16.3112 22.2461 16.0254V14.9902C22.2461 14.7044 22.4778 14.4727 22.7637 14.4727C23.0495 14.4727 23.2812 14.7044 23.2812 14.9902V16.0254C23.2812 16.3113 23.0495 16.5429 22.7637 16.5429Z" fill="#D2555A"/>
<path d="M10.3418 16.5429C10.056 16.5429 9.82422 16.3112 9.82422 16.0254V14.9902C9.82422 14.7044 10.056 14.4727 10.3418 14.4727C10.6276 14.4727 10.8593 14.7044 10.8593 14.9902V16.0254C10.8594 16.3113 10.6277 16.5429 10.3418 16.5429Z" fill="#C04150"/>
<path d="M13.4472 16.5429C13.1614 16.5429 12.9297 16.3112 12.9297 16.0254V14.9902C12.9297 14.7044 13.1614 14.4727 13.4472 14.4727C13.7331 14.4727 13.9648 14.7044 13.9648 14.9902V16.0254C13.9649 16.3113 13.7331 16.5429 13.4472 16.5429Z" fill="#D2555A"/>
<path d="M7.2363 16.5429C6.95049 16.5429 6.71875 16.3112 6.71875 16.0254V14.9902C6.71875 14.7044 6.95049 14.4727 7.2363 14.4727C7.52212 14.4727 7.75386 14.7044 7.75386 14.9902V16.0254C7.75391 16.3113 7.52212 16.5429 7.2363 16.5429Z" fill="#C04150"/>
<path d="M16.5527 10.3321C16.2669 10.3321 16.0352 10.1003 16.0352 9.81451V8.77934C16.0352 8.49352 16.2669 8.26178 16.5527 8.26178C16.8385 8.26178 17.0703 8.49352 17.0703 8.77934V9.81445C17.0703 10.1003 16.8385 10.3321 16.5527 10.3321Z" fill="#D2555A"/>
<path d="M19.6582 10.3321C19.3724 10.3321 19.1406 10.1003 19.1406 9.81451V8.77934C19.1406 8.49352 19.3724 8.26178 19.6582 8.26178C19.944 8.26178 20.1757 8.49352 20.1757 8.77934V9.81445C20.1757 10.1003 19.944 10.3321 19.6582 10.3321Z" fill="#D2555A"/>
<path d="M10.3418 10.3321C10.056 10.3321 9.82422 10.1003 9.82422 9.81451V8.77934C9.82422 8.49352 10.056 8.26178 10.3418 8.26178C10.6276 8.26178 10.8593 8.49352 10.8593 8.77934V9.81445C10.8594 10.1003 10.6277 10.3321 10.3418 10.3321Z" fill="#C04150"/>
<path d="M15 25.8593C14.7142 25.8593 14.4824 25.6276 14.4824 25.3417V24.3066C14.4824 24.0207 14.7142 23.789 15 23.789C15.2858 23.789 15.5175 24.0207 15.5175 24.3066V25.3417C15.5175 25.6276 15.2858 25.8593 15 25.8593Z" fill="#D2555A"/>
<path d="M18.1054 25.8593C17.8196 25.8593 17.5879 25.6276 17.5879 25.3417V24.3066C17.5879 24.0207 17.8196 23.789 18.1054 23.789C18.3913 23.789 18.623 24.0207 18.623 24.3066V25.3417C18.623 25.6276 18.3913 25.8593 18.1054 25.8593Z" fill="#D2555A"/>
<path d="M11.8945 25.8593C11.6087 25.8593 11.377 25.6276 11.377 25.3417V24.3066C11.377 24.0207 11.6087 23.789 11.8945 23.789C12.1803 23.789 12.4121 24.0207 12.4121 24.3066V25.3417C12.4121 25.6276 12.1804 25.8593 11.8945 25.8593Z" fill="#C04150"/>
<path d="M16.5527 28.9648C16.2669 28.9648 16.0352 28.733 16.0352 28.4472V27.412C16.0352 27.1262 16.2669 26.8945 16.5527 26.8945C16.8385 26.8945 17.0703 27.1262 17.0703 27.412V28.4472C17.0703 28.7331 16.8385 28.9648 16.5527 28.9648Z" fill="#D2555A"/>
<path d="M16.5527 22.7538C16.2669 22.7538 16.0352 22.5221 16.0352 22.2363V21.2011C16.0352 20.9153 16.2669 20.6835 16.5527 20.6835C16.8385 20.6835 17.0703 20.9153 17.0703 21.2011V22.2363C17.0703 22.5221 16.8385 22.7538 16.5527 22.7538Z" fill="#D2555A"/>
<path d="M19.6582 22.7538C19.3724 22.7538 19.1406 22.5221 19.1406 22.2363V21.2011C19.1406 20.9153 19.3724 20.6835 19.6582 20.6835C19.944 20.6835 20.1757 20.9153 20.1757 21.2011V22.2363C20.1757 22.5221 19.944 22.7538 19.6582 22.7538Z" fill="#D2555A"/>
<path d="M10.3418 22.7538C10.056 22.7538 9.82422 22.5221 9.82422 22.2363V21.2011C9.82422 20.9153 10.056 20.6835 10.3418 20.6835C10.6276 20.6835 10.8593 20.9153 10.8593 21.2011V22.2363C10.8594 22.5221 10.6277 22.7538 10.3418 22.7538Z" fill="#C04150"/>
<path d="M13.4472 22.7538C13.1614 22.7538 12.9297 22.5221 12.9297 22.2363V21.2011C12.9297 20.9153 13.1614 20.6835 13.4472 20.6835C13.7331 20.6835 13.9648 20.9153 13.9648 21.2011V22.2363C13.9649 22.5221 13.7331 22.7538 13.4472 22.7538Z" fill="#D2555A"/>
<path d="M22.7637 10.332C22.8738 10.332 22.9704 10.29 23.0543 10.2313C22.8077 9.93959 22.5355 9.67475 22.2461 9.42871V9.81449C22.2461 10.1002 22.4778 10.332 22.7637 10.332Z" fill="#D2555A"/>
<path d="M6.9458 10.2311C7.02971 10.2899 7.12627 10.3319 7.23648 10.3319C7.5223 10.3319 7.75404 10.1002 7.75404 9.81437V9.42865C7.46453 9.67468 7.19242 9.93959 6.9458 10.2311Z" fill="#C04150"/>
<path d="M5.68362 13.4375C5.96944 13.4375 6.20118 13.2058 6.20118 12.92V11.8848C6.20118 11.7573 6.14991 11.6445 6.07345 11.5543C5.79595 12.0983 5.5771 12.698 5.42505 13.3584C5.50233 13.4041 5.58735 13.4375 5.68362 13.4375Z" fill="#C04150"/>
<path d="M5.77586 19.6298C6.01598 19.5849 6.20119 19.3839 6.20119 19.1309V18.0957C6.20119 17.8099 5.96945 17.5781 5.68363 17.5781C5.55057 17.5781 5.43203 17.632 5.34033 17.7144C5.44305 18.3466 5.58988 18.9879 5.77586 19.6298Z" fill="#C04150"/>
<path d="M7.2363 20.6836C6.95049 20.6836 6.71875 20.9153 6.71875 21.2012V22.1864C6.78766 22.3399 6.85908 22.4919 6.93174 22.6436C7.0181 22.7083 7.12005 22.7539 7.2363 22.7539C7.52212 22.7539 7.75386 22.5221 7.75386 22.2363V21.2012C7.75391 20.9153 7.52212 20.6836 7.2363 20.6836Z" fill="#C04150"/>
<path d="M8.78904 23.789C8.50322 23.789 8.27148 24.0207 8.27148 24.3066V25.0216C8.45793 25.3051 8.65053 25.5801 8.84805 25.8473C9.10474 25.8168 9.3066 25.6065 9.3066 25.3417V24.3065C9.30666 24.0207 9.07486 23.789 8.78904 23.789Z" fill="#C04150"/>
<path d="M10.8596 28.0832V27.412C10.8596 27.1262 10.6279 26.8945 10.342 26.8945C10.1565 26.8945 10.0013 26.9975 9.90991 27.1441C10.2188 27.4822 10.5363 27.7951 10.8596 28.0832Z" fill="#C04150"/>
<path d="M23.9266 11.5542C23.85 11.6444 23.7988 11.7572 23.7988 11.8847V12.9199C23.7988 13.2057 24.0306 13.4375 24.3164 13.4375C24.4126 13.4375 24.4977 13.4041 24.5749 13.3584C24.423 12.6979 24.204 12.0982 23.9266 11.5542Z" fill="#D2555A"/>
<path d="M24.3164 17.578C24.0306 17.578 23.7988 17.8097 23.7988 18.0956V19.1307C23.7988 19.3839 23.984 19.5848 24.2242 19.6297C24.4101 18.9878 24.5569 18.3465 24.6597 17.7143C24.5679 17.6319 24.4494 17.578 24.3164 17.578Z" fill="#D2555A"/>
<path d="M23.2812 21.2012C23.2812 20.9153 23.0495 20.6836 22.7637 20.6836C22.4778 20.6836 22.2461 20.9153 22.2461 21.2012V22.2363C22.2461 22.5221 22.4778 22.7539 22.7637 22.7539C22.8799 22.7539 22.9819 22.7084 23.0683 22.6436C23.1409 22.4919 23.2124 22.3399 23.2813 22.1864V21.2012H23.2812Z" fill="#D2555A"/>
<path d="M21.7285 24.3066C21.7285 24.0208 21.4967 23.7891 21.2109 23.7891C20.9251 23.7891 20.6934 24.0208 20.6934 24.3066V25.3418C20.6934 25.6066 20.8952 25.8169 21.1519 25.8475C21.3494 25.5802 21.542 25.3052 21.7285 25.0218V24.3066Z" fill="#D2555A"/>
<path d="M20.0903 27.1441C19.9989 26.9975 19.8437 26.8945 19.6582 26.8945C19.3724 26.8945 19.1406 27.1262 19.1406 27.412V28.0832C19.4639 27.7951 19.7814 27.4822 20.0903 27.1441Z" fill="#D2555A"/>
<path d="M12.9297 27.4121V28.4473C12.9297 28.7331 13.1614 28.9648 13.4472 28.9648C13.7331 28.9648 13.9648 28.7331 13.9648 28.4473V28.0294C13.7618 27.689 13.5697 27.3132 13.3892 26.9061C13.1321 26.9363 12.9297 27.1468 12.9297 27.4121Z" fill="#C04150"/>
<path d="M11.6017 19.5461C11.5373 18.977 11.4866 18.4083 11.4497 17.8465C11.4075 17.9215 11.377 18.0035 11.377 18.0956V19.1309C11.377 19.3055 11.4691 19.4524 11.6017 19.5461Z" fill="#C04150"/>
<path d="M11.377 11.8848V12.9199C11.377 13.0802 11.4541 13.2179 11.5685 13.3128C11.6861 12.6108 11.8543 11.973 12.0728 11.4032C12.0168 11.3824 11.9577 11.3672 11.8945 11.3672C11.6086 11.3672 11.377 11.5989 11.377 11.8848Z" fill="#C04150"/>
<path d="M13.4472 8.26172C13.1614 8.26172 12.9297 8.49346 12.9297 8.77928V9.78797C13.2324 9.36562 13.5743 9.00258 13.947 8.69057C13.9035 8.44869 13.7017 8.26172 13.4472 8.26172Z" fill="#C04150"/>
</g>
<defs>
<clipPath id="clip0">
<rect width="30" height="30" fill="white"/>
</clipPath>
</defs>
</svg>
