<svg width="30" height="30" viewBox="0 0 30 30" fill="none" xmlns="http://www.w3.org/2000/svg">
<path d="M18.1389 16.2594C18.0182 16.5591 17.8559 16.8376 17.6589 17.0878L24.6907 21.1476C24.8624 20.8792 25.0237 20.6036 25.1732 20.3206L18.1389 16.2594Z" fill="#E9B264"/>
<path d="M15.4787 26.4786V18.3485C15.3222 18.3708 15.1625 18.383 15 18.383C14.8374 18.383 14.6777 18.3708 14.5212 18.3485V26.4786C14.6801 26.4852 14.8396 26.4894 15 26.4894C15.1603 26.4894 15.3197 26.4853 15.4787 26.4786Z" fill="#E9B264"/>
<path d="M11.8612 16.2594L4.82129 20.324C4.97008 20.6072 5.12997 20.8837 5.3011 21.1525L12.3413 17.0878C12.1443 16.8376 11.9819 16.5591 11.8612 16.2594Z" fill="#E9B264"/>
<path d="M11.8617 13.7393C11.9823 13.44 12.1445 13.162 12.3412 12.9122L5.301 8.84747C5.12962 9.11664 4.96954 9.39354 4.82056 9.67726L11.8617 13.7393Z" fill="#E9B264"/>
<path d="M14.5212 3.52134V11.6515C14.6777 11.6292 14.8374 11.617 15 11.617C15.1625 11.617 15.3222 11.6292 15.4787 11.6515V3.52134C15.3197 3.51464 15.1603 3.51062 15 3.51062C14.8396 3.51062 14.6801 3.51477 14.5212 3.52134Z" fill="#E9B264"/>
<path d="M24.6907 8.85229L17.6589 12.9121C17.8559 13.1624 18.0182 13.4408 18.1389 13.7406L25.1732 9.67934C25.0237 9.39638 24.8624 9.1207 24.6907 8.85229Z" fill="#E9B264"/>
<path d="M14.9998 0.957458C7.2567 0.957458 0.957275 7.25695 0.957275 15C0.957275 22.7431 7.2567 29.0426 14.9998 29.0426C22.743 29.0426 29.0424 22.7431 29.0424 15C29.0424 7.25695 22.743 0.957458 14.9998 0.957458ZM27.4068 15.9954C27.1597 19.1024 25.7583 21.9882 23.4608 24.121C21.1505 26.2657 18.1457 27.4468 14.9998 27.4468C8.13666 27.4468 2.55302 21.8632 2.55302 15C2.55302 8.13684 8.13666 2.5532 14.9998 2.5532C18.1457 2.5532 21.1505 3.73431 23.4608 5.87893C25.7583 8.0118 27.1597 10.8975 27.4068 14.0046C27.4277 14.2681 27.2311 14.4988 26.9675 14.5198C26.9641 14.52 26.9608 14.5198 26.9574 14.5201C26.9638 14.6794 26.9679 14.8392 26.9679 15C26.9679 15.1608 26.9638 15.3206 26.9574 15.4799C26.9608 15.4801 26.9641 15.4799 26.9675 15.4803C27.2311 15.5012 27.4277 15.7319 27.4068 15.9954Z" fill="#CF5530"/>
<path d="M17.4255 15C17.4255 13.6626 16.3374 12.5745 15 12.5745C13.6626 12.5745 12.5745 13.6626 12.5745 15C12.5745 16.3374 13.6626 17.4255 15 17.4255C16.3374 17.4255 17.4255 16.3374 17.4255 15ZM15 16.4681C14.1904 16.4681 13.5319 15.8095 13.5319 15C13.5319 14.1905 14.1904 13.5319 15 13.5319C15.8095 13.5319 16.4681 14.1905 16.4681 15C16.4681 15.8095 15.8095 16.4681 15 16.4681Z" fill="#F59B45"/>
<path d="M15.0001 13.5319C14.1905 13.5319 13.532 14.1905 13.532 15C13.532 15.8095 14.1905 16.4681 15.0001 16.4681C15.8096 16.4681 16.4682 15.8095 16.4682 15C16.4682 14.1905 15.8096 13.5319 15.0001 13.5319ZM15.0001 15.5106C14.7185 15.5106 14.4894 15.2816 14.4894 15C14.4894 14.7185 14.7185 14.4894 15.0001 14.4894C15.2816 14.4894 15.5107 14.7185 15.5107 15C15.5107 15.2816 15.2816 15.5106 15.0001 15.5106Z" fill="#34150C"/>
<path d="M26.9677 15.4802C26.9643 15.48 26.961 15.4801 26.9576 15.4799C26.6975 15.4645 26.4733 15.6593 26.4526 15.9194C26.3536 17.1644 26.0527 18.3524 25.5851 19.4529L18.37 15.2873C18.378 15.1925 18.3831 15.0968 18.3831 15C18.3831 14.9031 18.378 14.8075 18.37 14.7127L25.5851 10.547C26.0527 11.6476 26.3536 12.8355 26.4526 14.0805C26.4733 14.3407 26.6977 14.5353 26.9576 14.52C26.961 14.5198 26.9643 14.52 26.9677 14.5197C27.2313 14.4988 27.4279 14.2681 27.407 14.0045C27.1599 10.8975 25.7585 8.01169 23.461 5.87888C21.1507 3.73427 18.1459 2.55316 15 2.55316C8.13686 2.55316 2.55322 8.1368 2.55322 15C2.55322 21.8631 8.13686 27.4468 15 27.4468C18.1459 27.4468 21.1507 26.2657 23.461 24.1211C25.7585 21.9882 27.1599 19.1024 27.407 15.9954C27.4279 15.7318 27.2313 15.5012 26.9677 15.4802ZM24.6907 21.1477L17.6589 17.0878C17.8558 16.8376 18.0182 16.5591 18.1389 16.2594L25.1732 20.3206C25.0237 20.6036 24.8624 20.8793 24.6907 21.1477ZM4.82122 20.3239L11.8611 16.2594C11.9818 16.5591 12.1442 16.8376 12.3411 17.0878L5.30097 21.1525C5.1299 20.8837 4.96995 20.6072 4.82122 20.3239ZM5.30097 8.84742L12.3411 12.9121C12.1445 13.162 11.9823 13.44 11.8616 13.7393L4.82052 9.6772C4.9695 9.39354 5.12965 9.11659 5.30097 8.84742ZM15 17.4255C13.6626 17.4255 12.5745 16.3374 12.5745 15C12.5745 13.6625 13.6626 12.5744 15 12.5744C16.3375 12.5744 17.4256 13.6625 17.4256 15C17.4256 16.3374 16.3375 17.4255 15 17.4255ZM17.6589 12.9121L24.6907 8.85227C24.8624 9.12067 25.0237 9.39635 25.1732 9.67931L18.1389 13.7405C18.0182 13.4408 17.8558 13.1624 17.6589 12.9121ZM16.9327 12.2258C16.7763 12.1165 16.6104 12.0199 16.4362 11.9379V3.60208C19.5462 3.99801 22.3031 5.66027 24.1395 8.06493L16.9327 12.2258ZM15.4788 11.6515C15.3222 11.6292 15.1626 11.617 15 11.617C14.8375 11.617 14.6778 11.6292 14.5213 11.6515V3.52133C14.6802 3.51476 14.8396 3.51061 15 3.51061C15.1604 3.51061 15.3198 3.51463 15.4788 3.52133V11.6515ZM13.5639 3.60023V11.9379C13.3897 12.0199 13.2238 12.1165 13.0673 12.2258L5.85054 8.05918C7.67697 5.6574 10.4255 3.99329 13.5639 3.60023ZM4.40952 10.5454L11.6303 14.7111C11.6222 14.8064 11.6171 14.9026 11.6171 15C11.6171 15.0968 11.6221 15.1924 11.6301 15.2873L4.41003 19.4558C3.83109 18.0849 3.51067 16.5792 3.51067 15C3.51067 13.4213 3.8309 11.916 4.40952 10.5454ZM13.0673 17.7741C13.2238 17.8835 13.3897 17.9801 13.5639 18.0621V26.3997C10.4255 26.0066 7.67697 24.3425 5.85054 21.9408L13.0673 17.7741ZM14.5213 18.3485C14.6778 18.3708 14.8375 18.3829 15 18.3829C15.1626 18.3829 15.3222 18.3708 15.4788 18.3485V26.4787C15.3198 26.4854 15.1604 26.4894 15 26.4894C14.8396 26.4894 14.6802 26.4852 14.5213 26.4787V18.3485ZM16.4362 26.3979V18.0621C16.6104 17.9801 16.7762 17.8835 16.9327 17.7741L24.1396 21.935C22.3031 24.3397 19.5462 26.0019 16.4362 26.3979Z" fill="#34150C"/>
<path d="M25.6066 4.3934C22.7734 1.56026 19.0067 0 15 0C10.9933 0 7.22655 1.56026 4.3934 4.3934C1.56026 7.22655 0 10.9933 0 15C0 19.0067 1.56026 22.7734 4.3934 25.6066C7.22655 28.4397 10.9933 30 15 30C19.0067 30 22.7734 28.4397 25.6066 25.6066C28.4397 22.7734 30 19.0067 30 15C30 10.9933 28.4397 7.22655 25.6066 4.3934ZM15 29.0426C7.25687 29.0426 0.957447 22.7431 0.957447 15C0.957447 7.25694 7.25687 0.957447 15 0.957447C22.7431 0.957447 29.0426 7.25694 29.0426 15C29.0426 22.7431 22.7431 29.0426 15 29.0426Z" fill="#34150C"/>
</svg>
