<svg width="40" height="40" viewBox="0 0 40 40" fill="none" xmlns="http://www.w3.org/2000/svg">
<g clip-path="url(#clip0)">
<path fill-rule="evenodd" clip-rule="evenodd" d="M8.55531 39.4478C9.29273 40.183 10.4998 40.1852 11.2372 39.4478L20.5007 30.1821C22.6509 28.0317 23.8668 25.3521 24.8544 22.8232L18.2883 16.2571C15.7591 17.2469 13.0796 18.4604 10.9294 20.6109L1.66586 29.8765C0.928438 30.6139 0.928438 31.821 1.66586 32.5584L8.55531 39.4478Z" fill="#B3E59F"/>
<path fill-rule="evenodd" clip-rule="evenodd" d="M8.91895 39.7312C9.64738 40.1676 10.6108 40.0722 11.2375 39.4479L20.5011 30.1821C22.6513 28.0318 23.8671 25.3521 24.8547 22.8232L23.4441 21.4125L23.2603 21.8954L22.9015 22.8232C21.9138 25.3521 20.698 28.0318 18.5477 30.1821L9.28426 39.4479C9.17137 39.5585 9.04957 39.6536 8.91895 39.7312Z" fill="#95D6A4"/>
<path fill-rule="evenodd" clip-rule="evenodd" d="M24.8541 22.8233C25.9503 20.0262 26.7697 17.4109 28.2733 15.9071L31.9983 12.1845L28.9289 9.11523L25.204 12.8401C23.7003 14.3438 21.0873 15.1609 18.2881 16.2572C18.9546 17.6013 19.8781 18.8991 21.0452 20.0662C22.2121 21.2331 23.5099 22.1566 24.8541 22.8233Z" fill="#FFE07D"/>
<path fill-rule="evenodd" clip-rule="evenodd" d="M24.8541 22.8233C25.9503 20.0262 26.7698 17.4109 28.2734 15.9071L31.9984 12.1845L28.9289 9.11523L27.9523 10.0918L29.4405 11.58C29.8591 11.9985 29.8435 12.384 29.425 12.8047L26.3203 15.9072C24.9848 17.2449 24.1877 19.455 23.2598 21.8955C23.7802 22.2452 24.3139 22.5553 24.8541 22.8233Z" fill="#FFD064"/>
<path fill-rule="evenodd" clip-rule="evenodd" d="M36.5051 6.40894C37.7805 6.40894 38.9477 7.45862 38.8259 8.7298C38.3719 13.4046 37.4351 18.1105 38.8259 22.6703C39.198 23.8905 37.7805 24.991 36.5051 24.991C35.2295 24.991 33.8166 23.8905 34.1863 22.6703C35.2559 19.138 34.698 15.4907 34.1863 11.85L34.7245 7.24597C35.1519 6.7344 35.7919 6.40894 36.5051 6.40894Z" fill="#FFF3BF"/>
<path fill-rule="evenodd" clip-rule="evenodd" d="M36.505 6.40894C37.7805 6.40894 38.9477 7.45862 38.8259 8.7298C38.3719 13.4046 37.435 18.1105 38.8259 22.6703C39.1979 23.8905 37.7805 24.991 36.505 24.991C36.1773 24.991 35.8428 24.9179 35.5283 24.7897C36.4364 24.4175 37.1494 23.5783 36.8726 22.6703C35.4819 18.1105 36.4186 13.4046 36.8726 8.7298C36.9611 7.80175 36.3632 6.99136 35.5371 6.62151C35.8318 6.48417 36.1596 6.40894 36.505 6.40894Z" fill="#FFF0AF"/>
<path fill-rule="evenodd" clip-rule="evenodd" d="M31.9988 12.1844L28.9294 9.11513C28.42 8.60576 28.42 7.77083 28.9294 7.26146L30.9071 5.28169C31.4164 4.77231 32.2513 4.77231 32.7607 5.28169L35.8299 8.35107C36.3393 8.86044 36.3393 9.69521 35.8299 10.2046L33.8525 12.1844C33.3431 12.6939 32.5082 12.6939 31.9988 12.1844Z" fill="#40579A"/>
<path fill-rule="evenodd" clip-rule="evenodd" d="M31.9989 12.1843L31.9479 12.1336L33.8767 10.2046C34.386 9.69521 34.386 8.86044 33.8767 8.35106L30.8584 5.33263L30.9071 5.28169C31.4164 4.77231 32.2514 4.77231 32.7607 5.28169L35.8299 8.35106C36.3393 8.86044 36.3393 9.69521 35.8299 10.2046L33.8525 12.1844C33.3432 12.6938 32.5082 12.6938 31.9989 12.1843Z" fill="#34467B"/>
<path fill-rule="evenodd" clip-rule="evenodd" d="M16.8318 28.1669L12.9474 24.2804C12.4359 23.771 11.6033 23.771 11.0916 24.2804L6.85078 28.5212C6.34141 29.0327 6.34141 29.8653 6.85078 30.377L10.7373 34.2612C11.2467 34.7706 12.0816 34.7706 12.591 34.2612L16.8318 30.0204C17.3411 29.511 17.3411 28.6763 16.8318 28.1669Z" fill="#94CDF6"/>
<path fill-rule="evenodd" clip-rule="evenodd" d="M16.8314 28.1669L12.9471 24.2804C12.4356 23.771 11.6029 23.771 11.0913 24.2804L11.0426 24.3312L14.8782 28.1669C15.3874 28.6763 15.3874 29.511 14.8782 30.0204L10.686 34.2125L10.737 34.2612C11.2463 34.7706 12.0813 34.7706 12.5906 34.2612L16.8314 30.0204C17.3407 29.511 17.3407 28.6763 16.8314 28.1669Z" fill="#78A4EA"/>
<path fill-rule="evenodd" clip-rule="evenodd" d="M22.4565 18.6575C21.6769 17.8779 20.4145 17.8779 19.6373 18.6575C18.8579 19.4348 18.8579 20.6971 19.6373 21.4767C20.4145 22.254 21.6769 22.254 22.4565 21.4767C23.2337 20.6972 23.2337 19.4349 22.4565 18.6575Z" fill="#8E2E73"/>
<path fill-rule="evenodd" clip-rule="evenodd" d="M22.4553 18.6575C21.8086 18.0108 20.8275 17.9023 20.0679 18.3275C20.2229 18.4161 20.369 18.5245 20.502 18.6575C21.2793 19.4347 21.2793 20.6971 20.502 21.4767C20.3691 21.6073 20.2229 21.7181 20.0679 21.8044C20.8275 22.2318 21.8086 22.1233 22.4553 21.4767C23.2325 20.6971 23.2325 19.4348 22.4553 18.6575Z" fill="#812969"/>
<path d="M24.5732 8.70094C24.2498 8.70094 23.9863 8.43953 23.9863 8.11406C23.9863 7.78844 24.2498 7.52492 24.5732 7.52492H25.9971C26.3226 7.52492 26.5861 7.78844 26.5861 8.11406C26.5861 8.43953 26.3226 8.70094 25.9971 8.70094H24.5732ZM27.1087 4.55539C27.3901 4.71695 27.4852 5.0757 27.3235 5.35711C27.162 5.63836 26.8009 5.73352 26.5218 5.5718L25.2883 4.85875C25.007 4.69719 24.9119 4.33844 25.0736 4.05703C25.2375 3.77578 25.5963 3.68062 25.8752 3.84445L27.1087 4.55539ZM35.3557 1.3043C35.5152 1.02523 35.8739 0.927891 36.1552 1.08945C36.4342 1.24891 36.5317 1.60766 36.3699 1.88898L35.6592 3.1225C35.4974 3.40141 35.1387 3.49891 34.8596 3.33719C34.5784 3.17562 34.4809 2.81898 34.6427 2.53781L35.3557 1.3043ZM27.8284 1.89117C27.6669 1.60992 27.762 1.25125 28.0433 1.08945C28.3223 0.925547 28.6811 1.02305 28.845 1.30219L29.5559 2.5357C29.7198 2.81695 29.6224 3.17562 29.3432 3.33727C29.062 3.49898 28.7033 3.40383 28.5416 3.12469L27.8284 1.89117ZM32.6873 2.01297C32.6873 2.33633 32.4238 2.59984 32.1004 2.59984C31.7748 2.59984 31.5113 2.33633 31.5113 2.01297V0.588984C31.5113 0.263516 31.7748 0 32.1004 0C32.4238 0 32.6873 0.263516 32.6873 0.588984V2.01297Z" fill="#FFF0AF"/>
</g>
<defs>
<clipPath id="clip0">
<rect width="40" height="40" fill="white"/>
</clipPath>
</defs>
</svg>
