<svg width="613" height="83" viewBox="0 0 613 83" fill="none" xmlns="http://www.w3.org/2000/svg">
<path d="M31.189 15.452C30.337 16.64 29.143 17.234 27.607 17.234C26.071 17.234 24.877 16.64 24.025 15.452C23.173 14.264 22.747 12.68 22.747 10.7C22.747 8.72 23.173 7.136 24.025 5.948C24.877 4.76 26.071 4.166 27.607 4.166C29.143 4.166 30.337 4.76 31.189 5.948C32.041 7.136 32.467 8.72 32.467 10.7C32.467 12.68 32.041 14.264 31.189 15.452ZM25.249 14.318C25.801 15.17 26.587 15.596 27.607 15.596C28.627 15.596 29.413 15.17 29.965 14.318C30.529 13.466 30.811 12.26 30.811 10.7C30.811 9.14 30.529 7.934 29.965 7.082C29.413 6.218 28.627 5.786 27.607 5.786C26.587 5.786 25.801 6.212 25.249 7.064C24.697 7.916 24.421 9.128 24.421 10.7C24.421 12.26 24.697 13.466 25.249 14.318Z" fill="white" fill-opacity="0.5"/>
<path d="M305.275 38V26" stroke="white" stroke-opacity="0.5"/>
<rect x="2.98047" y="35.5" width="606.583" height="45" rx="22.5" fill="#222243" stroke="#3C4B74" stroke-width="5"/>
<path d="M27.8975 38V26" stroke="white" stroke-opacity="0.5"/>
<path d="M305.275 38V26" stroke="white" stroke-opacity="0.5"/>
<path d="M299.86 9.314C301.048 9.314 302.05 9.668 302.866 10.376C303.694 11.072 304.108 12.038 304.108 13.274C304.108 14.498 303.688 15.464 302.848 16.172C302.008 16.88 300.988 17.234 299.788 17.234C298.828 17.234 297.97 17.006 297.214 16.55C296.458 16.082 295.93 15.41 295.63 14.534L297.052 13.724C297.22 14.336 297.544 14.804 298.024 15.128C298.504 15.44 299.092 15.596 299.788 15.596C300.58 15.596 301.222 15.392 301.714 14.984C302.206 14.576 302.452 14.006 302.452 13.274C302.452 12.542 302.206 11.972 301.714 11.564C301.222 11.144 300.592 10.934 299.824 10.934H296.26L296.728 4.4H303.622V5.966H298.24L298.024 9.314H299.86ZM313.867 15.452C313.015 16.64 311.821 17.234 310.285 17.234C308.749 17.234 307.555 16.64 306.703 15.452C305.851 14.264 305.425 12.68 305.425 10.7C305.425 8.72 305.851 7.136 306.703 5.948C307.555 4.76 308.749 4.166 310.285 4.166C311.821 4.166 313.015 4.76 313.867 5.948C314.719 7.136 315.145 8.72 315.145 10.7C315.145 12.68 314.719 14.264 313.867 15.452ZM307.927 14.318C308.479 15.17 309.265 15.596 310.285 15.596C311.305 15.596 312.091 15.17 312.643 14.318C313.207 13.466 313.489 12.26 313.489 10.7C313.489 9.14 313.207 7.934 312.643 7.082C312.091 6.218 311.305 5.786 310.285 5.786C309.265 5.786 308.479 6.212 307.927 7.064C307.375 7.916 307.099 9.128 307.099 10.7C307.099 12.26 307.375 13.466 307.927 14.318Z" fill="white" fill-opacity="0.5"/>
<path d="M584.201 40V28" stroke="white" stroke-opacity="0.5"/>
<rect x="28" y="53" width="278" height="11" fill="#039800"/>
<rect x="306" y="53" width="278" height="11" fill="#C91D1D"/>
<path d="M574.824 12.4H576.264V25H574.608V14.2L571.926 14.992L571.512 13.552L574.824 12.4ZM586.928 23.452C586.076 24.64 584.882 25.234 583.346 25.234C581.81 25.234 580.616 24.64 579.764 23.452C578.912 22.264 578.486 20.68 578.486 18.7C578.486 16.72 578.912 15.136 579.764 13.948C580.616 12.76 581.81 12.166 583.346 12.166C584.882 12.166 586.076 12.76 586.928 13.948C587.78 15.136 588.206 16.72 588.206 18.7C588.206 20.68 587.78 22.264 586.928 23.452ZM580.988 22.318C581.54 23.17 582.326 23.596 583.346 23.596C584.366 23.596 585.152 23.17 585.704 22.318C586.268 21.466 586.55 20.26 586.55 18.7C586.55 17.14 586.268 15.934 585.704 15.082C585.152 14.218 584.366 13.786 583.346 13.786C582.326 13.786 581.54 14.212 580.988 15.064C580.436 15.916 580.16 17.128 580.16 18.7C580.16 20.26 580.436 21.466 580.988 22.318ZM598.266 23.452C597.414 24.64 596.22 25.234 594.684 25.234C593.148 25.234 591.954 24.64 591.102 23.452C590.25 22.264 589.824 20.68 589.824 18.7C589.824 16.72 590.25 15.136 591.102 13.948C591.954 12.76 593.148 12.166 594.684 12.166C596.22 12.166 597.414 12.76 598.266 13.948C599.118 15.136 599.544 16.72 599.544 18.7C599.544 20.68 599.118 22.264 598.266 23.452ZM592.326 22.318C592.878 23.17 593.664 23.596 594.684 23.596C595.704 23.596 596.49 23.17 597.042 22.318C597.606 21.466 597.888 20.26 597.888 18.7C597.888 17.14 597.606 15.934 597.042 15.082C596.49 14.218 595.704 13.786 594.684 13.786C593.664 13.786 592.878 14.212 592.326 15.064C591.774 15.916 591.498 17.128 591.498 18.7C591.498 20.26 591.774 21.466 592.326 22.318Z" fill="white" fill-opacity="0.5"/>
</svg>
