<svg width="40" height="40" viewBox="0 0 40 40" fill="none" xmlns="http://www.w3.org/2000/svg">
<path d="M10.4724 15.1881H1.18108C0.704827 15.1881 0.275217 14.9021 0.0914667 14.4627C-0.0922055 14.0234 0.00576345 13.5166 0.340217 13.1777L9.74961 3.63749C9.97156 3.41241 10.2745 3.28577 10.5906 3.28577H15.2362C15.6454 3.28577 16.0255 3.49756 16.2407 3.84569C16.456 4.19374 16.4756 4.62835 16.2928 4.99452L11.5291 14.5347C11.3291 14.9352 10.92 15.1881 10.4724 15.1881Z" fill="#A0EBFF"/>
<path d="M38.8187 15.1881H29.5274C29.0797 15.1881 28.6707 14.9352 28.4707 14.5347L23.7069 4.99452C23.5241 4.62835 23.5439 4.19374 23.759 3.84569C23.9742 3.49764 24.3544 3.28577 24.7636 3.28577H29.4092C29.7253 3.28577 30.0282 3.41249 30.2501 3.63749L39.6596 13.1777C39.994 13.5167 40.092 14.0235 39.9084 14.4627C39.7246 14.9022 39.295 15.1881 38.8187 15.1881Z" fill="#73C8F0"/>
<path d="M9.15186 13.9763L15.2363 3.28577H24.7639L30.8297 13.9763H9.15186Z" fill="#D2F0FF"/>
<path d="M28.2497 13.9763L18.9201 35.055C18.6838 35.5887 18.8729 36.2151 19.3652 36.5289C19.561 36.6536 19.7811 36.7141 19.9995 36.7141C20.3307 36.7141 20.6578 36.5751 20.8893 36.3104L39.7082 14.7844C39.9071 14.5569 40.0065 14.2673 39.999 13.9763H28.2497V13.9763Z" fill="#0073AA"/>
<path d="M11.7507 13.9764H0.00137162C-0.0061284 14.2673 0.0932468 14.557 0.292153 14.7845L19.111 36.3105C19.3425 36.5753 19.6697 36.7142 20.0008 36.7142C20.2192 36.7142 20.4395 36.6538 20.6351 36.529C21.1273 36.2153 21.3165 35.5888 21.0802 35.0551L11.7507 13.9764Z" fill="#41B4E6"/>
<path d="M9.15186 13.9764L18.9202 36.0111C19.1093 36.4385 19.5327 36.7142 20.0002 36.7142C20.4676 36.7142 20.891 36.4385 21.0802 36.0111L30.8298 13.9764H9.15186Z" fill="#A0EBFF"/>
<path d="M19.9907 13.9763H30.8297L24.7638 3.28577H19.9907V13.9763Z" fill="#41B4E6"/>
<path d="M20 36.7142C20.4674 36.7142 20.8909 36.4385 21.08 36.0111L30.8296 13.9764H20V36.7142Z" fill="#73C8F0"/>
</svg>
