<svg width="150" height="70" viewBox="0 0 150 70" fill="none" xmlns="http://www.w3.org/2000/svg">
<rect width="150" height="70" rx="5" fill="#527194"/>
<g clip-path="url(#clip0)">
<path d="M88.1917 36.7134C87.545 35.8967 87.73 35.5334 88.1917 34.8034C88.2 34.795 93.5383 27.4184 94.0883 24.9167L94.0917 24.915C94.365 24.0034 94.0917 23.3334 92.77 23.3334H88.3967C87.2833 23.3334 86.77 23.9084 86.495 24.5517C86.495 24.5517 84.2683 29.8817 81.1183 33.3367C80.1017 34.335 79.6317 34.655 79.0767 34.655C78.8033 34.655 78.3783 34.335 78.3783 33.4234V24.915C78.3783 23.8217 78.0667 23.3334 77.145 23.3334H70.2683C69.57 23.3334 69.155 23.8434 69.155 24.3184C69.155 25.355 70.73 25.5934 70.8933 28.51V34.8384C70.8933 36.225 70.6417 36.48 70.0833 36.48C68.5967 36.48 64.9883 31.1284 62.85 25.0034C62.4183 23.815 61.9967 23.335 60.875 23.335H56.5C55.2517 23.335 55 23.91 55 24.5534C55 25.69 56.4867 31.3417 61.9133 38.8084C65.53 43.905 70.6233 46.6667 75.2567 46.6667C78.0417 46.6667 78.3817 46.0534 78.3817 44.9984C78.3817 40.1284 78.13 39.6684 79.525 39.6684C80.1717 39.6684 81.285 39.9884 83.885 42.4467C86.8567 45.3617 87.345 46.6667 89.0083 46.6667H93.3817C94.6283 46.6667 95.26 46.0534 94.8967 44.8434C94.065 42.2984 88.445 37.0634 88.1917 36.7134Z" fill="white"/>
</g>
<defs>
<clipPath id="clip0">
<rect width="40" height="40" fill="white" transform="translate(55 15)"/>
</clipPath>
</defs>
</svg>
