<svg width="156" height="200" viewBox="0 0 156 200" fill="none" xmlns="http://www.w3.org/2000/svg">
<path d="M101.439 23.4387C101.439 10.5145 90.9241 0 77.9999 0L74.0933 6.05234L77.9999 11.7188C84.462 11.7188 89.7198 16.9762 89.7198 23.4387C89.7198 29.9012 84.462 35.1586 77.9999 35.1586L74.0933 40.7406L77.9999 46.8773C90.9241 46.8773 101.439 36.3629 101.439 23.4387Z" fill="#FFDE55"/>
<path d="M66.28 23.4387C66.28 16.9762 71.5378 11.7188 78 11.7188V0C65.0757 0 54.5613 10.5145 54.5613 23.4387C54.5613 36.3629 65.0757 46.8773 78 46.8773V35.1586C71.5378 35.1586 66.28 29.9012 66.28 23.4387Z" fill="#FFF68E"/>
<path d="M70.187 170.702L77.9999 200C90.9241 200 101.439 189.486 101.439 176.561V170.702H70.187Z" fill="#FF8859"/>
<path d="M54.5613 170.702V176.561C54.5613 189.486 65.0757 200 78 200V170.702H54.5613Z" fill="#FFB655"/>
<path d="M70.187 152.851L77.9999 176.561H155.618L152.969 160.664L70.187 152.851Z" fill="#FFB655"/>
<path d="M3.03081 160.664L0.381592 176.561H77.9999V152.851L3.03081 160.664Z" fill="#FFDE55"/>
<path d="M152.969 160.664L150.319 144.767L70.187 136.954L77.9999 160.664H152.969Z" fill="#FFDE55"/>
<path d="M77.9999 136.954L5.68037 144.767L3.03076 160.664H77.9999V136.954Z" fill="#FFF68E"/>
<path d="M142.957 135.725C129.369 119.033 123.309 103.196 123.309 84.3742V80.4676C123.309 55.484 102.983 35.1586 77.9999 35.1586L70.187 100L77.9999 144.767H150.319L142.957 135.725Z" fill="#FFB655"/>
<path d="M32.691 80.4676V84.3742C32.691 103.196 26.6312 119.033 13.0429 135.724L5.68042 144.767H78V35.1586C53.0164 35.1586 32.691 55.484 32.691 80.4676Z" fill="#FFDE55"/>
</svg>
