<svg width="200" height="200" viewBox="0 0 200 200" fill="none" xmlns="http://www.w3.org/2000/svg">
<path d="M100.391 0C45.4305 0 0 44.6484 0 99.6094C0 154.57 45.4305 200 100.391 200C155.351 200 200 154.57 200 99.6094C200 44.6484 155.351 0 100.391 0Z" fill="#FEDB41"/>
<path d="M200 99.6094C200 154.57 155.351 200 100.391 200V0C155.351 0 200 44.6484 200 99.6094Z" fill="#FFCC33"/>
<path d="M100.391 23.4375C58.4367 23.4375 23.4375 57.6559 23.4375 99.6094C23.4375 141.563 58.4367 176.562 100.391 176.562C142.345 176.562 176.562 141.563 176.562 99.6094C176.562 57.6559 142.345 23.4375 100.391 23.4375Z" fill="#FEA832"/>
<path d="M176.562 99.6094C176.562 141.563 142.345 176.562 100.391 176.562V23.4375C142.345 23.4375 176.562 57.6559 176.562 99.6094Z" fill="#FE9923"/>
<path d="M112.109 93.75H106.25V70.3125H112.109C115.391 70.3125 117.969 72.8902 117.969 76.1719C117.969 83.9059 129.688 83.9059 129.688 76.1719C129.688 66.4449 121.837 58.5938 112.109 58.5938H106.25V52.7344C106.25 48.8668 103.32 46.875 100.391 46.875C97.4609 46.875 94.5312 48.8668 94.5312 52.7344V58.5938H87.8906C78.1633 58.5938 70.3125 66.4449 70.3125 76.1719V87.8906C70.3125 97.6176 78.1633 105.469 87.8906 105.469H94.5312V129.688H87.8906C84.609 129.688 82.0312 127.11 82.0312 123.828C82.0312 116.094 70.3125 116.094 70.3125 123.828C70.3125 133.555 78.1633 141.406 87.8906 141.406H94.5312V147.266C94.5312 151.133 97.4609 153.125 100.391 153.125C103.32 153.125 106.25 151.133 106.25 147.266V141.406H112.109C121.837 141.406 129.688 133.555 129.688 123.828V111.328C129.688 101.601 121.837 93.75 112.109 93.75ZM94.5312 93.75H87.8906C84.609 93.75 82.0312 91.1723 82.0312 87.8906V76.1719C82.0312 72.8902 84.609 70.3125 87.8906 70.3125H94.5312V93.75ZM117.969 123.828C117.969 127.11 115.391 129.688 112.109 129.688H106.25V105.469H112.109C115.391 105.469 117.969 108.046 117.969 111.328V123.828Z" fill="#FEDB41"/>
<path d="M112.109 93.75H106.25V70.3125H112.109C115.391 70.3125 117.969 72.8902 117.969 76.1719C117.969 83.9059 129.688 83.9059 129.688 76.1719C129.688 66.4449 121.837 58.5938 112.109 58.5938H106.25V52.7344C106.25 48.8668 103.32 46.875 100.391 46.875V153.125C103.32 153.125 106.25 151.133 106.25 147.266V141.406H112.109C121.837 141.406 129.688 133.555 129.688 123.828V111.328C129.688 101.601 121.837 93.75 112.109 93.75ZM117.969 123.828C117.969 127.11 115.391 129.688 112.109 129.688H106.25V105.469H112.109C115.391 105.469 117.969 108.046 117.969 111.328V123.828Z" fill="#FFCC33"/>
</svg>
