<svg width="50" height="50" viewBox="0 0 50 50" fill="none" xmlns="http://www.w3.org/2000/svg">
<path d="M25 37.5C31.9036 37.5 37.5 31.9036 37.5 25C37.5 18.0964 31.9036 12.5 25 12.5C18.0964 12.5 12.5 18.0964 12.5 25C12.5 31.9036 18.0964 37.5 25 37.5Z" stroke="white" stroke-width="2" stroke-linecap="round" stroke-linejoin="round"/>
<path d="M21.3625 21.25C21.6564 20.4146 22.2365 19.7101 23 19.2614C23.7635 18.8127 24.6611 18.6487 25.534 18.7984C26.4068 18.9481 27.1985 19.4019 27.7689 20.0794C28.3392 20.7569 28.6513 21.6144 28.65 22.5C28.65 25 24.9 26.25 24.9 26.25" stroke="white" stroke-width="2" stroke-linecap="round" stroke-linejoin="round"/>
<circle cx="25" cy="31.25" r="0.749999" stroke="white"/>
</svg>
