<svg width="14" height="15" viewBox="0 0 14 15" fill="none" xmlns="http://www.w3.org/2000/svg">
<path d="M8.25352 15H2.55347C1.23699 15 0.166016 13.9486 0.166016 12.6562V4.7168C0.166016 3.42442 1.23699 2.37305 2.55347 2.37305H8.25352C9.57001 2.37305 10.641 3.42442 10.641 4.7168V12.6562C10.641 13.9486 9.57001 15 8.25352 15ZM2.55347 3.54492C1.89529 3.54492 1.35974 4.07066 1.35974 4.7168V12.6562C1.35974 13.3024 1.89529 13.8281 2.55347 13.8281H8.25352C8.91171 13.8281 9.44725 13.3024 9.44725 12.6562V4.7168C9.44725 4.07066 8.91171 3.54492 8.25352 3.54492H2.55347ZM13.0284 11.1914V2.34375C13.0284 1.05137 11.9575 0 10.641 0H4.01579C3.68611 0 3.41892 0.262299 3.41892 0.585938C3.41892 0.909576 3.68611 1.17188 4.01579 1.17188H10.641C11.2992 1.17188 11.8347 1.69762 11.8347 2.34375V11.1914C11.8347 11.515 12.1019 11.7773 12.4316 11.7773C12.7612 11.7773 13.0284 11.515 13.0284 11.1914Z" fill="#3C4B74"/>
</svg>
