<svg width="150" height="70" viewBox="0 0 150 70" fill="none" xmlns="http://www.w3.org/2000/svg">
<rect width="150" height="70" rx="5" fill="#DE4436"/>
<g clip-path="url(#clip0)">
<path d="M63.8648 39.3703L62.4725 44.5681L57.3835 44.6758C55.8627 41.8549 55 38.6275 55 35.1978C55 31.8813 55.8066 28.7538 57.2362 26H57.2373L61.768 26.8306L63.7527 31.3341C63.3373 32.5451 63.1109 33.8451 63.1109 35.1978C63.111 36.6659 63.377 38.0726 63.8648 39.3703Z" fill="white"/>
<path d="M94.6508 31.2637C94.8805 32.4735 95.0003 33.723 95.0003 34.9999C95.0003 36.4318 94.8497 37.8285 94.5629 39.1758C93.5893 43.7604 91.0453 47.7637 87.5212 50.5966L87.5201 50.5955L81.8135 50.3044L81.0059 45.2626C83.3443 43.8912 85.1718 41.745 86.1345 39.1758H75.4399V31.2637H86.2905H94.6508Z" fill="white"/>
<path d="M87.52 50.5957L87.5211 50.5967C84.0937 53.3517 79.7398 55 75.0003 55C67.3838 55 60.7618 50.7429 57.3838 44.4781L63.8651 39.1726C65.5541 43.6803 69.9025 46.8891 75.0003 46.8891C77.1914 46.8891 79.2443 46.2967 81.0057 45.2627L87.52 50.5957Z" fill="white"/>
<path d="M87.766 19.6044L81.2869 24.9087C79.4638 23.7692 77.3088 23.1109 75.0001 23.1109C69.7869 23.1109 65.3572 26.467 63.7528 31.1362L57.2374 25.8022H57.2363C60.5649 19.3846 67.2704 15 75.0001 15C79.8528 15 84.3023 16.7286 87.766 19.6044Z" fill="white"/>
</g>
<defs>
<clipPath id="clip0">
<rect width="40" height="40" fill="white" transform="translate(55 15)"/>
</clipPath>
</defs>
</svg>
