<svg width="21" height="20" viewBox="0 0 21 20" fill="none" xmlns="http://www.w3.org/2000/svg">
<path d="M17.5384 1.37335C16.5116 0.367087 14.8487 0.367087 13.8219 1.37335L12.8916 2.29164L2.98839 12.0084L2.96734 12.0292C2.96225 12.0342 2.96225 12.0395 2.95682 12.0395C2.9463 12.055 2.93051 12.0703 2.92015 12.0858C2.92015 12.091 2.91473 12.091 2.91473 12.0962C2.9042 12.1117 2.89911 12.122 2.88842 12.1375C2.88332 12.1427 2.88332 12.1477 2.87806 12.153C2.8728 12.1685 2.86754 12.1788 2.86211 12.1943C2.86211 12.1993 2.85701 12.1993 2.85701 12.2046L0.659798 18.691C0.595343 18.8756 0.644342 19.0801 0.785912 19.2172C0.885389 19.3135 1.01956 19.3674 1.15916 19.367C1.21621 19.366 1.27278 19.3573 1.32736 19.3411L7.92954 17.179C7.93464 17.179 7.93464 17.179 7.94006 17.174C7.95667 17.1691 7.97262 17.1622 7.98725 17.1531C7.99136 17.1527 7.99498 17.1509 7.99794 17.1481C8.01356 17.1378 8.03461 17.1273 8.05039 17.117C8.06601 17.1068 8.08196 17.0913 8.09774 17.081C8.10301 17.0757 8.1081 17.0757 8.1081 17.0707C8.11353 17.0655 8.12405 17.0605 8.12931 17.05L18.9628 6.41483C19.9878 5.40679 19.9878 3.7744 18.9628 2.76652L17.5384 1.37335ZM7.76133 15.9663L4.10287 12.3749L13.2596 3.38588L16.918 6.9772L7.76133 15.9663ZM3.58756 13.3295L6.78366 16.467L1.98441 18.0356L3.58756 13.3295ZM18.2217 5.69234L17.6645 6.24454L14.0059 2.65289L14.5685 2.10085C15.184 1.49716 16.1816 1.49716 16.7972 2.10085L18.2268 3.50435C18.8377 4.11128 18.8354 5.08832 18.2217 5.69234Z" fill="#3C4B74"/>
</svg>
