<svg width="25" height="25" viewBox="0 0 25 25" fill="none" xmlns="http://www.w3.org/2000/svg">
<g clip-path="url(#clip0)">
<path d="M2.73242 25H10.2069C10.6114 25 10.9393 24.6721 10.9393 24.2676V23.4516C10.9393 21.7583 9.99287 20.282 8.60127 19.5238C9.09551 18.9991 9.39937 18.2931 9.39937 17.5171C9.39937 15.9017 8.08511 14.5874 6.46968 14.5874C4.85425 14.5874 3.53999 15.9017 3.53999 17.5171C3.53999 18.2931 3.84385 18.9991 4.33809 19.5238C2.94644 20.282 2 21.7583 2 23.4516V24.2676C2 24.6721 2.32793 25 2.73242 25ZM5.00483 17.5171C5.00483 16.7094 5.66196 16.0522 6.46968 16.0522C7.27739 16.0522 7.93452 16.7094 7.93452 17.5171C7.93452 18.3248 7.27739 18.9819 6.46968 18.9819C5.66196 18.9819 5.00483 18.3248 5.00483 17.5171ZM6.46968 20.4468C8.03887 20.4468 9.47446 21.6769 9.47446 23.5352H3.46484C3.46484 21.6866 4.89209 20.4468 6.46968 20.4468Z" fill="#8587E3" fill-opacity="0.5"/>
<path d="M24.6623 19.5238C25.1565 18.9991 25.4604 18.2931 25.4604 17.5171C25.4604 15.9017 24.1461 14.5874 22.5307 14.5874C20.9152 14.5874 19.601 15.9017 19.601 17.5171C19.601 18.2931 19.9048 18.9991 20.3991 19.5238C19.0075 20.282 18.061 21.7583 18.061 23.4516V24.2676C18.061 24.6721 18.389 25 18.7935 25H26.2679C26.6724 25 27.0003 24.6721 27.0003 24.2676V23.4516C27.0003 21.7583 26.0539 20.282 24.6623 19.5238ZM21.0658 17.5171C21.0658 16.7094 21.7229 16.0522 22.5306 16.0522C23.3383 16.0522 23.9955 16.7094 23.9955 17.5171C23.9955 18.3248 23.3383 18.9819 22.5306 18.9819C21.7229 18.9819 21.0658 18.3248 21.0658 17.5171ZM25.5354 23.5352H19.5258C19.5258 21.6866 20.9531 20.4468 22.5306 20.4468C24.0998 20.4468 25.5354 21.6768 25.5354 23.5352Z" fill="#8587E3" fill-opacity="0.5"/>
<path d="M18.9696 9.68018V8.86416C18.9696 7.17095 18.0231 5.69463 16.6315 4.93638C17.1257 4.41167 17.4296 3.70571 17.4296 2.92969C17.4296 1.31426 16.1153 0 14.4999 0C12.8845 0 11.5702 1.31426 11.5702 2.92969C11.5702 3.70571 11.8741 4.41167 12.3683 4.93638C10.9767 5.69463 10.0303 7.17095 10.0303 8.86416V9.68018C10.0303 10.0847 10.3582 10.4126 10.7627 10.4126H18.2372C18.6416 10.4126 18.9696 10.0847 18.9696 9.68018ZM13.0351 2.92969C13.0351 2.12197 13.6922 1.46484 14.4999 1.46484C15.3076 1.46484 15.9647 2.12197 15.9647 2.92969C15.9647 3.7374 15.3076 4.39453 14.4999 4.39453C13.6922 4.39453 13.0351 3.7374 13.0351 2.92969ZM17.5047 8.94775H11.4951C11.4951 7.09917 12.9223 5.85938 14.4999 5.85938C16.069 5.85938 17.5047 7.08936 17.5047 8.94775Z" fill="#8587E3" fill-opacity="0.5"/>
<path d="M17.4591 18.5082C16.5022 18.8226 15.4932 18.9819 14.4602 18.9819C13.4633 18.9819 12.4872 18.833 11.5589 18.5394C11.1732 18.4176 10.7617 18.6312 10.6398 19.0169C10.5178 19.4025 10.7316 19.8141 11.1172 19.9361C12.1885 20.2749 13.3132 20.4467 14.4601 20.4467C15.6487 20.4467 16.8115 20.2627 17.9162 19.8999C18.3006 19.7737 18.5097 19.3598 18.3835 18.9755C18.2573 18.5912 17.8434 18.3819 17.4591 18.5082Z" fill="#8587E3" fill-opacity="0.5"/>
<path d="M7.74835 6.06982C6.93946 6.84956 6.25182 7.756 5.7045 8.76406C5.13731 9.80874 4.74415 10.9184 4.53595 12.0623C4.45435 12.5106 4.79835 12.926 5.25738 12.926C5.60445 12.926 5.91275 12.6782 5.97711 12.3246C6.15748 11.3337 6.49889 10.3709 6.99181 9.46303C7.46754 8.58691 8.06407 7.80009 8.76495 7.12451C9.05616 6.8438 9.06471 6.38012 8.78399 6.08886C8.50323 5.79765 8.03961 5.78911 7.74835 6.06982Z" fill="#8587E3" fill-opacity="0.5"/>
<path d="M21.2515 6.06984C20.9602 5.78908 20.4965 5.79767 20.2158 6.08888C19.9351 6.38014 19.9436 6.84381 20.2349 7.12453C20.9358 7.80011 21.5323 8.58688 22.008 9.46305C22.501 10.371 22.8424 11.3338 23.0227 12.3246C23.0951 12.7221 23.4759 12.9865 23.8744 12.914C24.2724 12.8416 24.5363 12.4602 24.4639 12.0623C24.2557 10.9184 23.8625 9.80876 23.2953 8.76408C22.748 7.75602 22.0604 6.84953 21.2515 6.06984Z" fill="#8587E3" fill-opacity="0.5"/>
</g>
<defs>
<clipPath id="clip0">
<rect width="25" height="25" fill="white"/>
</clipPath>
</defs>
</svg>
