<svg width="222" height="21" viewBox="0 0 222 21" fill="none" xmlns="http://www.w3.org/2000/svg">
<rect width="222" height="21" rx="3" fill="#212531"/>
<rect width="21" height="21" rx="3" fill="#3C4B74"/>
<path d="M9.78 15.168C8.732 15.168 7.908 14.772 7.308 13.98C6.716 13.18 6.42 12.12 6.42 10.8C6.42 9.48 6.716 8.424 7.308 7.632C7.908 6.832 8.732 6.432 9.78 6.432C10.836 6.432 11.66 6.832 12.252 7.632C12.844 8.424 13.14 9.48 13.14 10.8C13.14 12.12 12.844 13.18 12.252 13.98C11.66 14.772 10.836 15.168 9.78 15.168ZM8.508 12.852C8.796 13.316 9.22 13.548 9.78 13.548C10.34 13.548 10.764 13.312 11.052 12.84C11.348 12.368 11.496 11.688 11.496 10.8C11.496 9.904 11.348 9.22 11.052 8.748C10.764 8.276 10.34 8.04 9.78 8.04C9.22 8.04 8.796 8.276 8.508 8.748C8.22 9.22 8.076 9.904 8.076 10.8C8.076 11.696 8.22 12.38 8.508 12.852Z" fill="white"/>
</svg>
