<svg width="25" height="25" viewBox="0 0 25 25" fill="none" xmlns="http://www.w3.org/2000/svg">
<path d="M13.6364 12.8788C17.1871 12.8788 20.0758 9.99008 20.0758 6.43939C20.0758 2.88871 17.1871 0 13.6364 0C13.6226 0 13.6088 0.000227273 13.5951 0.000757576H8.33492C8.33439 0.000757576 8.33394 0.000681818 8.33348 0.000681818C7.70591 0.000681818 7.19712 0.50947 7.19712 1.13705V1.13712V11.7424V15.1515H6.06068C5.4331 15.1515 4.92432 15.6603 4.92432 16.2879C4.92432 16.9155 5.4331 17.4242 6.06068 17.4242H7.19704V23.8636C7.19704 24.4912 7.70583 25 8.33341 25C8.96098 25 9.46977 24.4912 9.46977 23.8636V17.4242H13.6364C14.264 17.4242 14.7728 16.9155 14.7728 16.2879C14.7728 15.6603 14.264 15.1515 13.6364 15.1515H9.46977V12.8788H13.6364ZM13.6364 2.27348C13.6487 2.27348 13.661 2.27326 13.6731 2.27288C15.9539 2.29258 17.8031 4.15409 17.8031 6.43939C17.8031 8.73689 15.9339 10.6061 13.6364 10.6061H9.46977V2.27348H13.6364Z" fill="#8587E3" fill-opacity="0.5"/>
</svg>
