<svg width="201" height="45" viewBox="0 0 201 45" fill="none" xmlns="http://www.w3.org/2000/svg">
<g clip-path="url(#clip0)">
<path d="M177.885 45C190.311 45 200.385 34.9264 200.385 22.5C200.385 10.0736 190.311 0 177.885 0C165.458 0 155.385 10.0736 155.385 22.5C155.385 34.9264 165.458 45 177.885 45Z" fill="#0087C9"/>
<path d="M165.68 22.0124L187.374 13.648C188.381 13.2843 189.26 13.8937 188.934 15.4162L188.936 15.4143L185.242 32.8161C184.968 34.0499 184.235 34.3499 183.21 33.7686L177.585 29.623L174.872 32.2368C174.572 32.5368 174.318 32.7899 173.737 32.7899L174.137 27.0655L184.562 17.6474C185.015 17.248 184.46 17.023 183.862 17.4205L170.979 25.5318L165.425 23.7993C164.22 23.4168 164.193 22.5936 165.68 22.0124Z" fill="white"/>
</g>
<path d="M5 1H126.201C128.962 1 131.201 3.23858 131.201 6V8.97893C131.201 10.4963 131.89 11.9315 133.074 12.8805L140.231 18.6164C142.817 20.6894 142.707 24.6597 140.01 26.5865L133.294 31.3837C131.981 32.3223 131.201 33.8376 131.201 35.4523V39C131.201 41.7614 128.962 44 126.201 44H5C2.23858 44 0 41.7614 0 39V6C0 3.23858 2.23858 1 5 1Z" fill="#484848" fill-opacity="0.6"/>
<path d="M12.688 26.592H17.888V28H11.2V16.8H17.808V18.208H12.688V21.648H17.408V23.04H12.688V26.592ZM23.1285 28.208C21.9232 28.208 20.9205 27.808 20.1205 27.008C19.3205 26.1973 18.9205 25.1947 18.9205 24C18.9205 22.8053 19.3205 21.808 20.1205 21.008C20.9205 20.1973 21.9232 19.792 23.1285 19.792C23.9178 19.792 24.6272 19.984 25.2565 20.368C25.8858 20.7413 26.3552 21.248 26.6645 21.888L25.4965 22.56C25.2938 22.1333 24.9792 21.792 24.5525 21.536C24.1365 21.28 23.6618 21.152 23.1285 21.152C22.3285 21.152 21.6565 21.424 21.1125 21.968C20.5792 22.512 20.3125 23.1893 20.3125 24C20.3125 24.8 20.5792 25.472 21.1125 26.016C21.6565 26.56 22.3285 26.832 23.1285 26.832C23.6618 26.832 24.1418 26.7093 24.5685 26.464C24.9952 26.208 25.3205 25.8667 25.5445 25.44L26.7285 26.128C26.3872 26.7573 25.8965 27.264 25.2565 27.648C24.6165 28.0213 23.9072 28.208 23.1285 28.208ZM33.9299 20V21.344H31.2099V28H29.8179V21.344H27.0819V20H33.9299ZM38.5258 22.88C39.3258 22.88 39.9871 23.12 40.5098 23.6C41.0431 24.0693 41.3098 24.6827 41.3098 25.44C41.3098 26.1973 41.0431 26.816 40.5098 27.296C39.9871 27.7653 39.3258 28 38.5258 28H35.1497V20H36.5418V22.88H38.5258ZM38.5258 26.704C38.9204 26.704 39.2511 26.592 39.5178 26.368C39.7951 26.1333 39.9338 25.824 39.9338 25.44C39.9338 25.056 39.7951 24.7467 39.5178 24.512C39.2511 24.2773 38.9204 24.16 38.5258 24.16H36.5418V26.704H38.5258ZM52.134 23.888C52.9553 24.2293 53.366 24.848 53.366 25.744C53.366 26.4053 53.142 26.9493 52.694 27.376C52.2567 27.792 51.6273 28 50.806 28H46.806V20H50.486C51.286 20 51.9047 20.2027 52.342 20.608C52.7793 21.0027 52.998 21.5253 52.998 22.176C52.998 22.944 52.71 23.5147 52.134 23.888ZM50.422 21.248H48.166V23.344H50.422C51.2327 23.344 51.638 22.9867 51.638 22.272C51.638 21.5893 51.2327 21.248 50.422 21.248ZM50.726 26.736C51.1313 26.736 51.4407 26.64 51.654 26.448C51.878 26.256 51.99 25.984 51.99 25.632C51.99 25.3013 51.878 25.0453 51.654 24.864C51.4407 24.672 51.1313 24.576 50.726 24.576H48.166V26.736H50.726ZM61.6205 26.992C60.7992 27.8027 59.8018 28.208 58.6285 28.208C57.4552 28.208 56.4578 27.8027 55.6365 26.992C54.8258 26.1813 54.4205 25.184 54.4205 24C54.4205 22.816 54.8258 21.8187 55.6365 21.008C56.4578 20.1973 57.4552 19.792 58.6285 19.792C59.8018 19.792 60.7992 20.1973 61.6205 21.008C62.4418 21.8187 62.8525 22.816 62.8525 24C62.8525 25.184 62.4418 26.1813 61.6205 26.992ZM58.6285 26.848C59.4285 26.848 60.1005 26.576 60.6445 26.032C61.1885 25.488 61.4605 24.8107 61.4605 24C61.4605 23.1893 61.1885 22.512 60.6445 21.968C60.1005 21.424 59.4285 21.152 58.6285 21.152C57.8392 21.152 57.1725 21.424 56.6285 21.968C56.0845 22.512 55.8125 23.1893 55.8125 24C55.8125 24.8107 56.0845 25.488 56.6285 26.032C57.1725 26.576 57.8392 26.848 58.6285 26.848ZM71.4215 20V28H70.0295V21.328H65.8855V28H64.4935V20H71.4215ZM77.9564 19.792C79.0764 19.792 80.031 20.2027 80.8204 21.024C81.6097 21.8347 82.0044 22.8267 82.0044 24C82.0044 25.1733 81.6097 26.1707 80.8204 26.992C80.031 27.8027 79.0764 28.208 77.9564 28.208C76.6337 28.208 75.6257 27.68 74.9324 26.624V31.2H73.5404V20H74.9324V21.376C75.6257 20.32 76.6337 19.792 77.9564 19.792ZM77.7804 26.864C78.5804 26.864 79.2524 26.592 79.7964 26.048C80.3404 25.4933 80.6124 24.8107 80.6124 24C80.6124 23.1893 80.3404 22.512 79.7964 21.968C79.2524 21.4133 78.5804 21.136 77.7804 21.136C76.9697 21.136 76.2924 21.4133 75.7484 21.968C75.2044 22.512 74.9324 23.1893 74.9324 24C74.9324 24.8107 75.2044 25.4933 75.7484 26.048C76.2924 26.592 76.9697 26.864 77.7804 26.864ZM90.4174 26.992C89.596 27.8027 88.5987 28.208 87.4254 28.208C86.252 28.208 85.2547 27.8027 84.4334 26.992C83.6227 26.1813 83.2174 25.184 83.2174 24C83.2174 22.816 83.6227 21.8187 84.4334 21.008C85.2547 20.1973 86.252 19.792 87.4254 19.792C88.5987 19.792 89.596 20.1973 90.4174 21.008C91.2387 21.8187 91.6494 22.816 91.6494 24C91.6494 25.184 91.2387 26.1813 90.4174 26.992ZM87.4254 26.848C88.2254 26.848 88.8974 26.576 89.4414 26.032C89.9854 25.488 90.2574 24.8107 90.2574 24C90.2574 23.1893 89.9854 22.512 89.4414 21.968C88.8974 21.424 88.2254 21.152 87.4254 21.152C86.636 21.152 85.9694 21.424 85.4254 21.968C84.8814 22.512 84.6094 23.1893 84.6094 24C84.6094 24.8107 84.8814 25.488 85.4254 26.032C85.9694 26.576 86.636 26.848 87.4254 26.848ZM97.0504 28.208C95.845 28.208 94.8424 27.808 94.0424 27.008C93.2424 26.1973 92.8424 25.1947 92.8424 24C92.8424 22.8053 93.2424 21.808 94.0424 21.008C94.8424 20.1973 95.845 19.792 97.0504 19.792C97.8397 19.792 98.549 19.984 99.1784 20.368C99.8077 20.7413 100.277 21.248 100.586 21.888L99.4184 22.56C99.2157 22.1333 98.901 21.792 98.4744 21.536C98.0584 21.28 97.5837 21.152 97.0504 21.152C96.2504 21.152 95.5784 21.424 95.0344 21.968C94.501 22.512 94.2344 23.1893 94.2344 24C94.2344 24.8 94.501 25.472 95.0344 26.016C95.5784 26.56 96.2504 26.832 97.0504 26.832C97.5837 26.832 98.0637 26.7093 98.4904 26.464C98.917 26.208 99.2424 25.8667 99.4664 25.44L100.65 26.128C100.309 26.7573 99.8184 27.264 99.1784 27.648C98.5384 28.0213 97.829 28.208 97.0504 28.208ZM105.416 22.88C106.216 22.88 106.878 23.12 107.4 23.6C107.934 24.0693 108.2 24.6827 108.2 25.44C108.2 26.1973 107.934 26.816 107.4 27.296C106.878 27.7653 106.216 28 105.416 28H102.04V20H103.432V22.88H105.416ZM109.24 20H110.632V28H109.24V20ZM105.416 26.704C105.811 26.704 106.142 26.592 106.408 26.368C106.686 26.1333 106.824 25.824 106.824 25.44C106.824 25.056 106.686 24.7467 106.408 24.512C106.142 24.2773 105.811 24.16 105.416 24.16H103.432V26.704H105.416ZM114.936 24.72C114.936 24.2507 115.038 23.8133 115.24 23.408C115.443 23.0027 115.688 22.656 115.976 22.368C116.264 22.08 116.552 21.808 116.84 21.552C117.128 21.2853 117.374 20.9973 117.576 20.688C117.779 20.368 117.88 20.032 117.88 19.68C117.88 19.1467 117.694 18.7413 117.32 18.464C116.958 18.176 116.483 18.032 115.896 18.032C114.723 18.032 113.971 18.5493 113.64 19.584L112.376 18.88C112.643 18.1333 113.096 17.568 113.736 17.184C114.376 16.7893 115.102 16.592 115.912 16.592C116.862 16.592 117.672 16.8587 118.344 17.392C119.027 17.9253 119.368 18.6667 119.368 19.616C119.368 20.064 119.267 20.4853 119.064 20.88C118.862 21.2747 118.616 21.616 118.328 21.904C118.04 22.192 117.752 22.4747 117.464 22.752C117.176 23.0187 116.931 23.3227 116.728 23.664C116.526 23.9947 116.424 24.3467 116.424 24.72H114.936ZM115.672 28.176C115.384 28.176 115.139 28.0747 114.936 27.872C114.734 27.6693 114.632 27.424 114.632 27.136C114.632 26.848 114.734 26.6027 114.936 26.4C115.139 26.1973 115.384 26.096 115.672 26.096C115.971 26.096 116.216 26.1973 116.408 26.4C116.611 26.6027 116.712 26.848 116.712 27.136C116.712 27.424 116.611 27.6693 116.408 27.872C116.216 28.0747 115.971 28.176 115.672 28.176Z" fill="white"/>
<defs>
<clipPath id="clip0">
<rect width="45" height="45" fill="white" transform="translate(155.385)"/>
</clipPath>
</defs>
</svg>
