<svg width="25" height="25" viewBox="0 0 25 25" fill="none" xmlns="http://www.w3.org/2000/svg">
<g clip-path="url(#clip0)">
<path d="M12.5 14.0814C4.98843 14.0814 0.851562 17.6349 0.851562 24.0875C0.851562 24.5915 1.26001 24.9999 1.76396 24.9999H23.236C23.7399 24.9999 24.1484 24.5915 24.1484 24.0875C24.1484 17.6353 20.0116 14.0814 12.5 14.0814ZM2.70957 23.1751C3.06846 18.3506 6.35767 15.9063 12.5 15.9063C18.6423 15.9063 21.9316 18.3506 22.2908 23.1751H2.70957Z" fill="#8587E3" fill-opacity="0.5"/>
<path d="M12.5001 0C9.04961 0 6.44775 2.6542 6.44775 6.17368C6.44775 9.79624 9.1628 12.743 12.5001 12.743C15.8373 12.743 18.5524 9.79624 18.5524 6.17397C18.5524 2.6542 15.9505 0 12.5001 0ZM12.5001 10.9185C10.1689 10.9185 8.27256 8.79014 8.27256 6.17397C8.27256 3.65391 10.0505 1.8248 12.5001 1.8248C14.9104 1.8248 16.7275 3.69434 16.7275 6.17397C16.7275 8.79014 14.8313 10.9185 12.5001 10.9185Z" fill="#8587E3" fill-opacity="0.5"/>
</g>
<defs>
<clipPath id="clip0">
<rect width="25" height="25" fill="white"/>
</clipPath>
</defs>
</svg>
