<svg width="355" height="354" viewBox="0 0 355 354" fill="none" xmlns="http://www.w3.org/2000/svg">
<path d="M158 12V44.5L176 42.5L193.5 43.5V12H158Z" fill="#1D1E49"/>
<path d="M177 39.5L158 12H194L177 39.5Z" fill="#3C4B74"/>
<circle cx="178.213" cy="176.783" r="137.5" transform="rotate(-0.29796 178.213 176.783)" fill="#3C4B74"/>
<circle cx="178.424" cy="177.119" r="95.7746" transform="rotate(0.387655 178.424 177.119)" stroke="black" stroke-width="59"/>
<circle cx="178.25" cy="176.92" r="95.625" transform="rotate(-1.44937 178.25 176.92)" stroke="url(#paint0_linear)" stroke-width="59" stroke-miterlimit="3.8637" stroke-dasharray="50 50"/>
<circle cx="177.925" cy="176.951" r="95.625" transform="rotate(44.7004 177.925 176.951)" stroke="url(#paint1_linear)" stroke-width="59" stroke-miterlimit="3.8637" stroke-dasharray="50 50"/>
<circle cx="178.329" cy="176.559" r="95.625" transform="rotate(90.7125 178.329 176.559)" stroke="url(#paint2_linear)" stroke-width="59" stroke-miterlimit="3.8637" stroke-dasharray="50 50"/>
<circle cx="178.049" cy="177.026" r="95.625" transform="rotate(134.668 178.049 177.026)" stroke="url(#paint3_linear)" stroke-width="59" stroke-miterlimit="3.8637" stroke-dasharray="50 50"/>
<circle cx="178.227" cy="176.526" r="95.625" transform="rotate(179.703 178.227 176.526)" stroke="url(#paint4_linear)" stroke-width="59" stroke-miterlimit="3.8637" stroke-dasharray="50 50"/>
<circle cx="178.754" cy="176.505" r="95.625" transform="rotate(-90.1697 178.754 176.505)" stroke="url(#paint5_linear)" stroke-width="59" stroke-miterlimit="3.8637" stroke-dasharray="50 50"/>
<path d="M301.967 152L243 157.444V195.556L301.967 201L304 188.5V176.5V164L301.967 152Z" fill="#258C3C"/>
<circle cx="178.491" cy="176.491" r="65.9908" stroke="white" stroke-width="3"/>
<path d="M173.35 73.1L177.95 71.5H179.95V89H177.65V74L173.925 75.1L173.35 73.1Z" fill="white"/>
<path d="M220.67 83.6418L215.555 87.4554C216.792 88.0884 217.677 88.9638 218.211 90.0816C218.745 91.1994 218.818 92.4047 218.429 93.6975C217.935 95.3415 216.99 96.4583 215.594 97.0481C214.178 97.649 212.679 97.7119 211.099 97.2367C209.791 96.8431 208.738 96.2047 207.942 95.3214C207.146 94.4381 206.704 93.3914 206.615 92.1813L208.814 91.6415C208.843 93.3385 209.823 94.4773 211.755 95.0581C212.808 95.3748 213.735 95.3579 214.537 95.0072C215.359 94.6454 215.915 93.9856 216.203 93.028C216.491 92.0703 216.391 91.2138 215.905 90.4584C215.434 89.7078 214.673 89.1741 213.619 88.8574L213.045 88.6846L212.569 87.0536L218.024 82.9768L210.579 80.7378L211.205 78.6549L221.26 81.6786L220.67 83.6418Z" fill="white"/>
<path d="M252.481 109.641C251.674 110.743 250.691 111.48 249.532 111.85L249.552 111.865L240.016 115.325L237.898 113.775L244.865 111.284C244.442 111.016 244.203 110.862 244.15 110.822C242.724 109.779 241.874 108.485 241.599 106.942C241.348 105.394 241.734 103.921 242.758 102.523C243.792 101.111 245.074 100.304 246.606 100.103C248.156 99.8751 249.651 100.288 251.09 101.341C252.502 102.375 253.341 103.67 253.605 105.227C253.88 106.771 253.505 108.242 252.481 109.641ZM249.776 103.137C248.888 102.487 247.965 102.224 247.007 102.349C246.061 102.483 245.264 102.994 244.614 103.881C243.964 104.769 243.713 105.69 243.861 106.645C244.032 107.597 244.561 108.397 245.449 109.047C246.337 109.697 247.253 109.955 248.198 109.82C249.167 109.682 249.976 109.17 250.626 108.282C251.275 107.394 251.521 106.48 251.364 105.538C251.206 104.597 250.677 103.796 249.776 103.137Z" fill="white"/>
<path d="M272.729 124.304L275.73 128.139L276.377 130.032L259.818 135.691L259.074 133.515L273.268 128.664L271.022 125.495L272.729 124.304ZM266.642 149.011C264.703 148.441 263.386 147.138 262.691 145.104C261.996 143.069 262.24 141.233 263.424 139.596C264.618 137.937 266.509 136.666 269.095 135.782C271.682 134.898 273.955 134.746 275.915 135.327C277.853 135.897 279.17 137.2 279.866 139.234C280.561 141.269 280.317 143.105 279.133 144.742C277.938 146.401 276.048 147.672 273.461 148.556C270.875 149.44 268.602 149.592 266.642 149.011ZM269.847 137.982C267.797 138.683 266.336 139.587 265.464 140.695C264.592 141.803 264.386 143.028 264.844 144.368C265.302 145.709 266.215 146.55 267.582 146.893C268.956 147.252 270.667 147.081 272.717 146.38C274.768 145.679 276.226 144.767 277.092 143.643C277.98 142.53 278.195 141.302 277.737 139.962C277.278 138.621 276.365 137.78 274.998 137.437C273.63 137.094 271.913 137.276 269.847 137.982Z" fill="white"/>
<path d="M282.885 165.68L284.732 170.187L284.84 172.184L267.366 173.132L267.241 170.835L282.219 170.023L280.919 166.363L282.885 165.68ZM268.134 187.272L267.521 175.989L269.418 175.886L276.044 181.711C277.781 183.269 279.24 184.016 280.422 183.952C281.387 183.899 282.128 183.559 282.644 182.93C283.179 182.316 283.422 181.569 283.374 180.687C283.285 179.039 282.437 177.883 280.832 177.219L281.875 175.21C283.019 175.682 283.908 176.385 284.543 177.318C285.195 178.251 285.553 179.325 285.619 180.54C285.7 182.021 285.286 183.32 284.379 184.438C283.456 185.573 282.187 186.184 280.573 186.272C278.809 186.368 276.83 185.432 274.637 183.464L269.951 179.237L270.38 187.15L268.134 187.272Z" fill="white"/>
<path d="M277.211 206.584L277.495 211.446L276.95 213.37L260.113 208.596L260.741 206.383L275.172 210.475L275.13 206.591L277.211 206.584ZM268.759 220.076C268.282 221.76 267.36 222.997 265.992 223.787C264.641 224.582 263.131 224.743 261.464 224.27C259.796 223.797 258.588 222.865 257.839 221.475C257.09 220.085 256.954 218.548 257.431 216.864C257.918 215.148 258.842 213.903 260.205 213.129C261.568 212.355 263.083 212.204 264.751 212.677C266.066 213.05 267.093 213.705 267.832 214.642L274.403 222.352L273.68 224.901L268.936 219.269C268.832 219.759 268.773 220.028 268.759 220.076ZM266.619 219.469C266.923 218.395 266.848 217.438 266.393 216.599C265.938 215.76 265.182 215.19 264.123 214.89C263.065 214.59 262.114 214.675 261.27 215.146C260.438 215.638 259.872 216.413 259.572 217.471C259.272 218.529 259.349 219.478 259.804 220.317C260.27 221.177 261.033 221.757 262.091 222.057C263.149 222.357 264.095 222.262 264.927 221.77C265.755 221.294 266.319 220.527 266.619 219.469Z" fill="white"/>
<path d="M255.958 240.228L254.425 244.851L253.206 246.437L239.328 235.776L240.73 233.952L252.625 243.09L254.022 239.466L255.958 240.228ZM249.993 247.009L251.737 248.349L245.082 257.013L243.436 255.749L235.088 241.296L236.565 239.373L244.845 253.71L249.993 247.009Z" fill="white"/>
<path d="M216.184 266.843L213.858 267.889C212.353 268.565 210.882 268.687 209.445 268.255C207.993 267.829 206.919 266.841 206.222 265.29C205.519 263.725 205.501 262.262 206.169 260.902C206.845 259.52 207.936 258.491 209.441 257.814C210.687 257.254 211.923 257.055 213.147 257.218C214.362 257.402 215.395 257.952 216.245 258.868L214.905 260.703C214.351 260.039 213.677 259.638 212.884 259.501C212.092 259.364 211.255 259.493 210.373 259.889C209.355 260.347 208.657 260.971 208.282 261.761C207.897 262.573 207.91 263.436 208.32 264.348C208.73 265.26 209.366 265.842 210.229 266.094C211.076 266.353 211.993 266.26 212.982 265.816L217.497 263.787L220.624 272.331L211.89 276.256L210.998 274.272L217.817 271.208L216.184 266.843Z" fill="white"/>
<path d="M184.084 280.248L179.37 281.472L177.377 281.311L178.787 263.868L181.08 264.053L179.871 279.004L183.672 278.208L184.084 280.248ZM175.202 279.53L170.488 280.754L168.495 280.593L169.905 263.15L172.198 263.335L170.989 278.286L174.79 277.49L175.202 279.53Z" fill="white"/>
<path d="M148.082 275.388L143.24 274.867L141.432 274.011L148.919 258.193L150.997 259.177L144.581 272.735L148.418 273.335L148.082 275.388ZM134.055 261.171C132.812 259.55 132.597 257.881 133.41 256.164C134.094 254.717 135.137 253.819 136.539 253.468C137.948 253.139 139.444 253.349 141.026 254.098C142.607 254.847 143.71 255.867 144.335 257.158C144.952 258.464 144.918 259.84 144.234 261.286C143.421 263.004 141.994 263.896 139.953 263.962C140.863 265.389 140.966 266.848 140.26 268.339C139.582 269.77 138.587 270.646 137.275 270.965C135.94 271.292 134.602 271.138 133.261 270.503C131.89 269.855 130.923 268.917 130.36 267.692C129.759 266.467 129.798 265.14 130.475 263.708C131.181 262.217 132.374 261.371 134.055 261.171ZM134.213 268.492C135.042 268.884 135.823 268.987 136.557 268.799C137.276 268.605 137.824 268.109 138.202 267.31C138.573 266.527 138.602 265.784 138.288 265.083C137.975 264.381 137.411 263.838 136.598 263.453C135.784 263.068 135.007 262.977 134.266 263.179C133.525 263.382 132.969 263.874 132.598 264.658C132.22 265.456 132.184 266.195 132.489 266.874C132.795 267.554 133.369 268.093 134.213 268.492ZM140.074 256.109C139.049 255.624 138.122 255.48 137.291 255.677C136.46 255.874 135.838 256.409 135.425 257.283C135.018 258.142 135.002 258.955 135.377 259.722C135.751 260.489 136.451 261.115 137.475 261.6C138.484 262.078 139.404 262.218 140.235 262.021C141.066 261.825 141.684 261.297 142.091 260.438C142.504 259.564 142.524 258.744 142.149 257.977C141.775 257.209 141.083 256.587 140.074 256.109Z" fill="white"/>
<path d="M117.102 236.785L125.422 244.431L124.137 245.83L115.327 246.291C112.996 246.389 111.43 246.874 110.629 247.746C109.975 248.457 109.683 249.219 109.752 250.03C109.799 250.842 110.147 251.546 110.797 252.144C112.012 253.261 113.426 253.496 115.038 252.85L115.696 255.016C114.548 255.477 113.42 255.596 112.314 255.371C111.196 255.159 110.189 254.641 109.293 253.818C108.201 252.814 107.589 251.596 107.458 250.162C107.326 248.705 107.806 247.381 108.9 246.191C110.096 244.89 112.165 244.177 115.109 244.053L121.415 243.804L115.579 238.442L117.102 236.785ZM105.451 247.673L100.982 245.739L99.5091 244.385L111.35 231.5L113.044 233.056L102.894 244.101L106.381 245.811L105.451 247.673Z" fill="white"/>
<path d="M97.1596 210.37L101.853 220.65L100.124 221.439L91.8289 218.438C89.6426 217.623 88.0113 217.46 86.9348 217.952C86.0555 218.353 85.4902 218.941 85.2391 219.715C84.9659 220.481 85.0128 221.266 85.3796 222.07C86.0649 223.571 87.2759 224.337 89.0125 224.369L88.7763 226.62C87.539 226.599 86.4543 226.269 85.5222 225.632C84.5749 225.002 83.8486 224.134 83.3433 223.027C82.7272 221.678 82.6373 220.317 83.0736 218.945C83.5182 217.551 84.4758 216.519 85.9464 215.847C87.5535 215.114 89.7373 215.262 92.4977 216.291L98.4043 218.514L95.1129 211.305L97.1596 210.37ZM91.6841 198.378L96.3773 208.657L94.6489 209.446L86.3533 206.445C84.1671 205.63 82.5357 205.468 81.4593 205.959C80.58 206.361 80.0147 206.949 79.7636 207.723C79.4904 208.489 79.5372 209.274 79.9041 210.077C80.5894 211.578 81.8004 212.344 83.537 212.376L83.3008 214.627C82.0635 214.606 80.9788 214.277 80.0466 213.64C79.0993 213.01 78.373 212.141 77.8677 211.034C77.2516 209.685 77.1618 208.324 77.5981 206.953C78.0427 205.559 79.0003 204.526 80.4709 203.855C82.078 203.121 84.2618 203.269 87.0222 204.299L92.9288 206.521L89.6373 199.312L91.6841 198.378Z" fill="white"/>
<path d="M88.7755 177.255L88.0105 188.529L86.1148 188.401L80.2473 181.813C78.7128 180.056 77.3553 179.137 76.1746 179.056C75.2102 178.991 74.4333 179.239 73.8439 179.8C73.2391 180.344 72.9067 181.056 72.8469 181.938C72.7352 183.584 73.4355 184.834 74.9478 185.689L73.6684 187.556C72.5904 186.949 71.7932 186.143 71.2766 185.139C70.7434 184.134 70.518 183.024 70.6004 181.81C70.7008 180.33 71.2694 179.091 72.306 178.092C73.3604 177.078 74.6941 176.626 76.3071 176.735C78.0697 176.855 79.9198 178.024 81.8573 180.244L85.9941 185.01L86.5306 177.103L88.7755 177.255ZM78.4627 171.556L78.6353 169.012C78.747 167.365 79.3318 166.01 80.3896 164.946C81.4485 163.865 82.826 163.383 84.5221 163.498C86.2349 163.614 87.534 164.287 88.4194 165.516C89.3204 166.763 89.715 168.21 89.6033 169.856C89.5108 171.22 89.1047 172.403 88.3851 173.407C87.65 174.393 86.6786 175.045 85.4709 175.364L84.4822 173.317C85.3295 173.141 86.0001 172.736 86.4942 172.101C86.9883 171.466 87.2681 170.667 87.3335 169.702C87.4091 168.588 87.1868 167.679 86.6666 166.976C86.1308 166.255 85.3641 165.86 84.3664 165.792C83.3687 165.725 82.5557 166.012 81.9275 166.654C81.3004 167.28 80.9501 168.133 80.8768 169.214L80.5417 174.153L71.5315 172.89L72.1797 163.337L74.3497 163.484L73.8437 170.942L78.4627 171.556Z" fill="white"/>
<path d="M75.4458 145.094L76.3809 140.315L77.3884 138.587L92.5057 147.403L91.3471 149.39L78.3894 141.833L77.4631 145.605L75.4458 145.094ZM80.5035 137.612L78.6031 136.504L84.1066 127.067L85.8991 128.112L96.0124 141.389L94.7908 143.484L84.7603 130.313L80.5035 137.612Z" fill="white"/>
<path d="M113.388 106.78C115.326 106.136 116.974 106.48 118.33 107.81C119.473 108.93 119.98 110.21 119.853 111.649C119.702 113.088 119.014 114.433 117.789 115.682C116.563 116.932 115.239 117.64 113.814 117.807C112.378 117.963 111.088 117.48 109.946 116.36C108.589 115.03 108.214 113.39 108.819 111.439C107.173 111.832 105.761 111.451 104.583 110.296C103.453 109.187 102.951 107.961 103.08 106.616C103.208 105.248 103.791 104.034 104.829 102.975C105.891 101.892 107.093 101.285 108.436 101.154C109.789 100.987 111.032 101.458 112.162 102.567C113.34 103.722 113.749 105.127 113.388 106.78ZM106.418 104.533C105.776 105.187 105.424 105.892 105.36 106.647C105.309 107.39 105.598 108.07 106.229 108.689C106.848 109.296 107.54 109.566 108.305 109.499C109.071 109.433 109.769 109.078 110.399 108.436C111.029 107.793 111.37 107.089 111.421 106.322C111.472 105.555 111.189 104.869 110.57 104.262C109.939 103.644 109.253 103.367 108.511 103.434C107.769 103.5 107.072 103.866 106.418 104.533ZM116.2 114.124C116.993 113.315 117.433 112.486 117.519 111.636C117.605 110.787 117.303 110.024 116.613 109.347C115.934 108.682 115.172 108.401 114.324 108.503C113.476 108.606 112.656 109.062 111.862 109.871C111.081 110.668 110.647 111.492 110.561 112.341C110.475 113.191 110.771 113.948 111.449 114.613C112.139 115.29 112.908 115.577 113.756 115.474C114.603 115.372 115.418 114.922 116.2 114.124Z" fill="white"/>
<path d="M142.356 97.8725L131.827 101.976L131.137 100.206L134.603 92.0933C135.541 89.9568 135.796 88.3372 135.366 87.2347C135.015 86.334 134.46 85.7364 133.701 85.4418C132.952 85.1256 132.166 85.1279 131.343 85.4487C129.805 86.0478 128.972 87.2135 128.842 88.9455L126.607 88.5821C126.699 87.348 127.089 86.2837 127.778 85.3892C128.461 84.4791 129.369 83.8032 130.502 83.3613C131.885 82.8227 133.248 82.8101 134.593 83.3234C135.959 83.8462 136.936 84.8608 137.523 86.3671C138.165 88.0132 137.893 90.185 136.709 92.8827L134.155 98.6539L141.539 95.7761L142.356 97.8725ZM144.971 84.5645C146.602 83.929 148.145 83.9179 149.6 84.5313C151.049 85.1291 152.089 86.2356 152.718 87.8506C153.348 89.4656 153.334 90.9913 152.678 92.4278C152.021 93.8643 150.878 94.9002 149.247 95.5357C147.585 96.1833 146.035 96.1974 144.595 95.5779C143.155 94.9585 142.12 93.8413 141.491 92.2263C140.995 90.9529 140.897 89.7388 141.198 88.5839L143.38 78.6914L145.849 77.7291L144.221 84.9106C144.674 84.698 144.925 84.5826 144.971 84.5645ZM145.779 86.6376C144.739 87.0431 144.021 87.6805 143.627 88.5498C143.232 89.4191 143.234 90.3662 143.634 91.3911C144.033 92.416 144.675 93.1227 145.56 93.5113C146.455 93.8783 147.414 93.862 148.439 93.4626C149.464 93.0631 150.174 92.4288 150.568 91.5595C150.972 90.6686 150.975 89.7107 150.575 88.6858C150.176 87.6609 149.529 86.9649 148.635 86.598C147.756 86.2249 146.804 86.2382 145.779 86.6376Z" fill="white"/>
<path d="M137.869 181H135.73V168.994L127.45 181H125.725V164.9H127.864V176.929L136.144 164.9H137.869V181ZM150.996 169.5V179.091H152.583V184.082H150.605V181H141.98V184.082H140.002V179.091H141.405C142.141 178.079 142.509 176.661 142.509 174.836V169.5H150.996ZM143.682 179.091H149.018V171.363H144.487V174.836C144.487 176.523 144.219 177.941 143.682 179.091ZM165.33 176.17H155.693C155.893 177.182 156.36 177.979 157.096 178.562C157.832 179.129 158.752 179.413 159.856 179.413C161.374 179.413 162.478 178.853 163.168 177.734L164.87 178.7C163.736 180.433 162.049 181.299 159.81 181.299C158.001 181.299 156.514 180.732 155.348 179.597C154.214 178.432 153.646 176.983 153.646 175.25C153.646 173.502 154.206 172.061 155.325 170.926C156.445 169.776 157.894 169.201 159.672 169.201C161.359 169.201 162.731 169.799 163.789 170.995C164.863 172.16 165.399 173.586 165.399 175.273C165.399 175.564 165.376 175.863 165.33 176.17ZM159.672 171.087C158.614 171.087 157.725 171.386 157.004 171.984C156.299 172.582 155.862 173.395 155.693 174.422H163.375C163.207 173.364 162.785 172.544 162.11 171.961C161.436 171.378 160.623 171.087 159.672 171.087ZM165.962 169.5H175.806V171.432H171.896V181H169.895V171.432H165.962V169.5ZM185.288 177.573L191.659 169.5H193.269V181H191.291V172.927L184.92 181H183.31V169.5H185.288V177.573ZM196.315 169.5H203.859V171.432H198.316V181H196.315V169.5ZM211.962 169.201C213.572 169.201 214.944 169.791 216.079 170.972C217.213 172.153 217.781 173.579 217.781 175.25C217.781 176.937 217.213 178.37 216.079 179.551C214.959 180.716 213.587 181.299 211.962 181.299C210.06 181.299 208.611 180.54 207.615 179.022V185.6H205.614V169.5H207.615V171.478C208.611 169.96 210.06 169.201 211.962 169.201ZM211.709 179.367C212.859 179.367 213.825 178.976 214.607 178.194C215.389 177.381 215.78 176.4 215.78 175.25C215.78 174.085 215.389 173.111 214.607 172.329C213.825 171.532 212.859 171.133 211.709 171.133C210.543 171.133 209.57 171.532 208.788 172.329C208.006 173.111 207.615 174.085 207.615 175.25C207.615 176.4 208.006 177.381 208.788 178.194C209.57 178.976 210.543 179.367 211.709 179.367ZM229.69 171.478V169.5H231.691V181H229.69V179.022C228.709 180.54 227.26 181.299 225.343 181.299C223.718 181.299 222.346 180.716 221.226 179.551C220.092 178.37 219.524 176.937 219.524 175.25C219.524 173.579 220.092 172.153 221.226 170.972C222.361 169.791 223.733 169.201 225.343 169.201C227.26 169.201 228.709 169.96 229.69 171.478ZM225.596 179.367C226.762 179.367 227.735 178.976 228.517 178.194C229.299 177.381 229.69 176.4 229.69 175.25C229.69 174.085 229.299 173.111 228.517 172.329C227.735 171.532 226.762 171.133 225.596 171.133C224.446 171.133 223.48 171.532 222.698 172.329C221.916 173.111 221.525 174.085 221.525 175.25C221.525 176.4 221.916 177.381 222.698 178.194C223.48 178.976 224.446 179.367 225.596 179.367Z" fill="white"/>
<defs>
<linearGradient id="paint0_linear" x1="178.39" y1="264.288" x2="178.39" y2="237.788" gradientUnits="userSpaceOnUse">
<stop stop-color="#CF0202"/>
<stop offset="1" stop-color="#CF0202" stop-opacity="0.13"/>
</linearGradient>
<linearGradient id="paint1_linear" x1="178.066" y1="264.319" x2="178.066" y2="237.819" gradientUnits="userSpaceOnUse">
<stop stop-color="#CF0202"/>
<stop offset="1" stop-color="#CF0202" stop-opacity="0.13"/>
</linearGradient>
<linearGradient id="paint2_linear" x1="178.469" y1="263.927" x2="178.469" y2="237.427" gradientUnits="userSpaceOnUse">
<stop stop-color="#CF0202"/>
<stop offset="1" stop-color="#CF0202" stop-opacity="0.13"/>
</linearGradient>
<linearGradient id="paint3_linear" x1="178.19" y1="264.394" x2="178.19" y2="237.894" gradientUnits="userSpaceOnUse">
<stop stop-color="#CF0202"/>
<stop offset="1" stop-color="#CF0202" stop-opacity="0.13"/>
</linearGradient>
<linearGradient id="paint4_linear" x1="178.368" y1="263.894" x2="178.368" y2="237.394" gradientUnits="userSpaceOnUse">
<stop stop-color="#CF0202"/>
<stop offset="1" stop-color="#CF0202" stop-opacity="0.13"/>
</linearGradient>
<linearGradient id="paint5_linear" x1="178.895" y1="263.873" x2="178.895" y2="237.373" gradientUnits="userSpaceOnUse">
<stop stop-color="#CF0202"/>
<stop offset="1" stop-color="#CF0202" stop-opacity="0.13"/>
</linearGradient>
</defs>
</svg>
